<?xml version="1.0" encoding="UTF-8"?>
<svg id="uuid-de168d7f-2bfa-46ea-9814-eff65eeef82b" data-name="Layer 1" xmlns="http://www.w3.org/2000/svg" viewBox="0 0 318.36 145">
  <defs>
    <style>
      .uuid-f98cedf3-c5ba-4e11-9870-101e6ce04314 {
        fill: #121212;
      }
    </style>
  </defs>
  <path class="uuid-f98cedf3-c5ba-4e11-9870-101e6ce04314" d="M122.73,131.31l.05,4.29-.12,3.1c-.02.44-.93.99-1.34,1.01l-2.41.07-1.57.22c-.28.04-.91,0-1.11-.19s-.45-.79-.46-1.06l-.07-2.15-.25-4.6c-.07-1.22-.47-2.33-.48-3.57l-.03-3.29c0-.13-.31-.59-.4-.71l-.21-4.89c-.18-4.32-.04-8.42.19-12.71l.38-6.95-.1-8.38-.09-7.93.17-6.44-3.22-.42-6.24-.84-7.49-.87-12.89-1.53-5.04-.58-3.16-.29-.35-1.2.84-4.94,1.02-6.36.69-5.07.94-6.72,1.2-8.86.75-5.99.94-7.02c.23-1.73.52-3.36.47-5.17,0-.34,0-1.25.34-1.31l3.89.55,5.9,1.03,9.11,1.51,5.81.59,7.86.79,5.57.43,7.27.47,6.47.69,4.96.52,7.4.98c3.63.45,6.98,1.06,10.51,1.94l.24.91.29,1.68.16,5.31c.17,5.66-.6,11.14-1.25,16.75l-.25,4.08-.06,5.75-.09,6.24-.31,8.15-.21,2.88c-.51.31-1.54.45-2.19.3-2.91-.71-5.67-1.19-8.66-1.45l-13.83-1.22-5.23-.54-5.23-.37.18,44.4.31,2.98.15.95.16,3.13.15,1.96ZM156.31,67.88v-4.43s.15-7.43.15-7.43l.25-2.7c.49-5.34,1.31-10.57,1.18-15.97l-.15-6.19-.74-.8-8.59-1.55-5.29-.71-6.41-.75-7.3-.77-7.67-.51-5.76-.45-6.45-.64-6.03-.59-2.4-.29-5.77-.99-10.83-1.94-.45,5.39-1.29,9.82-1.53,11.56-1.23,8.81-1.2,8.15-1.11,6.61,10.68,1.15,8.9,1.04,7.87.9,8.2,1.1,15.72,1.57,10.65,1.01,7.75.67,6.62,1.13,1.73.27.23-5.64.25-6.82ZM116.56,135.14l.18,3.7c0,.18.61.2.79.18l3.73-.33c.22-.02.55-.45.55-.69l.02-4.12-.14-3.54c0-.19-.52-.72-.64-.88l-.04-4.35c0-.12-.18-.52-.26-.64l-.17-46.74-4.61-.51-.05,5.65.1,8.63.11,8.38-.37,6.95-.28,5.28.3,11.5.21,2.38.02,2.72c0,.35.29,1.04.48,1.38l-.07.78.15,4.29Z"/>
  <path class="uuid-f98cedf3-c5ba-4e11-9870-101e6ce04314" d="M194.89,123.32l.03,9.32.09,3.65.09,3.41c.01.56-.54,1.38-.98,1.46l-1.39.25c-.6.11-1.75.34-2.27.1-.3-.13-.51-1.05-.55-1.37l-.05-10.49-.1-1.02-.17-1.62-.27-2.43-.41-5.78-.51-7.31-.2-3.72-.13-5.27-.05-5.44-2.71.05-4.59-.12-4.71-.11c-.14,0-.55-.23-.63-.31-1.03-4-1.72-7.89-2.09-11.99l-.71-6.01-.23-2.44-.53-4.72-.71-4.66-4.77-.17-3.31-.13c-.22,0-.4-.62-.43-.84l-.36-2.85-.91-8.19-.25-4.56-.25-7.19-.07-10.79-.17-4.99-.1-5.58c0-.28.03-.67.11-.83.1-.21.69-.33.95-.31l3.62.25,3.14.43,4.6.45,5.83.66,4.96.54,5,.49,9.58.99,7.43.85,4.58.56,3.83.95,1.4.42.48.12.1.45-.07,1.39c0,.1.03.5.05.6l.46,2.98.93,5.06,1.01,8.35.22,2.42.23,3.11.49,9.09.43,5.36.22,3.48c.01.18-.43.58-.57.5l-.7-.41-2.99-.53-9.11-.54.44,4.9.28,7.18.04,2.88v8.17s.14,3.74.14,3.74l.13.6-.04.61c-.01.18-.58.18-.76.17l-1.7-.13-4.09.02-7.56.17,1,25.2.6.8-.29.63ZM215.89,67.73l2.9.36-.58-7.28-.36-5.67-.47-7.68-1.06-9.25-1.04-5.67-.49-4.49-2.94-.93-9.11-1.22-8.81-1-7.26-.69-7.37-.76-3.84-.5-6.78-.65-4.88-.68-2.26-.1.14,3.99.27,8.7.06,8.38.24,6.95.28,5.04.78,7.28.55,3.58h2.98s2.86.02,2.86.02l8.64,1.18,1.42.2,6.25.21,7.2.17,5.04.07,8.16-.06,9.47.5ZM206.22,92.46c-.55-.24-.7-.31-.53-.23l.18-.85.06-.93s.33-.45.33-.59l.05-1.36v-.67s-.08-4.73-.08-4.73l-.32-10.06-.35-4.61-6.35.04-5.75-.04-6.72-.18-6.55-.17-2.13-.25-5.81-.89.63,3.71.41,2.86.47,4.8,1.05,9.05.16,1.04c.03.19.27.67.36.83l.23.53-.3,1.44.65.19-.34.86.88,3.54,6.46.11,5.28-.08,10.06-.46,8.12-.04-.15-2.85ZM190.85,138.09v2.51s.93-.02.93-.02l1.7-.25c.28-.04.7-.58.69-.86l-.15-3.88-.09-7.66h-.7s-.02-2.65-.02-2.65l.14-3.4-.98-25.12-3.31.19.21,5.09.04,4.07.31,5.76.55,7.85.24,4.33.18.82.1,3.21.12,3.93.03,6.1Z"/>
  <path class="uuid-f98cedf3-c5ba-4e11-9870-101e6ce04314" d="M284.48,66.9l-1.35-.33-4.81-.71-9.79-1.17-4.45,67.22-.62.17-3.12,1.02c-1.16.38-2.22.34-2.31-.46l4.33-68.48-1.28-.21-3.83-.49-4.9-.62-.6-.12-4.19-.68-9.1-2.16-6.26-1.45-1.37-.26c-.33-.06-.59-.84-.56-1.15l.37-3.67.42-4.72,1.28-7.01.7-4.32,1.83-8.26,1.61-6.6.43-2.63.99-4.73.42-.18.48.28,1.18.13,5.05.28,9.15.86,7.16.77,8.15.77,8.63.82,6.48.79,1.96.23,5.73.8,4.78.39,4.57.47,8.01,1.09.87.34.44.17c.08.03.17.27.17.36v1.17s-.38,6.04-.38,6.04l-1.17,6.55-1.02,7.07-.66,6.59-.69,5.59-.07.53-.94,6.51-.68,3.92-.07.68c-.06.64-.45,2.05-1.25,2.12-1.18.1-2.4.04-3.53-.18l-5.13-1.03-5.23-.97-5.84-1.11ZM304.96,66.28l.49-2.86.68-4.6.56-4.26.93-8.39,1.31-9.58.99-5.26.3-2.47.15-2.58.14-2.73-3.35-.65-8.87-1.03-4.8-.4-1.97-.2-8.88-1.18-8.87-.96-4.03-.37-8.45-.8-10.01-1.06-6.24-.56-5.58-.32-1.05-.11-.75,3.97-.82,4.49-1.15,4.56-2.08,9.64-1.34,7.6-.92,7.45-.3,3.49c-.01.14.52.53.68.56l3.59.62,4.22,1.08,7.74,1.8,8.08,1.28,3.32.43,5.04.49,14.89,1.75,3.38.51,2.84.56,5.37,1.03,5.7,1.04,4.83.99,3.01.24c.16.01.69-.47.8-.59l.43-2.62ZM263.38,131.18l4.41-66.62-4.67-.51-4.31,68.08c.39.29.87.48,1.08.4l3.5-1.35Z"/>
  <path class="uuid-f98cedf3-c5ba-4e11-9870-101e6ce04314" d="M36.08,64.32l.06-.46,5.39.27.45.15.33-.09,6.14-.02,4.71-.83c2.88-.51,5.64-1.03,8.59-1.24l1.87-.13,3.56-.27c.39-.03,1.14-.24,1.49-.4l1.53-.68.45-.52-.59-2.34c-1.01-4.04.05-6.79-.37-9.14l-.78-4.34c-.36-1.99-.39-3.96-.37-5.99l.05-4.8c.02-2.11-.12-4.21-.48-6.29-1.27.62-2.86.14-3.48-.83-.08-.13,0-.74.15-.72.1.02.4.08.49.13l1.53.83.47-.54c-.34-1.16-1.53-1.99-2.5-2.29-.91-.29-1.34-1.46-.95-2.76.32-1.08,1.62-1.38,2.36-1.09.21.08.55.76.34.77l-1.02.05c-.44.02-.96.79-.86,1.38.07.41.66.67,1.1.96l2.11,1.41-.04-3.48v-4.53s-.43-4.32-.43-4.32l-.23-4.2-1.39.86.11.44c-.08-.03-.41-.11-.52-.05l-2.29,1.3-3.58,1.74.83.42c.74.37,1.21,1.04,1.76,1.7l-.17-1.74c-.02-.17.08-.49.14-.61s.73-.17.84-.05l2.76,2.79-.2-2.85-.27-2.32.74-.07.28.19.37,3.44.54,2.79.03,1.03c0,.16-.67.48-.77.37l-1.38-1.6-1.84-2.08.62,4.2c.02.15-.12.57-.19.69s-.61.02-.63-.12l-.16-.99-.28-.68c-.06.3-.13.68-.1.49l-.14.75c-.1.57-.83,1.55-1.41,1.81-1.28.56-3.31-3.23-2.35-6.32.06-.2.03-.76-.09-.73l-2.61.92c.23.31.54.74.6.95l1.62,5.38.45,1.6c.25,0,1.4-.1,1.87.06.94.31,1.67,2.05.98,3.19l-.58.95,2.72,1.34c.2.1.38.82.2.84l-.71.07-1.91-.98-.29.31.08.75-.59.56c-.13.12-.49-.35-.56-.55l-1.54-4.92c-.22-.02-.83-.18-.77-.38.05-.15.2-.49.29-.62l.46-.63c-.42-.25-.86-.51-.93-.74l-.32-1.02-1.34-4.96c-.06-.23-.05-.7-.04-.86,0-.11-.16-.19-.27-.15l-.29.11-3.17,1.02-.59.19-.76.19-2.1.54-.47.16c-.11.04.29.27.38.34.12.2.35.67.43.94l1.7,5.57,2.02-.64h.74s0,.32,0,.32c0,.13-.37.63-.6.7l-2.28.68c-.39.12-.9-.84-1.02-1.25l-1.67-5.98c.05-.25,0-.49-.11-.73l-6.97.7-3.36.22-.95.07-4.81-.06-11.24.45-.31-.37,6.38-.33,5.42-.17,2.38-.03,3.57.06.34-.09,2.81-.2,7.17-.77,1.5-.28,4.29-1.3,3.81-1.32c2.56-.89,4.96-1.92,7.11-3.44l2.34-1.64.8-.37-.05,1.43.14,3.08.5,5.02-.03,3.63v1.43s.27,4.79.27,4.79l.49,4.18.05,3.26-.07,5.04c-.02,1.67.08,3.36.38,5.01l.74,4.11c.27,1.52.15,3.21,0,4.76-.2,1.91.16,3.62.59,5.41l.55,2.29-.84.59c-1.41.66-2.97.97-4.51,1.07l-3.35.22c-3.43.22-6.72.6-10.04,1.48-1.54.41-3.19.59-4.86.64l-3.88.11.03,1.43v58.31s.3,1.05.3,1.05c.06.2.21.86.15,1.05-.12.42-1.12.75-1.62.76l-1.58.04c-.35,0-1.08-.4-1.32-.74l-.03-13.55-.16-21.82-.07-24.9-.05-1.81-1.14-.15-2.19-.06ZM60.75,14.32c-.15-.33-.85-.62-1.38-.7-.38,1.82-.07,3.78,1.16,5.28,1.19-1.17.94-2.99.22-4.58ZM65.73,14.79l-.12.12.12.12.12-.12-.12-.12ZM60.34,24.59c.35-.37.31-1.14.03-1.71-.18-.38-1.01-.48-1.43-.23l.83,2.56.57-.61ZM60.93,27.05l-.62-.08.38.29.25-.21ZM42.31,126.89l1.01-.18c.21-.04.54-.41.49-.58l-.18-.62-.31-1.06v-59.82s-3.42-.14-3.42-.14l.04,2.1.06,24.89.16,21.81.06,13.39.83.25,1.27-.03Z"/>
  <path class="uuid-f98cedf3-c5ba-4e11-9870-101e6ce04314" d="M53.1,22.27l.06-.44-.37-.8-1.14-3.79-.41-1.06c-.08-.22-.1-.7-.07-1l.71.2.83,1.97,1.18,3.79,1.84-.37c.09-.02.41.1.49.15.12.07-.02.69-.16.72l-2.38.54-.58.09Z"/>
  <path class="uuid-f98cedf3-c5ba-4e11-9870-101e6ce04314" d="M19.09,17.14l-.07.46c-.13-.03-.53-.09-.66-.06l-1.34.27c-.14.74.61.31,1.14,1.17.07.12-.43.37-.57.35l-1.74-.23.19,3.65,1.16.97c.38.32.7,1.35.55,1.86-.36,1.24-1.34,1.09-1.47,2.12l-.13,1.07c-.03.22-.74-.21-1.04-.47-.1-.11-.61.97-.34,1.09.29.13.85,0,1.11-.06.19-.04.63.3.66.49s-.36.57-.56.61l-2.37.47c-.22.04-.76.28-1.01.42l.87,5.56c.04.28-.06.76-.27.81s-.7-.3-.74-.57l-.79-5.77-1.25.2c-.2.03-.72-.16-.98-.27l-.89,6.08-.45,3.11-.1.49c-.41,2.64-.68,5.11-.92,7.93l-.47.14c.52-7.31,2.13-14.24,2.73-21.51l-.11-.99.61-.16-.37-.6.03-2.36.43-5.32-.93.02.37-.5,1.29-.19,5.28-.16,1.17-.05.5.3c.2-.06.42-.11.45-.19l.1-.27.9.08ZM10.99,27.19c-.1-.15-.07-.89.08-.86l.54.09,2.06.51-.33-4.07c-1.3-.33-1.95-1.81-1.33-2.95.56-1.03,1.54-1.52,2.74-1.7l1.69-.15-.13-.16-1.85-.07-3.04-.05c-.21,0-.84.23-1.04.34l-.37,3.9-.15,4.39-.14,1.3-.23,3.13.95-.24,3.07-.71c.17-.04.75-.39.67-.38l-.56-1.52-2.65-.82ZM15.03,22.21l-.1-2.9-.84.08.2,2.75.74.07ZM15.18,26.32l-.07-2.94-.74-.16.27,3.2c.01.13.54.04.54-.1ZM15.09,27.85h-.19s.19,0,.19,0Z"/>
  <path class="uuid-f98cedf3-c5ba-4e11-9870-101e6ce04314" d="M25.64,55.22l1.32,4.34c.05.17-.04.61-.1.74-.08.18-.75-.09-.82-.33l-1.52-4.95-2.32.22-1.08,4.57c-.03.15-.41.47-.51.54s-.48-.29-.44-.45l.95-4.28-.56-.53c-.3-.29.61-.38.84-1.59l1.04-5.49c.03-.18.48-.43.62-.37l.56.26c.12.06.63.08.79.05l5.01-1.23c.19-.05.66,0,.82.09.2.11-.12.78-.35.83l-2.15.52,1.27,5.64,1.17,5.45c.03.16-.13.77-.26.73l-.66-.22-2.43-11.33-1.75.28-1.3.21,1.23,4.51c.25.9,1.02.47,1.25,1.06.06.15-.21.41-.59.72ZM24.15,53.96l-1.14-3.79-.69,4.03,1.83-.24Z"/>
  <path class="uuid-f98cedf3-c5ba-4e11-9870-101e6ce04314" d="M13.55,60.99c.03.28-.79.26-.82.03l-.18-1.16-.68-4.57-.43-4.56c-.02-.2.18-.63.33-.75s.74.15.86.36l2.82,5.02,2.08,3.57c.07.12.7-.17.77-.26l-1.41-8.36-.18-1.01c-.01-.07.03-.43.1-.45l.65-.22.41,1.39c.7,3.71,1.26,7.28,1.69,11.02l-.19.63c-.05.16-.55.33-.68.23-1.61-1.22-3.34-4.7-4.59-6.87-.43-.79-.73-1.36-1.39-2.14.13,2.37.49,4.28.66,6.15l.18,1.96ZM12.72,52.66l-.12.12.12.12.12-.12-.12-.12ZM18.24,59.37l-.12.12v.24l.12.12.12-.12v-.24l-.12-.12Z"/>
  <path class="uuid-f98cedf3-c5ba-4e11-9870-101e6ce04314" d="M44.54,54.95l-1.75-1.29-.84-.3,1.55,5.64c.05.17-.23.63-.36.6-.16-.04-.59-.29-.66-.54l-1.64-5.83-1.71-6.09c-.07-.26-.06-.94.12-1.2.87-1.23,2.45-1.61,3.9-1.08.72.26,1.16.77,1.43,1.47.57,1.52.48,2.9-.58,4.19l-1.41,1.7,3.25,2.66,1.59,1.59-.22.47c-.07.15-.68.05-.79-.07l-1.88-1.93ZM41.49,51.73l.9-1.4,1.04-2.24c.16-.35.23-1.27.05-1.62-.57-1.14-2.65-.63-3.21.22-.13.19-.05.79.02,1.03l1.21,4.01Z"/>
  <path class="uuid-f98cedf3-c5ba-4e11-9870-101e6ce04314" d="M35.05,58.92c-.87.08-1.51-.65-1.8-1.3-1.06-2.41-2.97-8.18-2.45-9.18.06-.12.6-.21.63-.08l.17.74c.6,2.64,1.43,5.29,2.39,7.81.12.31.62.88.9,1.1,1.34-.49,1.75-3.54,1.57-5.13l-.63-5.68c-.02-.2.24-.72.4-.7s.47.26.53.48l1.86,6.67,1.14,3.46.4.72c.08.15-.31.6-.48.61-.22.01-.72-.46-.78-.67l-1.11-3.39-.2-.6-.71,3.53c-.13.67-1,1.54-1.84,1.62Z"/>
  <path class="uuid-f98cedf3-c5ba-4e11-9870-101e6ce04314" d="M36.07,17.47l.43-.12.55-.16c0,.11-.07.48,0,.57l3.02,3.42.45-.26,1.16-3.86.82-.02.16.55,1.64,5.56.57,1.54c.08.21-.05.66-.24.76s-.73-.22-.8-.47l-1.65-5.34c-.71.73-.56,2.12-1.55,2.73-.23.14-1-.18-1.18-.39l-1.84-2.09-.49.15,1.09,5.27c.04.21-.09.63-.26.64s-.6-.27-.64-.45l-.8-3.45-.59-3.81c-.03-.19.13-.8.15-.77Z"/>
  <path class="uuid-f98cedf3-c5ba-4e11-9870-101e6ce04314" d="M51.67,31.15c-.37.04-.97-.75-1.09-1.08l-1.14-2.97c-.14-.36-.29-.84-.34-1.13-.02-.1.48-.24.57-.19.13.08.42.32.48.47l1.13,2.86c.1.26.41,1.02.67,1.04.55.03,1.56-.24,2.2-.4v-1.27s-.19-.42-.19-.42l.15-.58.17-1.57.24-2.25c.01-.14.33-.45.45-.51.17-.08.72.17.8.34l.92,1.91c.1.2.33.49.49.48l.85-.04c.21,0,.14.61-.03.73l-.68.5,1.01,2.36c.07.17-.12.69-.29.68s-.61-.22-.68-.39l-1-2.34-1.22.63-.03,2.39c0,.14-.08.59-.21.58l-.79-.08-2.41.26Z"/>
  <path class="uuid-f98cedf3-c5ba-4e11-9870-101e6ce04314" d="M51.23,56.9l2.19-1.35c.19-.12.74-.17.82.02s-.08.7-.27.82l-2.28,1.49c-.19.13-.6.26-.77.22s-.43-.38-.51-.57l-2.4-6.24-2.3-5.62c-.13-.33.6-.78.92-.96l2.87-1.6c.1-.06.57-.13.59-.04l.13.51-1.57,1.17-1.83,1,2.09,5.08,2.62-1.49c.17-.1.54-.19.72-.18.22,0,.18.81-.04.94l-2.91,1.61,1.93,5.18Z"/>
  <path class="uuid-f98cedf3-c5ba-4e11-9870-101e6ce04314" d="M57.37,46.06c1.06-.81,2.17-3.14,1.34-3.79-1.37-1.06-3.34,1.05-4.25,3.15l-.07.82c0,.11-.3.28-.41.29-1.1.05-.46-2.71,2.05-4.87,1.05-.9,2.71-.92,3.63.21,1.13,1.39-.43,4.16-2.5,5.69l-1.39,1.03-.35.26c-.1.08-.07.43-.04.56l1.36,4.68c.07.25.13.58.13.75,0,.22-.84.23-.91.03l-.41-1.22-1.19-4.1c-.2-.69.12-1.28.64-1.68l2.35-1.79Z"/>
  <path class="uuid-f98cedf3-c5ba-4e11-9870-101e6ce04314" d="M28.41,45.95c-.16.09-.59.13-.76.1-.21-.05-.21-.75-.02-.86l.87-.5-.41-1.36-1.11-3.96c-.2-.72-.89.09-1.54-.32-.19-.12.15-.6.33-.75l1.06-.87h.69c.85-.01,2.13-.12,3.06.38,2.14,1.16,3.71,3.33,2.68,4.78-.79,1.1-1.81,1.74-2.96,2.35l-1.89,1.01ZM32.43,42.07c.85-1.15-2.14-4.37-4.7-3.6l1.68,5.82,1.43-.8c.45-.25,1.26-.98,1.59-1.41Z"/>
  <path class="uuid-f98cedf3-c5ba-4e11-9870-101e6ce04314" d="M29.86,63.82l-4.06-.15-6.25.02-6.47.18-2.1.06-4.28.1c-.5-1.01-.88-2.23-.82-3.45l.25-4.56.53-6.91.36.89-.7,9.85c-.09,1.25.16,2.37.54,3.67h2.87s11.03-.31,11.03-.31c4.22-.12,8.32.11,12.36.41l.34.45-3.59-.25Z"/>
  <path class="uuid-f98cedf3-c5ba-4e11-9870-101e6ce04314" d="M45.27,33.55c-.23.25-1.2.2-1.48-.06-1.46-1.34-1.65-3.51-.85-5.09.43-.84,1.79-1.02,2.13-.53.51.76.85,1.54,1.27,2.58-.05.02.38-.16.54-.23l-.36-.69.1-.27c.03-.08-.01-.29-.05-.46l-.39-1.76c-.03-.13.11-.54.17-.67s.64.06.67.19l.92,4.18c.06.28.22.99.45.99l1.65-.05c.14,0,.47.05.59.08.17.04-.09.72-.25.78-.55.2-1.75.29-2.44.08-.5-.15-.9-.98-.99-1.58l-.65-.32-.28,1.63c-.05.27-.4.79-.77,1.19ZM44.47,28.77c-.74-.98-1.84,2.16-.13,3.86.63.63,1.54-2,.13-3.86Z"/>
  <path class="uuid-f98cedf3-c5ba-4e11-9870-101e6ce04314" d="M55.76,37.32l-.53.13.57.1,2.27.5c.21.05.51.76.32.84-.14.06-.52.16-.67.12l-.8-.25-2.09-.33c-.12-.02-.52.06-1,.15l.64,1.73c.08.22.06.74-.06.96-.12.2-.79-.07-.87-.31l-.8-2.49-1.41-4.38.61-.38c.9-.55,2-1.08,3.07-1.05,1,.02,1.71.79,1.64,1.87-.09,1.35-1.02,1.77-.91,2.81ZM54.27,37.03l1.38-2.25c.1-.16-.02-.79-.13-.92s-.59-.33-.76-.27l-2.3.83,1.14,3.48c.03.08.55.48.39.33.02-.36.12-.93.28-1.2Z"/>
  <path class="uuid-f98cedf3-c5ba-4e11-9870-101e6ce04314" d="M19.95,28.31c-.22.02-.83-.29-.93-.43-.64-.83,4.17-5.05,3.18-8.77-.17-.16-.97.07-1.18.23-2.14,1.6-1.82,2.63-2.56,2.87-.63.2-.79-1.82,2.6-4.04.28-.18,1.04-.27,1.34-.14,1.33.59,1.17,3.42.33,4.92l-2.09,3.77c.08.16.31.56.41.55l2.55-.34c.14-.02.56.29.6.43.05.19-.36.59-.56.61l-3.68.33ZM20.4,27.01l-.12.12.12.12.33-.12-.33-.12Z"/>
  <path class="uuid-f98cedf3-c5ba-4e11-9870-101e6ce04314" d="M33.76,30.63l-.17-.51-.38.46c-.21-.02-.55-.17-.66-.36-.26-.42.88-1.63,2-1.82l1.3-.22c1.37-.23,2.61.39,3.38,1.46.93,1.27,1.05,3-.27,4.15-.97.84-2.61,1.56-3.8,2.01-.16.06-.74-.17-.68-.31l.23-.48c.05-.11.3-.54.27-.66l-1.23-3.71ZM38,33.3c1.06-.59,1.19-1.89.62-2.8-.97-1.57-2.43-1.6-4.25-1.02l1.7,4.9,1.93-1.08Z"/>
  <path class="uuid-f98cedf3-c5ba-4e11-9870-101e6ce04314" d="M28.68,27.39c-.19.06-.72-.07-.8-.23s-.09-.59,0-.81c.8-1.97,1.42-4.26,1.61-6.54.03-.35-.28-1.08-.55-1.22-1.29.03-2.53.81-3.16,1.94l-.36.64c-.3.55-1.91-1.49,2.47-3.62l.4.04c3.45-.25,2,4.69.81,8.61l2.39-.66c.14-.04.66.23.62.37s-.3.56-.44.6l-3,.87Z"/>
  <path class="uuid-f98cedf3-c5ba-4e11-9870-101e6ce04314" d="M20.4,33.58l-2.3.1-.86,2.25c-.05.14-.31.43-.43.52s-.58-.08-.55-.22l.13-.65.57-1.73-.5-.27c-.13-.07.03-.57.17-.61l.64-.15c.14-.03.19-.39.29-.61l1.12-2.44c.13-.28,1.06,0,1.2.28l1.27,2.53,1.06-.02c.15,0,.65.25.57.38l-.43.71-.56-.07c-.12-.02-.03.49.03.61l.82,1.7c.07.15-.04.74-.19.85-.18.13-.62-.11-.72-.31l-1.33-2.82ZM20.07,32.62l-.88-1.67-.75,1.73,1.63-.06Z"/>
  <path class="uuid-f98cedf3-c5ba-4e11-9870-101e6ce04314" d="M62.54,38.35c-.19.26-.83.56-1.13.58-1.05.05-1.81-1.38-2.4-2.74-1.31-3.01-.25-4.86.7-4.51l1.39.53c1.77,1.64,2.73,4.39,1.45,6.15ZM61.66,34.58c-.49-1-1.02-1.66-2.2-1.83-.48,1.45,1.01,4.82,1.94,5.18.44.17,1.22-1.37.26-3.35Z"/>
  <path class="uuid-f98cedf3-c5ba-4e11-9870-101e6ce04314" d="M24.32,34.95l1.21-2.27-1.19-.9-1.91-1.32c-.1-.07-.28-.37-.34-.47-.08-.15.46-.5.6-.41l1.36.85,1.89,1.26.56-.87,1.27-1.95c.07-.1.51-.08.63-.06s.21.49.14.61l-1.76,2.95,2.66,2.14c.1.08.21.63.09.67l-.58.19-2.65-2.06-1.45,2.55-.63-.21c-.12-.04.02-.53.1-.68Z"/>
  <path class="uuid-f98cedf3-c5ba-4e11-9870-101e6ce04314" d="M36.22,41.46l.53,1.87,2.08-.57c.15-.04.43,0,.56.06.63.27-.46,1.52-2.82,1.39-.42-.02-.91-.89-1.01-1.3l-1.11-4.36c-.06-.25-.02-1.04.19-1.12l2.82-1.02c.12-.04.56.22.57.35s-.16.49-.28.53l-1.91.65-.42.43.61,2.19,2.2-.87c.15-.06.65.06.79.13s-.12.64-.27.7l-2.52.96Z"/>
  <path class="uuid-f98cedf3-c5ba-4e11-9870-101e6ce04314" d="M65.42,34.11l-2.51-1.79-.98-.7c-.16-.11-.4-.48-.47-.67s.63-.38.82-.24l3.09,2.16.14-3.12c0-.19.14-.46.21-.57s.64.15.64.28l.05,2.09.35,6.53c.01.2-.14.6-.29.72s-.67-.3-.69-.5l-.37-4.18Z"/>
  <path class="uuid-f98cedf3-c5ba-4e11-9870-101e6ce04314" d="M45.8,41.34c-1.21,1.85-3.95,2.46-4.03,1.31-.01-.16.06-.62.19-.6l.7.13c.92.17,3-1.54,2.07-2.03-.45-.23-1.44-.53-1.91-.64l-.85-.2c-.41-.1-1.07-.61-1.24-1-.19-.45.01-1.31.37-1.74,1.56-1.87,4.19-1.14,3.62-.55-.12.13-.4.21-.73.22-2.08.04-2.69,1.8-2.19,1.93l1.82.49c.74.2,1.72.62,2.14,1.22.2.28.23,1.18.04,1.47Z"/>
  <path class="uuid-f98cedf3-c5ba-4e11-9870-101e6ce04314" d="M18.83,44.81c-.66.8-1.66.71-2.23,0-1.11-1.4-1.38-3.26-.74-4.93.26-.68.97-1.08,1.6-.76.88.45,1.7,1.11,2.02,2.03.44,1.25.19,2.63-.66,3.65ZM17.46,40.28c-.11-.04-.58-.02-.83-.01-.32,1.61-.08,3.55,1.24,4.18,1.41-1.47.81-3.73-.41-4.17Z"/>
  <path class="uuid-f98cedf3-c5ba-4e11-9870-101e6ce04314" d="M12.49,46.45l-.92-3.76-.39-1.78-1.92.4c-.19.04-.56-.39-.64-.57l1.38-.52,3.97-1.06c.18-.05.76.27.69.42s-.33.5-.48.55l-2.05.56,1.29,5.2.28.66c.07.16-.34.46-.52.45s-.63-.35-.68-.55Z"/>
  <path class="uuid-f98cedf3-c5ba-4e11-9870-101e6ce04314" d="M50.82,41.4c-.08.1-.52.23-.63.16-.14-.09-.47-.41-.54-.59l-1.87-5.04c-.09-.31-.12-.42,0,0l-.52.46-.75-.47c-.18-.11.14-.7.32-.81l.88-.53,2.66-1.44.61.85-.41.24-2.01.93.83,2.38,1.35,3.25c.04.1.13.55.08.61Z"/>
  <path class="uuid-f98cedf3-c5ba-4e11-9870-101e6ce04314" d="M48.48,24.15c.07.15.09.61.07.77s-.65.3-.74.17c-.23-.34-.58-1.13-.74-1.6l-2-6.08c-.07-.21.32-.76.52-.68s.42.4.52.7l1.93,5.73.45,1Z"/>
  <path class="uuid-f98cedf3-c5ba-4e11-9870-101e6ce04314" d="M58.56,56.06c.52.56-.35,1.85-1.56,2.31-.21.08-.8.02-.99-.07-.24-.11-.39-.84-.25-1.1.62-1.18,2.21-1.78,2.8-1.14Z"/>
  <path class="uuid-f98cedf3-c5ba-4e11-9870-101e6ce04314" d="M101.3,34.5l-.55-3.51-2.87.3-1.56,2.38c-.1.15-.58.22-.58.12l-.18-.69c-.03-.13-.36.06-.42.21-1.37,1.04-3.27,1.43-5.09.86-1.54-.48-2.64-2.63-2.27-2.67l.53-.05c.43.85,1.21,1.84,2.2,2.1,2.42.65,5.51-1,4.85-2.27-.33-.62-1.15-1.08-1.9-1.19l-2.47-.38c-1.01-.15-1.31-1.37-.83-2.24.86-1.58,2.58-1.85,4.49-1.44l.21-.73c.04-.14.26-.42.35-.52s.32.41.3.56l-.2,1.67-.13.62c-.02.12-.44-.06-.49-.17-.06-.13-.27-.65-.41-.7-1.8-.69-3.76.53-3.61,1.68.04.29.76.72,1.05.76l2.69.39c1.22.18,1.97,1.55,1.67,2.76l.23.11,1.46-2.34,1.39-2.92c.13-.28.61-.95.83-.77.43.37.84,1.18.94,1.7l.72,3.89.31,2.11c.01.09-.07.4-.1.49s-.55-.02-.57-.11ZM100.65,30.33l-.68-2.87-1.01,2-.56,1.1,2.24-.23ZM95.95,32.77l-.12.12.12.12.12-.12-.12-.12Z"/>
  <path class="uuid-f98cedf3-c5ba-4e11-9870-101e6ce04314" d="M120.06,52.41c.42.77.65,1.83.48,2.61-.29,1.28-1.48,1.86-2.68,1.51-.62-.18-1.22-.76-1.57-1.23l.1-.49c.03-.12.34-.27.46-.26s.2.26.3.53c.28.74,1.41,1.11,2.14.59.57-.4.7-1.36.51-2-.66-2.21-2.63-1.68-2.81-2.44l-.39-1.72-2.17,4.14c-.08.16-.38.5-.49.44-.15-.08-.42-.33-.49-.49l-.98-2-.98,1.8c-.09.16-.49.47-.64.38s-.32-.41-.39-.62l-1.58-4.85-.14-.55c-.02-.1.33-.28.4-.2l.4.48,1.56,4.43.8-1.51c.07-.14.3-.39.4-.47.14-.11.57.24.66.42l.98,1.97,1.99-3.72c.07-.14.59-.18.65-.07l.33.55c.57-.43,1.09-.79,1.73-1.02.37-.14,1.21.31,1.36.63.04.09-.01.61-.1.56l-.62-.37c-.36-.21-1.24.04-1.49.4-1.09,1.6,1.39.96,2.26,2.54Z"/>
  <path class="uuid-f98cedf3-c5ba-4e11-9870-101e6ce04314" d="M89.89,52.05c-.91.87-1.16-2.73-2.68-4.56l-1.13-1.36c-1.29,6.01-4.29,5.56-3.61,5l.46-.38c1.17-.96,2-2.47,2.25-3.98l.29-1.81c.05-.06.34-.24.42-.2.12.07.39.26.48.38l2.63,3.94c-.07.08.21-.23.26-.3l.46-3.77.62.35-.45,6.69Z"/>
  <path class="uuid-f98cedf3-c5ba-4e11-9870-101e6ce04314" d="M91.93,36.36l.34-.57c.07-.11.4-.07.52-.03s.12.51.03.65l-2.1,3.47-1.4,2.14c-.12.19-.79-.25-.87-.47l-1.12-2.98-1.53,2.32c-.08.11-.5.32-.59.23s-.29-.34-.33-.47l-1.55-4.23-.24-.87c.33-.05.53-.11.57-.04l.25.57,1.54,3.94,1.43-2.24c.08-.13.67-.29.75-.15l.59,1.09.91,2.45,2.13-3.66.68-1.15Z"/>
  <path class="uuid-f98cedf3-c5ba-4e11-9870-101e6ce04314" d="M120.76,64.03c-.18-.03-.62-.16-.72-.3l-.43-.63c-.07-.1-.59-.07-.62.04l-.14.54c-.03.1-.26.31-.34.39s-.25-.3-.25-.42v-1.83c0-.12.19-.51.26-.43l.37.4.58.63.6-.96c.12.05.61.27.57.25.17-.24.56-.6.83-.61l1.21-.05-.32-.57c-.04-.08-.06-.34-.05-.43.16-.87,2.8,2.15,1.13,4.99l-.7-.07.24-.58c.36-.87.42-2.16-.11-2.82l-1.35.3c-.12-.22.06.11.16.28.12,0,.61.17.52.26l-.39.39-.87.43,1.41.45-.06.61-1.54-.23Z"/>
  <path class="uuid-f98cedf3-c5ba-4e11-9870-101e6ce04314" d="M108.24,27.83c-1.29,2.41-2.14,4.69-2.7,7.24,0,.02-.4.25-.47.18-.11-.11-.31-.36-.39-.53l-.77-1.83-1.45-3.67-.69-1.44-.36-.69c-.08-.15.43-.36.68-.39l1.25,2.84,1.69,4.09,2.44-5.98.49-.21c.09-.04.2.19.28.39Z"/>
  <path class="uuid-f98cedf3-c5ba-4e11-9870-101e6ce04314" d="M109.21,32.03l-.29,2.34h2.97c.1-.01.4.38.33.44s-.29.25-.39.25l-2.31.04-1.36-.04.16-1.83.4-5.08c.06-.05.44-.29.54-.29h3.27c.14-.01.51.16.63.23s-.29.44-.47.44h-3.29s-.19,2.77-.19,2.77l1.62-.34.3.6-1.94.46Z"/>
  <path class="uuid-f98cedf3-c5ba-4e11-9870-101e6ce04314" d="M121.04,45.25c-1.66-.86-1.54-2.68-3.67-3.76l-.39,2.55-.37.17c-.1.05-.36-.38-.34-.5l.78-4.66c-.18-.22-.3-.77-.13-.83,1.33-.43,2.92.5,2.83,1.59-.02.26-.36.73-.58.88l-.77.53c1.58,1.16,1.55,2.41,3.1,3.51.08.06-.35.57-.46.5ZM118.94,40.07c.39-.17.04-1.06-1.19-1.33l-.24,1.95,1.43-.62Z"/>
  <path class="uuid-f98cedf3-c5ba-4e11-9870-101e6ce04314" d="M97.52,50.23c-.09-.23-.78-.6-.98-.5l-.24,1.93c-.01.11-.32.49-.39.41-.11-.12-.28-.42-.29-.64l-.14-4.38c0-.15.47-.31.59-.32.2.49.24.57.08.2l1.22-.51c.3-.13.96.51.98.83.04.67-.35,1.53-.6,1.96l1.09,2.2c.15.29.27,1.04.13,1.32-.09.15-.63-.39-.71-.6l-.74-1.9Z"/>
  <path class="uuid-f98cedf3-c5ba-4e11-9870-101e6ce04314" d="M102.64,53.24c-.74.36-.46-1.38-1.59-2.68l-.56.06-.13,1.76-.12.48c-.03.13-.64-.14-.64-.3l-.02-3.46v-1.77c0-.13.69-.05.53.02.31.19.53.28.56.26.52-.48,1.17-.33,1.45.24.31.63-.19,1.64-.51,2.12l1.19,2.42.09.47c.03.14-.15.32-.27.38Z"/>
  <path class="uuid-f98cedf3-c5ba-4e11-9870-101e6ce04314" d="M108.43,51.45c-.38,1.69-1.98,3.18-3.39,2.71-1.68-.56-1.96-2.95-.75-5.06.38-.66,1.54-1.35,2.19-1.12,1.35.48,2.27,1.99,1.94,3.47ZM106.09,53.4c1.63-.69,2.15-3.13,1.17-3.97l-1.02-.88c-1.48.42-2.07,1.86-1.95,3.57.05.75.73,1.73,1.79,1.28Z"/>
  <path class="uuid-f98cedf3-c5ba-4e11-9870-101e6ce04314" d="M94.36,51.25l-.19-1.25-2.03.16-.93,1.42c-.06.09-.42.12-.53.13s-.04-.37,0-.46l2.9-5.51.63-.1.57,3.58c.09.08.46.36.4.44s-.25.34-.23.44l.18,1.38c.02.13-.34.54-.44.45-.14-.12-.31-.46-.35-.66ZM94.07,49.36l-.35-2.19-1.18,2.21,1.53-.02Z"/>
  <path class="uuid-f98cedf3-c5ba-4e11-9870-101e6ce04314" d="M96.48,41.68l-.07.86c-.01.15-.71-.04-.7-.19l.22-2.89-2.01.53-.12,1.91c0,.15-.16.45-.26.56-.13.13-.52-.36-.5-.55l.19-1.98.26-3.02c0-.09.22-.36.29-.43s.35.33.34.42l-.07,2.27,1.02-.22c.22-.05.91-.24.94-.46l.21-1.46c.01-.1.44-.32.47-.22s.12.45.11.59l-.33,4.27Z"/>
  <path class="uuid-f98cedf3-c5ba-4e11-9870-101e6ce04314" d="M117.88,61.75l-.03,1.02c0,.28-.36.88-.64.85l-1.2-.13-.62-.02c-.12,0-.12-.31-.12-.56l-.37-.67-.7.45c-.1.06.01.65-.1.64l-.5-.03c-.11,0-.16-.45-.13-.57l.54-2.27h.54c.1,0,.1.37.06.47l-.17.53c-.05.16.27.26.71.31l.13-1.2c.01-.12.49-.27.51-.14l.11.62.12.7,1.01-.57c.21-.12.85.33.84.57Z"/>
  <path class="uuid-f98cedf3-c5ba-4e11-9870-101e6ce04314" d="M100.42,42.71l-3.28.04c-.15,0-.33-.6-.16-.63l.89-.12.35-4.07c.01-.13-.61-.13-.73-.16s-.37-.22-.46-.32.35-.46.49-.47l2.81-.09c.1,0,.33.23.38.31s-.24.39-.31.39h-1.46s-.34,4.43-.34,4.43h1.91s-.07.68-.07.68Z"/>
  <path class="uuid-f98cedf3-c5ba-4e11-9870-101e6ce04314" d="M113.64,41.59l-.23,2.04,1.84.21c.15.02.43.23.52.33s-.41.36-.56.35l-2.5-.26.19-2.37.48-3.08.04-.58c0-.09.23-.1.39-.1l1.61.06c.19,0,.32.6.22.67l-1.57-.03-.32,2,1.04.17c.14.02.36.33.39.48s-.37.28-.52.26l-1.03-.15Z"/>
  <path class="uuid-f98cedf3-c5ba-4e11-9870-101e6ce04314" d="M88.25,59.15c-.04-.21-.64.1-.73.3l-.24.58c-.06.15-.51-.3-.51-.46l-.06-1.98-.98.42-.09,2.69c0,.12-.42.27-.48.17s-.22-.41-.21-.53l.1-2.21-.88.08-.32-.58,2.41-.49c.1.08.37.3.33.26l.68-.25.22,1.3c.11.08.8-.15.82-.36l.06-.53c.01-.13.56,0,.57.12l.13,2.14.04.59c0,.1-.25.22-.34.17-.13-.07-.31-.29-.34-.44l-.18-1Z"/>
  <path class="uuid-f98cedf3-c5ba-4e11-9870-101e6ce04314" d="M111.2,43.71h-2.59c-.11.01-.45-.2-.39-.27s.26-.32.35-.33l1.21-.06.8-4.34-.89-.14-.51-.08c-.15-.02-.07-.48,0-.55l3.19-.08c.1,0,.41.08.5.1.13.04-.09.58-.23.59l-1.34.07-.67,3.74c-.02.13-.09.56.03.58l.58.11c.13.02.39.26.48.37s-.35.3-.49.3Z"/>
  <path class="uuid-f98cedf3-c5ba-4e11-9870-101e6ce04314" d="M102.08,60.37c-.31.38-.12,1.55-.08,2.02,0,.1-.45.16-.51.08s-.19-.3-.19-.41l-.07-1.24-.94-.76c-.23.82-.72,1.21-1.45,1.24-.23,0-.64-.47-.66-.71-.06-.54.36-1.38.59-1.51l.67-.16c.19-.27.96,0,1.15.24l.74.93,1.51-1.62.38.53-1.14,1.38Z"/>
  <path class="uuid-f98cedf3-c5ba-4e11-9870-101e6ce04314" d="M105.93,60.35c-.02-.12-.79-.23-.64-.17-.15.64-.26,1.2-.47,1.41s-.73.43-.95.41c-.27-.01-.75-.36-.9-.66-.27-.52.19-1.6.8-1.71.34-.06,1.15.27,1.32.41.09-.16.3-.53.44-.54l1.58-.16c.11-.01.43.08.53.12s-.07.44-.18.46l-.79.17.12,1.44v.49c0,.11-.54-.04-.56-.15l-.28-1.54Z"/>
  <path class="uuid-f98cedf3-c5ba-4e11-9870-101e6ce04314" d="M107.29,43.09l-.08.68c-.02.2-.72-.06-.7-.27l.5-5.5-1.39-.14-.21-.45c-.06-.12.31-.21.51-.2l2.64.03c.1,0,.44.44.35.48-.13.07-.37.18-.51.19l-.66.08c-.12.01-.11.34-.12.5l-.32,4.59Z"/>
  <path class="uuid-f98cedf3-c5ba-4e11-9870-101e6ce04314" d="M122.26,35.16c-.12-.39-.19-1.11-.13-1.62l.2-1.95.5-.86c.29-.51.82-1.01,1.31-1.04l.53.51.1.15.1.12.12.12.12.12.27.15c.31.41.18.55-.23.23l-.15-.26-.12-.12-.12-.12-.12-.12-.12-.11-.64-.21c-.2-.07-.59.42-.78.67l.63.61c-.04.49-.06.83-.06.75l.86.46.39.48-.22,1.51-.6.47-.51.27c-.09.05-.28-.4-.25-.49l.22-.66-.79-.32.42-2.49c-.03-.06-.61.28-.62.42l-.2,2.11c-.02.25.07.9.09,1.07l.16.08.59,1.12-1.17,1.1c-.08.08-.24.35-.34.54.04.57-.4.57-.52-.05l.79-.72.9-.73-.42-1.07c-.13-.08-.16-.09-.18-.13Z"/>
  <path class="uuid-f98cedf3-c5ba-4e11-9870-101e6ce04314" d="M102.9,42.64c-.03.47-.11.68-.24.74-.17.07-.56-.32-.54-.53l.19-1.91.21-2.94-1.45-.12c-.09,0-.28-.49-.19-.5l.71-.08,2.41-.09c.11,0,.31.39.34.49.14.46-1.12-.12-1.17.67l-.27,4.27Z"/>
  <path class="uuid-f98cedf3-c5ba-4e11-9870-101e6ce04314" d="M135.73,58.89l-.23-.83-.11-1.91.18-.14.18,1.6.18,1.16s.1.09.11.13l.11.83.1.1,1.02.15c.27.04.88.06,1.15.04l.75-.07.02-.74-.42-.19c-.1-.04.03-.43.13-.38l.47.2.61-.27.08-.56.84-.92c.47,1,.14,2.5.62,2.13l.51-.39c.07-.06.39-.11.47-.06l.82.46-.48.32.1.78.14,1.04-.45-.51-.12-1.38s-.42-.08-.56-.11c-.18.15-.36.32-.44.28l-.67-.38-1.17.76c-.12.08-.59.3-.73.3h-2.21s-.6-.31-.6-.31c-.07-.05-.12-.09-.13-.13l-.11-.84-.14-.12Z"/>
  <path class="uuid-f98cedf3-c5ba-4e11-9870-101e6ce04314" d="M83.82,57.17c-1.6,1.32-2.12,3.97-.68,5.62l-.15.4c-.14.37-1.1-.3-1.35-1.83-.48-3.04,2.06-5.67,2.73-4.88.12.15-.39.56-.55.69Z"/>
  <path class="uuid-f98cedf3-c5ba-4e11-9870-101e6ce04314" d="M120.43,58.53l.15.69.09.4c.02.1-.48.13-.58.1-.3-.1-.45-1.03-.25-1.3.42-.59,1.03-1.05,1.67-1.53-.02.1-.25-.69-.08-.72.36-.07,1.15.13,1.43.34l-.1,1.2c0,.1-.34.39-.42.32l-.47-.45-1.45.97Z"/>
  <path class="uuid-f98cedf3-c5ba-4e11-9870-101e6ce04314" d="M108.7,61.46c-.37-.24.17.11.27.17l.93-.04-.11.52c-.27.32-1.43.31-1.72-.13-.27-.42-.22-1.63.02-2.12.14-.3,1.19-.4,1.28-.28l.48.14.26.22-1.73.43,1.18.37-.87.72Z"/>
  <path class="uuid-f98cedf3-c5ba-4e11-9870-101e6ce04314" d="M143.15,62.06l-.06-.74.29.54c.04.06.07.09.08.12l.19.71.54-.47-.08,1.31-.02.74.48,1.59.35,1.51c.08.35.15,1.16,0,1.51l-.56,1.31c-.01-.31.02-.7.1-1.11l.02-2.49c0-.29-.21-1.02-.25-1.16l-.83,1.2c.18-.61.53-1.32.48-1.71l-.13-1.04-.06-.58-.47-1.12c-.05-.07-.07-.08-.07-.12Z"/>
  <path class="uuid-f98cedf3-c5ba-4e11-9870-101e6ce04314" d="M125.59,67.42l-.02-2.7c-.06-.1-.19-.33-.19-.37l-.11-2-.21-.81-.26-.99-.22-.93-.25-1.19c-.02-.12-.15-.51-.15-.61l.03-2.28.34,1.29.16,1.99.21.81.27.98.2.72.24.91c.03.11.17.57.17.67l.04,4.49-.25.05Z"/>
  <path class="uuid-f98cedf3-c5ba-4e11-9870-101e6ce04314" d="M146.94,66.42c-.33,1.08-.37,2.93-.14,4.06l.32,1.56-.05.74.13.88-.45-.09c-.03-.24-.08-.61-.18-.56l-.65.27c-.16.07-.57-.32-.73-.62l.69.04.91-.06-.22-1.63-.26-1.98c-.05-.36-.08-1.03,0-1.37l.36-1.75c.02-.1.5-.04.47.05l-.11.41.34.14.34.59-.55-.41-.23-.27Z"/>
  <path class="uuid-f98cedf3-c5ba-4e11-9870-101e6ce04314" d="M134.82,43.06l-.53-.61-.44,1.46-.17-.89-.59.4-.36-.18.39-.66s.24.26.25.25l.28-.3.51-.54c.26-.04.66-.11.47-.08l.36,1.02.11.04s.45.12.57.12l1.55-.06.58-.14.94-.23.99-.24,1.08-.24,4.51-.02c.24,0,.74.41.89.56l.11.11.12.12.11.12.36.12.26.16c.31.41.18.55-.24.24l-.16-.25-.35-.12-.12-.13-.12-.12-.15-.08-1.18-.43-3.09-.04-1.36.27-.71.14-.92.2-.81.21-1.65.15c-.4.04-1.06-.03-1.4-.12-.04-.01-.05-.05-.11-.2Z"/>
  <path class="uuid-f98cedf3-c5ba-4e11-9870-101e6ce04314" d="M130.59,46.83l.82.7-.17-.82-.08-.42c-.02-.08,0-.07.15-.57l.35.14.15,1.25.11.88c.14-.44.32-.9.33-1.09l.06-1.36-.06-.58c.44.69.5,1.44.32,2.16l-.19.73-.36,1.01-.46-.64-.55.45-.18-.82-.23-1.03Z"/>
  <path class="uuid-f98cedf3-c5ba-4e11-9870-101e6ce04314" d="M91.8,61.22l-.68-.17c-.13-.03-.11-.53.03-.57l.68-.21-.81-.88c-.1-.11-.28-.46-.31-.6-.04-.2.3-.62.49-.67l.69-.18c.14-.04.31.27.45.55l-.93.26.82.89c.12.14.4.7.27.84l-.69.76Z"/>
  <path class="uuid-f98cedf3-c5ba-4e11-9870-101e6ce04314" d="M152.07,62.04l-.28-.28s.06-.15.16-.4l.41.45.03.05.34.33c.11.11.28.44.29.59l.22,2.98c.02.25.17.91-.06.92l-.9.04c-.2-.18-.38-.34-.26-.23l.71-.86.11-.78-.54-1.43c-.07-.18-.21-.56-.2-.69l.06-.59-.09-.1Z"/>
  <path class="uuid-f98cedf3-c5ba-4e11-9870-101e6ce04314" d="M96.8,59.15c-.84.34-1.13.68-1.1,1.08.02.31.7.68,1.04.71.16.01.49.14.42.21s-.34.36-.46.39c-.58.18-1.76-.46-1.66-1.32.09-.77.42-1.57,1.64-1.54.01.05.19.65.13.46Z"/>
  <path class="uuid-f98cedf3-c5ba-4e11-9870-101e6ce04314" d="M112.25,61.1c.18.29.44,1.05.2,1.1l-1.15.24.12-.82-.24-.46c-.09-.18.13-.78.34-.78l1.51.04-.08.58-.69.09Z"/>
  <path class="uuid-f98cedf3-c5ba-4e11-9870-101e6ce04314" d="M133.8,38.08l-.32-.86.88-.56-.48-.9.76-.25-.04.44.34.53-.93,1.23.03.18c.08.04.1.05.1.08l.09.67.1.11.2.09.13.06.21.74-.46-.48-.11-.14-.1-.14-.09-.09-.3.33-.25.27c.07.14.18.36.12.43l-.35.42.12.64-.64.19-.32.22-.52.05c-.07,0-.03-.06-.02-.07l.69-.44-.63-.43,1.11.08-.6-.69.35-.85c.08-.03.09-.07.02-.06l-.92-.44c-.05-.02-.1-.05-.1-.09l.02-.62-.19-.18-.49-.39.18-.25.47.48.13.26h.34s-.28.5-.28.5l.13.11.66.2,1.03.32.11-.6c-.13-.05-.15-.06-.17-.1Z"/>
  <path class="uuid-f98cedf3-c5ba-4e11-9870-101e6ce04314" d="M129.75,58.6l.41-.38-.25-1.15c-.05-.25.56-.57.34.03l.49,1.47.27,2.04.05,1.31-.1.5c.18-.05-.15.04-.25.07s-.08-.32-.08-.46v-1.46s-.03-1.96-.03-1.96l-.38.25.09.64-.66-.65-.14-.14-.15-.15-.08-.11-.57-.21-.03,1.63-.05,1.34-.12.66c-.04.24-.24.6-.47.93l.08-1.11.19-1.84.15-1.43-.5-.52,1.46.31s.06.07.15.17l.12.15.08.07ZM130.3,58.31l-.11.41.11-.41Z"/>
  <path class="uuid-f98cedf3-c5ba-4e11-9870-101e6ce04314" d="M122.04,51.83l-.17-2.18v-1.63s.15-1.56.15-1.56l.15-.64.07-2.38.19-.12.04,3.26-.24.71v4.01c0,.11.18.45.23.54s-.42.08-.43-.02Z"/>
  <path class="uuid-f98cedf3-c5ba-4e11-9870-101e6ce04314" d="M140.26,61.23l.13-.13.18.18.12.12.12.12.37.45c.03.11.2.55.2.66l-.03,3.78c0,.23-.2.82-.27,1.03l-.3.92c-.07.2-.23.47-.49.85-.02-.17.03-.7.1-.93l.22-.78.25-.95.23-1.08c.11-.54.12-1.63,0-2.15l-.21-.86-.2-.82-.1-.12-.12-.12-.18-.18Z"/>
  <path class="uuid-f98cedf3-c5ba-4e11-9870-101e6ce04314" d="M146.97,65.3l-.7.07.06-1.76.05-1.11.14-2.06.14-.58.22-.78c.05-.17.31-.51.49-.71l-.15.94-.21.76-.29,1.08-.06,2.3-.03,1.22.34.64Z"/>
  <path class="uuid-f98cedf3-c5ba-4e11-9870-101e6ce04314" d="M151.72,58.39c-.37.05-.52-.05-.24-.24v-9.21s.24-.13.24-.13v9.58Z"/>
  <path class="uuid-f98cedf3-c5ba-4e11-9870-101e6ce04314" d="M131.3,39.55c-.08.11-.58.42-.71.37l-1.23-.45c-.09.05-.03-.4.08-.59.64-.35,1.14-.4,1.6-.22l.54.21c.14.05-.14.47-.29.67Z"/>
  <path class="uuid-f98cedf3-c5ba-4e11-9870-101e6ce04314" d="M131.33,70.4c.05.19-.5.16-.53-.02l.3-.59-.03-3.79c0-.11-.17-.43-.21-.53s.36-.21.38-.11l.09.51.2.96v2.74s-.2.84-.2.84Z"/>
  <path class="uuid-f98cedf3-c5ba-4e11-9870-101e6ce04314" d="M133.72,68.25l.1-1.14.18-.78.13-.56.18-1.53.1-1.08c.06-.67.31-1.25.77-1.92.04-.41.15-.5.25,0l-.48.73-.16,1.08-.21,1.75-.12.8-.16,1.04-.16,1.07-.44.54Z"/>
  <path class="uuid-f98cedf3-c5ba-4e11-9870-101e6ce04314" d="M122.34,71.82c.21-.34.96-.47,1.6-.5.22-.16.77-.62.87-.9l.26-.75c-.3-.47-.26-1.43.14-1.7.43-.14.42-.14.13-.04l-.04,2.41-1.22,1.4c-.13.15-.72.15-.8.33l-.32.72-.44,1-.42-.91c-.07-.15.01-.58.05-.78l.18-.29ZM122.64,72.08l-.21.12.16.7.05-.82Z"/>
  <path class="uuid-f98cedf3-c5ba-4e11-9870-101e6ce04314" d="M131.39,34.19h-3.25s.38-.6.38-.6l.64.38c.44,0,1.3.04,1.62-.1l1.93-.85-.75,1.87s-.13-.22-.26-.46c.35-.46-.03-.68-.31-.24Z"/>
  <path class="uuid-f98cedf3-c5ba-4e11-9870-101e6ce04314" d="M125.01,51.42c.03.09-.03.55-.04.49l-.74-1.21c-.34-.06-.78-.21-.85-.37l-.21-.45c-.04-.08.13-.32.19-.37.34-.07.84-.16.71-.14.24.57.23.51.37.54l.57,1.51Z"/>
  <path class="uuid-f98cedf3-c5ba-4e11-9870-101e6ce04314" d="M90.11,60.14l-.66.03v-2.16c-.02-.17.61-.25.61-.08l.05,2.21Z"/>
  <path class="uuid-f98cedf3-c5ba-4e11-9870-101e6ce04314" d="M144.18,59.56l.03-.7.06-1.43-.51.87c-.05.39-.14.36-.16,0l.27-1.31h.63s.17,1.26.17,1.26l.19,1.35-.67-.03Z"/>
  <path class="uuid-f98cedf3-c5ba-4e11-9870-101e6ce04314" d="M121.3,41.16l-.21-.26-.06-1.45-.3-.71c0-.14.58-.15.57,0v1.23s.06.68.06.68l.66.13-.48.27.09.1.13.13.13.13.16.57.14.1-.06,1.06-.19-.87c-.05-.06-.08-.08-.09-.12l-.21-.56-.06-.1-.15-.16-.13-.14Z"/>
  <path class="uuid-f98cedf3-c5ba-4e11-9870-101e6ce04314" d="M126.12,56.37l-.49-.28c.36-.03.61-.05.61-.05l.21.19.78.25.85.27-.51.36-1.06-.06-.26-.61-.13-.09Z"/>
  <path class="uuid-f98cedf3-c5ba-4e11-9870-101e6ce04314" d="M127.96,65.84c.07.19-.51.17-.51,0l.22-.78.13-2.15.34.74-.1.59-.08,1.61Z"/>
  <path class="uuid-f98cedf3-c5ba-4e11-9870-101e6ce04314" d="M133.56,74.34c-.11-.01-.49-.03-.46-.14l.18-.71.22-1.15.05-.87.56-.51-.44-1.23.54-.35-.06,1.86-.14.6-.12.87-.49,1.08.45.57s.03.05.03.07l.12.43-.52.3.27-.57-.19-.26Z"/>
  <path class="uuid-f98cedf3-c5ba-4e11-9870-101e6ce04314" d="M151.86,66.75l-.95.36-.49.27c-.1.05-.28-.3-.25-.41l.21-.96.64.66s.44.05.85.07Z"/>
  <polygon class="uuid-f98cedf3-c5ba-4e11-9870-101e6ce04314" points="124.25 54.57 123.76 53.98 124.39 53.9 124.38 54.46 124.5 54.57 124.62 54.69 124.75 54.82 124.87 55.18 124.98 55.29 125.1 55.41 125.22 55.53 125.34 55.65 125.51 55.83 125.4 55.96 125.22 55.78 125.1 55.66 124.98 55.54 124.86 55.42 124.73 55.29 124.6 54.94 124.5 54.82 124.37 54.7 124.25 54.57"/>
  <path class="uuid-f98cedf3-c5ba-4e11-9870-101e6ce04314" d="M144.42,70.85c-.34.48-.88.28-.4-.34l.4.34Z"/>
  <circle class="uuid-f98cedf3-c5ba-4e11-9870-101e6ce04314" cx="135.65" cy="60.33" r=".27"/>
  <path class="uuid-f98cedf3-c5ba-4e11-9870-101e6ce04314" d="M152.58,67.53l-.38-.44c.2-.03.52-.06.49.04l-.11.4Z"/>
  <polygon class="uuid-f98cedf3-c5ba-4e11-9870-101e6ce04314" points="125.22 52.18 125.46 52.18 125.58 52.3 125.46 52.42 125.22 52.42 125.1 52.3 125.22 52.18"/>
  <polygon class="uuid-f98cedf3-c5ba-4e11-9870-101e6ce04314" points="140.18 69.66 139.52 70.45 139.94 69.45 140.18 69.66"/>
  <polygon class="uuid-f98cedf3-c5ba-4e11-9870-101e6ce04314" points="148.73 67.76 148.97 67.76 149.08 67.88 148.97 68 148.73 68 148.61 67.88 148.73 67.76"/>
  <polygon class="uuid-f98cedf3-c5ba-4e11-9870-101e6ce04314" points="139.79 60.51 139.91 60.38 140.15 60.62 140.03 60.76 139.79 60.51"/>
  <rect class="uuid-f98cedf3-c5ba-4e11-9870-101e6ce04314" x="132.09" y="43.35" width=".17" height=".17" transform="translate(8.03 106.23) rotate(-45.02)"/>
  <rect class="uuid-f98cedf3-c5ba-4e11-9870-101e6ce04314" x="131.61" y="49.1" width=".17" height=".17" transform="translate(3.82 107.58) rotate(-45.02)"/>
  <path class="uuid-f98cedf3-c5ba-4e11-9870-101e6ce04314" d="M211.93,35.41c-.06-.43-.13-.71-.37-1.2-.75,1.87,0,3.58-1.12,3.55l-.51-1.7c-.16.32-.5.91-.91,1.25-.44.38-1.31-.13-1.64-.54-.19.27-.85,1.09-1.2,1.03-.5-.09-1.16-.76-1.37-1.02-.14.09-.84.24-.86.09l-.29-1.78-.25-1.51-.19,1.59-.09,1.37-.65-.05-.37-2.92c-.02-.15-.45-.59-.47-.55l.11,3.9c0,.11-.49.32-.51.21l-.09-.53-.19-1.1c-.46.58-.94,1.13-1.51,1.15-1.74.06-.83-5.39.23-4.32l1.13,1.14.62-1.53c.06-.14.66-.27.75-.15l.4.53c.07.07.39.38.22.21l.84-.42c.28-.14.6.46.86,1.2.36-.48.61-.82.84-.94s.79.32.89.6c.3.8.07,1.91-1,2.44.13.49.53,1.38.75,1.66l1.21-.92c-.12-.99-.12-2.04.34-2.99.12-.25.83-.38,1.06-.26l.92.5.81-.04.23,1.19c.15-.49.82-1.19,1.34-1.1.35.05.7.88.81,1.29.18-.48.57-1.16,1.13-1.57.24-.18,1.02.46.96.74-.21.92-.6,1.46-1.36,1.98l.26,1.13.74-.79.29-.32c.09-.1.4.36.38.48-.06.4-.72,1.16-1.1,1.26-.17.05-.73-.09-.91-.14l-.36.24c-.09.06-.5-.03-.51-.13l-.31-2.23ZM199.77,35.97c.25-.55.5-1.16.53-1.65.02-.35-.42-.86-.89-1.25l-.38,2.37.73.53ZM209.31,34.46c-.14-.42-.8-.8-1.22-.93-.35,1.1-.34,1.76-.09,2.62l.21.49c.26.62,1.5-.97,1.1-2.18Z"/>
  <path class="uuid-f98cedf3-c5ba-4e11-9870-101e6ce04314" d="M181.86,34.74c-.34.41-.92,1-1.32.96-.62-.06-.94-.67-1.14-1.35.06-.07-.24.29-.23.29l.09.76c.01.09-.25.34-.33.3-.13-.06-.38-.41-.39-.59l-.23-4.94c-.01-.29-.38-.87-.61-1.06-.58.94-.86,1.77-.97,2.76l-.25,2.29c-.01.14-.65.3-.66.17l-.15-1.26-.72-7.27.16-.49c.03-.1.4,0,.41.11l.06.43.64,4.4c.36-.71.7-1.37,1.46-1.84.32-.2,1.19.56,1.23.95l.28,3.4.25-.02.77-2.5c.12-.38,1.11-.56,1.4-.4l.5-.31c.09-.06.39.3.39.41v2.8s.31,2.71.31,2.71l.11.52c.02.11-.28.34-.37.27-.14-.1-.37-.37-.42-.53l-.26-.98ZM181.38,33.74l.41-2.87c.03-.21-.75-.53-.88-.36-.1.13-.32.43-.36.6l-.37,1.64c-.18.77-.01,1.47.28,2.34.41-.35.86-.89.92-1.34Z"/>
  <path class="uuid-f98cedf3-c5ba-4e11-9870-101e6ce04314" d="M174.06,30.13l-.84,4.75c-.02.12-.43.41-.52.36s-.35-.2-.39-.3l-.53-1.13-1.53-4.19-.18-.49c-.04-.1-.38.17-.43.27l-1.81,3.61c-.06.13-.42.52-.48.41l-.35-.58-1.64-8.12-.22-.44c-.06-.12.17-.26.3-.3s.48.25.51.38l.98,4.15.65,3.15,2.17-3.71c.13-.22.78.22.87.48l1.53,4.31c.12.34.37.72.63,1.04l1.19-9.01.19-.44c.06-.14.55.2.53.4l-.63,5.38Z"/>
  <path class="uuid-f98cedf3-c5ba-4e11-9870-101e6ce04314" d="M202.43,57.36c-.01-.09-.6-.44-.58-.41-.16.61-.34,1.39-.35,1.88v2.16s-.69-.07-.69-.07l-.44-2.64c-.03-.21-.53-.77-.6-.77-.16.38-.33.79-.35.94l-.23,2.32c-.01.15-.17.54-.22.65-.08.15-.61-.1-.62-.27l-.23-2.62-.22-1.54c-.02-.11.14-.47.19-.58s.41.18.43.3l.22,1.04c.35-.48.63-.86.87-.96.29-.11.86.26,1.19.62l.42-.63c.14-.21.35-.45.51-.56.2-.14.97.1,1.05.33l.6,1.65.97-1.53c.07-.1.62-.06.72.01.27.22.61,1,.49,1.41-.14.46-.84,1.06-1.23,1.34l.02.53c0,.14.2.51.34.5h.61s.62-.02.62-.02c.15,0-.05.71-.2.71h-1.47c-.09-.01-.46-.4-.45-.38l-.24.65c-.04.11-.61-.02-.63-.14l-.32-2.37-.2-1.54Z"/>
  <path class="uuid-f98cedf3-c5ba-4e11-9870-101e6ce04314" d="M190.42,31.79l.26,2.71.2,2.08c.01.12-.29.34-.59.49l-.23-1.35-.24-2.48-.1-1.03-.47-.52.06,1.12.04,1.62v1.23s.01.74.01.74c0,.19-.48.08-.75,0l-.12-5.09-.31-4.82c-.01-.17.43-.55.6-.44l.49,5.26c1.03-.88.05-3.84,1.62-5.13.21-.17.97-.12,1.13.09.25.32.48,1.07.53,1.37l-.25.52c-.06.13-.56-.06-.53-.19.08-.37-.08-1.14-.38-1.24-.16.13-.59.68-.61.84l-.39,3.07.53.46.66.08c.12.01-.04.48-.15.49l-1,.12Z"/>
  <path class="uuid-f98cedf3-c5ba-4e11-9870-101e6ce04314" d="M195.06,62.2c0,.23-.13.49-.23.61s-.48-.45-.49-.66l-.07-5.23-2.86.42.14,3.49.02.59c0,.17-.53.06-.69-.04l-.17-6.32v-2.8c0-.2.65-.03.65.21l.08,4.17,2.26-.31c.13-.02.43-.09.5-.15.11-.1.22-.46.21-.61l-.09-2.82h.7s0,2.32,0,2.32l.03,7.14Z"/>
  <path class="uuid-f98cedf3-c5ba-4e11-9870-101e6ce04314" d="M182.84,59.63l-.02,1.38c0,.1-.25.46-.32.38l-.41-.49c-.08-.1-.4-.48-.19-.23l-1.04.36c-.26.09-.63-.58-.68-.87l-.2-1.12c-.34.6-.68,1.14-1.24,1.71-.23.24-1.14-.2-1.21-.64-.22-1.28-.09-3.33.13-4.4.11-.54,1.29-.52,2.05.47.42-.38.7-.44.74-.05l.51,4.11c1.24-1.43.98-4.28,1.37-4.21l.49.09.02,2.03v1.48ZM178.23,56.2l-.07.55c-.14,1.05-.1,2.19.1,3.35,2.31-1.99.08-4.73-.03-3.9Z"/>
  <path class="uuid-f98cedf3-c5ba-4e11-9870-101e6ce04314" d="M198.96,42.09l.23-.25-.23.25Z"/>
  <path class="uuid-f98cedf3-c5ba-4e11-9870-101e6ce04314" d="M192.55,48.29l-.28-.21.28.21Z"/>
  <path class="uuid-f98cedf3-c5ba-4e11-9870-101e6ce04314" d="M199.19,41.84l.24-.24-.24.24Z"/>
  <path class="uuid-f98cedf3-c5ba-4e11-9870-101e6ce04314" d="M192.68,47.45l-.13-.33.13.33Z"/>
  <path class="uuid-f98cedf3-c5ba-4e11-9870-101e6ce04314" d="M192.55,48.29l.34.29.26-.41c.07-.1-.21-.35-.29-.4l-.18-.32.6-.03.58-.55.61.84.07.17.4.06.12.1.52.39-.69-.15-.11-.18-.42-.07s-.04-.03-.08-.11c-.09-.05-.48-.27-.43-.24l-.3.75-.41.68c-.07.12-.51-.12-.54-.26l-.04-.56Z"/>
  <path class="uuid-f98cedf3-c5ba-4e11-9870-101e6ce04314" d="M198.96,42.09l.23,1.08.04,6.84h-1.42s-.09-2.73-.09-2.73l-.16-.84-.18-.98.24-.63-.04-2.76s.17.24.17.31l.05,1.54c.06.11.2.35.2.39l.07,1.82.07,1.33.14,2.03c-.12.33.51.29.44-.02l-.03-5.21v-1.57c-.01-.09-.33-.45-.24-.47l.48-.12Z"/>
  <path class="uuid-f98cedf3-c5ba-4e11-9870-101e6ce04314" d="M192.55,47.12l-.26-.24.26.24Z"/>
  <path class="uuid-f98cedf3-c5ba-4e11-9870-101e6ce04314" d="M192.28,48.08c-.17.04-.43.02-.47-.1l-.02-.36.35.02c.12,0,.13.33.13.44Z"/>
  <path class="uuid-f98cedf3-c5ba-4e11-9870-101e6ce04314" d="M197.58,42.08l-.25-.23.25.23Z"/>
  <path class="uuid-f98cedf3-c5ba-4e11-9870-101e6ce04314" d="M197.33,41.84l-.25-.23.25.23Z"/>
  <path class="uuid-f98cedf3-c5ba-4e11-9870-101e6ce04314" d="M191.05,43.05l.05-.37c0-.07.07-.1.15-.1v.35c-.02.08-.08.11-.2.12Z"/>
  <path class="uuid-f98cedf3-c5ba-4e11-9870-101e6ce04314" d="M199.43,41.6l.24-.24-.24.24Z"/>
  <path class="uuid-f98cedf3-c5ba-4e11-9870-101e6ce04314" d="M192.29,46.87l-.29-.2.29.2Z"/>
  <path class="uuid-f98cedf3-c5ba-4e11-9870-101e6ce04314" d="M191.05,43.05c0,.13-.04.2-.11.21l-.38.03c.05-.08.08-.16.15-.17l.35-.07Z"/>
  <path class="uuid-f98cedf3-c5ba-4e11-9870-101e6ce04314" d="M191.35,39.89c0,.59-.15,1.37-.46,1.68l-.82.82c-.19.19-.67.21-1.04-.04l.9-.3c.61-.2,1.16-1.38.83-2.09l.59-.07Z"/>
  <path class="uuid-f98cedf3-c5ba-4e11-9870-101e6ce04314" d="M191.87,40.11c-.19.09-.27.13-.22.11l-.3-.33-.72-.5-.54-.19-.47-.2-1.25.14.14,3.92.21,5.71.65.03-.2-.56-.03-4.33c.18.09.53.3.62.42l.55.75.34.09-.11.55c-.04.08-.18-.04-.31-.15l-.68-.77.04,2.08.05,2.39h-1.14s-.28-.81-.28-.81l-.07-6.28c-.05-.16-.18-.67-.18-.83l.04-1.95-.88-.1.05,1.58.13,5.18.19,2.91h-1.3s-.21-1.59-.21-1.59l-.69.79.35-1.02.33-1.21.18-1.51.26,2.77.15,1.52c.03.06.5.08.49-.04l-.03-.64-.09-2.07-.17-.71-.05-5.52c0-.34,0-.71.15-.72l.64-.04c.24-.02.74-.23.94-.35l-1.17-.3v-.43s1.17.29,1.17.29c.11.03.28.36.33.46,1.19.07,2.11.11,2.95,1.05l.13.37Z"/>
  <path class="uuid-f98cedf3-c5ba-4e11-9870-101e6ce04314" d="M199.67,41.36l.25-.23-.25.23Z"/>
  <path class="uuid-f98cedf3-c5ba-4e11-9870-101e6ce04314" d="M191.57,47.16l-.49-.03v-.7c.25.06.43.47.49.73Z"/>
  <path class="uuid-f98cedf3-c5ba-4e11-9870-101e6ce04314" d="M190.56,43.29l.34,1.23c.14.46.72,1.34,1,1.74l.12.42-.63-.56-.27-.21-.11-.52-.36-.19c0-.13-.03-.52-.09-.67l-.27-.65-.18-.44c-.05-.13.39-.15.47-.14Z"/>
  <path class="uuid-f98cedf3-c5ba-4e11-9870-101e6ce04314" d="M196.82,39.97l-.36-.04c-.13-.01-.13-.36-.12-.43.12-.04.45-.03.46.1l.02.37Z"/>
  <path class="uuid-f98cedf3-c5ba-4e11-9870-101e6ce04314" d="M197.31,40.15c-.08.15-.3.05-.37.02-.08-.04-.11-.1-.13-.2l.37.03c.08,0,.1.08.13.15Z"/>
  <path class="uuid-f98cedf3-c5ba-4e11-9870-101e6ce04314" d="M197.08,41.61c-.13.05-.49.04-.49-.09v-.37s.35.03.35.03c.12,0,.14.34.14.43Z"/>
  <path class="uuid-f98cedf3-c5ba-4e11-9870-101e6ce04314" d="M195.89,39.24l-.69-.14.04.63.99.87.1.34h-.35s-.22.18-.22.18l1.03,2.45c.09.22-.72.59-.78.37l-1.35-3.08s-.05-.04-.18-.12l-.36.07-.61,2.38c-.11.43.08,1.14.33,1.65l.12.74.15.18-.12.14-.18-.2-.57-1.07-.06-1.43c-.04-1,.8-3.15,1.09-2.97l.44.28.1.09c.06-.06.18-.23.14-.31l-.23-.45c-.07-.14-.31-.41-.43-.51-.25-.23-1.8,1.18-1.79,2.74l.02,2.29.31.62.05,1.01c-.38-.53-.58-1.07-.73-1.69l-.08-.36-.09-1.89-.32.49c-.06.08-.3.03-.4.03l.29-.75c.09-.25.23-.85.25-1.11l.08-.61.23.26c.09.11.29.37.23.29l1.22-1.33c.1-.11.39-.4.53-.36l.74.21s.2-.27.36-.48l.5-.07.21.6ZM195.77,40.71l-.1.27.1-.27Z"/>
  <path class="uuid-f98cedf3-c5ba-4e11-9870-101e6ce04314" d="M196.58,41.15l-.39-.03s.04-.06.13-.17l.26.2Z"/>
  <path class="uuid-f98cedf3-c5ba-4e11-9870-101e6ce04314" d="M200.64,40.65l.04-.35c.15-.11.43-.33.37-.43l-.27-.43c-.09-.14-.44.14-.56.25l-.5.3,1.04-1.18.64.9c.07.1.04.51.02.66l2.54.08c.12,0,.3-.36.36-.49l.9-.03c.15,0,.63.09.79.14l1.48.45.39.46.08.14.35.13.12.13.12.12.12.12.12.12.18.18-.12.13-.18-.18-.12-.12-.12-.12-.12-.12-.13-.1-.35-.13-.12-.13-.45-.19-1.2-.43-1.39-.27.21,1.85.27,2.39.19,1.73c.03.29-.04.84-.13,1.21l-.4-2.11-.27.83-2.49-.14.2,2.7,1.66.03h.91s-.03,1.74-.03,1.74h-1.78s-1.32-.08-1.32-.08l-.96-.15-.13-2.47.33-.44.25,2.65,3.3.14-.04-1.01-2.28-.08c-.14,0-.31-.57-.31-.71l-.11-2.11.06-.52h2.49s.04-1.09.04-1.09l-2.74-.13.04-1.74.51.39-.07,1.11,2.61.05-.11-1.3-.16-2.08-1.41-.14-2.37-.13Z"/>
  <path class="uuid-f98cedf3-c5ba-4e11-9870-101e6ce04314" d="M199.49,40.23l.23-.24-.23.24Z"/>
  <path class="uuid-f98cedf3-c5ba-4e11-9870-101e6ce04314" d="M200.64,40.65v3.16s-.23-.13-.23-.13v-2.5s-.5-.04-.5-.04c.13-.2.48-.51.73-.49Z"/>
  <path class="uuid-f98cedf3-c5ba-4e11-9870-101e6ce04314" d="M199.23,40.44c-.06.09-.09.16-.16.2-.08.04-.29.15-.33.03.01-.1.01-.18.09-.19l.39-.04Z"/>
  <path class="uuid-f98cedf3-c5ba-4e11-9870-101e6ce04314" d="M196.33,39.5l-.36-.07c-.07-.02-.06-.1-.09-.18.05-.05.25-.05.31.01l.13.25Z"/>
  <path class="uuid-f98cedf3-c5ba-4e11-9870-101e6ce04314" d="M199.23,40.44l.25-.21-.25.21Z"/>
  <polygon class="uuid-f98cedf3-c5ba-4e11-9870-101e6ce04314" points="191.1 45.91 191.07 46.43 190.58 46.32 190.52 45.75 191.1 45.91"/>
  <path class="uuid-f98cedf3-c5ba-4e11-9870-101e6ce04314" d="M190.63,39.4l.13.57h-1.09s-.15.48-.15.48c-.03.1-.42-.03-.38-.13l.16-.44c.04-.1.21-.4.32-.4l1.02-.08Z"/>
  <path class="uuid-f98cedf3-c5ba-4e11-9870-101e6ce04314" d="M198.75,40.67l-.2.48c-.11.15-.62-.07-.77-.17l-.47-.83.96.69.48-.17Z"/>
  <path class="uuid-f98cedf3-c5ba-4e11-9870-101e6ce04314" d="M191.79,47.62l-.23-.46c.08,0,.16.03.17.1l.06.36Z"/>
  <path class="uuid-f98cedf3-c5ba-4e11-9870-101e6ce04314" d="M194.83,37.27c-.93-1.13-.83-2.94-.5-2.8l.39.18c.09.58.34,1.59.66,2.19.17.32,1.26.32,1.48.05.6-.75.65-1.74.41-2.64l-.35-1.26-1.36-2.31c-.54-.92-.95-1.94-.44-2.96.4-.8,1.46-1.06,2.17-.4,1.43,1.32.84,2.38.57,1.97l-.37-.57c-.3-.46-.73-1.25-1.41-1.01-.52.19-.65,1.37-.4,1.76l.88,1.37c1.69,2.65,2.19,5.95.42,6.79-.62.3-1.62.29-2.17-.38Z"/>
  <path class="uuid-f98cedf3-c5ba-4e11-9870-101e6ce04314" d="M184.39,35.57c.07.43,1.45.79.91,1.13-.14.09-.63.24-.77.16-.38-.24-.94-1.14-.98-1.59l-.21-1.88-.51-6.03-1.86-.4c-.18-.04-.46-.45-.47-.68l2.22.28-.12-.99c-.01-.09.12-.46.21-.43.13.05.4.24.42.37l.23,1.27,1.34.48c.11.04.33.31.39.41.09.14-.4.32-.56.27l-1.05-.29.52,6.13.3,1.82Z"/>
  <path class="uuid-f98cedf3-c5ba-4e11-9870-101e6ce04314" d="M176.06,54.43l.65,5.58.09.59c.03.17-.49.13-.77.07l-.65-6.52-1.84-2.71c-.18-.27-.29-.77-.2-1.02.03-.07.44-.11.46-.04s.11.42.17.51l1.95,2.74,3.05-2.16c.12-.08.73-.01.67.1s-.22.45-.33.53l-3.26,2.35Z"/>
  <path class="uuid-f98cedf3-c5ba-4e11-9870-101e6ce04314" d="M184.32,46.39l.24-.23-.24.23Z"/>
  <path class="uuid-f98cedf3-c5ba-4e11-9870-101e6ce04314" d="M182.97,46.61l-.38-.1-.46-1.14-.72.04.22-.31.66-.18c.1-.03.22.31.25.41l.43,1.28Z"/>
  <path class="uuid-f98cedf3-c5ba-4e11-9870-101e6ce04314" d="M184.56,46.16l.23-.54.04-2.06.46.44-.11,1.7c0,.11-.14.47-.23.48h-.39Z"/>
  <path class="uuid-f98cedf3-c5ba-4e11-9870-101e6ce04314" d="M184.32,46.39c.02.17-.12.42-.21.52-.12.13-.7.37-.82.24l-.32-.54.67.05.68-.27Z"/>
  <polygon class="uuid-f98cedf3-c5ba-4e11-9870-101e6ce04314" points="184.83 43.56 184.43 43.55 184.47 43.39 184.78 43.2 184.83 43.56"/>
  <path class="uuid-f98cedf3-c5ba-4e11-9870-101e6ce04314" d="M181.07,40.01l-.16-.52h-1.6s.01,3.09.01,3.09h2.34s.02,1.67.02,1.67l-1.17-.02-1.52-.02.13,1.5.13,1.53,2.21.13-.51-1.37c-.03-.09.04-.52.14-.54l.31-.06-.27.46,1.07,1.73.54.84.07.12,1.03.24.97-.13c-.21.24-.76.54-.95.49l-1.23-.37s-.05-.04-.1-.17l-.28.66-1.52.05c-.17,0-.61-.3-.76-.45l1.64.13.55-.68c-.12-.23-.5-.64-.72-.65l-2.55-.05-.17-1.88-.12-2,2.45.11c.28.01.43-.87.16-.9l-2.37-.14v-3.54s2.61-.09,2.61-.09l.06-.74c.21-.12.57-.32.31-.11l.5.2c.76-.22,1.1-.25,1.7-.12.41.24.32.33-.06.28-1.03,0-1.79.23-2.39.85l-.48.49Z"/>
  <path class="uuid-f98cedf3-c5ba-4e11-9870-101e6ce04314" d="M181.44,42.15l-.24-.24.24.24Z"/>
  <path class="uuid-f98cedf3-c5ba-4e11-9870-101e6ce04314" d="M181.69,42.33l-.25-.18.25.18Z"/>
  <path class="uuid-f98cedf3-c5ba-4e11-9870-101e6ce04314" d="M181.19,41.9s-.39-.25-.4-.36l-.09-1.46.37-.07-.05.91.17.98Z"/>
  <path class="uuid-f98cedf3-c5ba-4e11-9870-101e6ce04314" d="M184.78,43.2c.1-.06-.13.08-.32.19.04.05-.09-.12-.19-.27l-1.36-.1-.53-.22c-.18-.07-.56-.21-.73-.21l.03-.25,1.06.17,1.07.18.58.09-.4-1.18,1.67,1.57h.49s-.04.71-.04.71l-.87-.51-.45-.16Z"/>
  <path class="uuid-f98cedf3-c5ba-4e11-9870-101e6ce04314" d="M197.86,59.9c.07,1.16-.43,2.25-1.13,2.27-.21,0-.69-.39-.74-.61-.37-1.74-.6-4.05.32-5.04.1-.11.78-.18.85-.04l.4.71c.07.12.17.65.18.79l.12,1.93ZM196.7,61.36c.93-1.41.5-2.82.09-4.18-.74.71-.4,2.69-.09,4.18Z"/>
  <path class="uuid-f98cedf3-c5ba-4e11-9870-101e6ce04314" d="M206.08,59.23l-.06-1.96c-.02-.62,1.57-.65,1.93-2.27.07-.33-.71-.96-1.01-.84-.54.22-.86.44-1.14.72h-.56c-.19,0,.06-.75.24-.86.48-.28,1.48-.54,2.17-.44.45.06.94.77.96,1.2.03.72-.24,1.55-.71,1.87l-1.21.84.12,1.61-.05.54c-.01.15-.67-.21-.68-.41Z"/>
  <path class="uuid-f98cedf3-c5ba-4e11-9870-101e6ce04314" d="M174.85,38.22c-1.3-.8-2.47-1.31-4.18-1.14l.17,1.55.07,8.19-.09.6c-.02.1-.38-.21-.39-.25v-9.3c-.17-.16-.34-.76-.16-.83l.91-.31c.69-.23,1.87.04,2.24.27l1.69,1.05.05.1.18.18.06.06.18.18.09.09,1.23,1.38.05-1.79c0-.17.36-.39.7-.6l.57.43-.95.2v1.46s.32,2.61.32,2.61l-.24,1.67v4.19s.55.48.55.48c.72-.25.38.43.1.36l-1.11-.28.03-3.63-.83.84.41-.99.64-1.91c.08-.23-.02-.96-.04-1.2l-.06-.87-.43-.58-1.15-1.54-.13-.13-.13-.13-.11-.11-.13-.13-.12-.18Z"/>
  <path class="uuid-f98cedf3-c5ba-4e11-9870-101e6ce04314" d="M185.92,56.56c1.3.16-1.49.97-1.56,1.63l-.31,2.85-.06.52c-.02.16-.58-.17-.59-.34l-.15-2.99-.11-2.16h.54c.09,0,.1.27.11.37l.13.97c.43-.48,1.39-.93,1.99-.86Z"/>
  <path class="uuid-f98cedf3-c5ba-4e11-9870-101e6ce04314" d="M209.12,42.54l.11-.14.18.2h.34s.04.59.04.59l.11.13.37.45c.04.13.2.54.2.65v2.76c0,.9-.91,2.34-2.07,2.63l.71-.74c.99-1.04,1.34-2.5,1.07-3.73l-.24-1.08-.18-.82-.12-.12-.39-.57-.13-.2Z"/>
  <path class="uuid-f98cedf3-c5ba-4e11-9870-101e6ce04314" d="M174.9,44.65l-1.97,1.07c-.07.04-.24.39-.31.37l-.46-.13v-1.85s.35-1.56.35-1.56v1.23s0,1.77,0,1.77l2.08-1.19c.07-.2.49.18.3.28Z"/>
  <path class="uuid-f98cedf3-c5ba-4e11-9870-101e6ce04314" d="M174.86,39.76l-.84-.29-.71-.24-1.02-.35.08,2.26c0,.2-.54.22-.49,0l-.06-2.34c-.07.05.32-.26.48-.38l2.02.72c.19.07.55.31.69.42l.14.1.37.36.09.15.51.83.3.49-.13,1.37c-.04.43-.63,1.16-1.16,1.48l.7-1.24c.26-.46.15-1.37-.08-1.93l-.35-.83-.1-.1-.36-.36-.09-.12Z"/>
  <path class="uuid-f98cedf3-c5ba-4e11-9870-101e6ce04314" d="M183.84,40.46c-.31-.09-1.15.17-1.31.28l1.6,1.16-1.6-.55c-.08-.03-.3-.25-.35-.32-.25-.43.63-1.13,1.92-.93l1.3.2-.48.49-1.08-.32Z"/>
  <path class="uuid-f98cedf3-c5ba-4e11-9870-101e6ce04314" d="M209.05,47.96l-.71.64-.96.74c-.17.13-.66.22-1.14.33l-.09-1.75-.18-.65.02-1.86c.25.3.4.64.42.95l.18,2.8.91-.3.46-.45.46-.2.63-.24Z"/>
  <path class="uuid-f98cedf3-c5ba-4e11-9870-101e6ce04314" d="M207.92,50.35c-.14.06-.56.13-.76.16l-1.65.21-.31-2.34c-.03-.24.55-.26.46-.01l.17,1.97,1.92-.38.48-.16c.1-.03.22.33.12.37l-.42.18Z"/>
  <path class="uuid-f98cedf3-c5ba-4e11-9870-101e6ce04314" d="M207.78,62.22l-.19.85c-.05.21-.58.32-.76.22-.15-.09-.46-.54-.38-.69l.45-.83c.05-.1.43-.19.54-.15.15.05.37.45.34.6Z"/>
  <path class="uuid-f98cedf3-c5ba-4e11-9870-101e6ce04314" d="M195.02,47.15l.79-.04.25-.52.11-2.33c.12.16.4.49.39.59l-.03,1.74c0,.26-.51.83-.75,1-.2.14-.72-.11-.88-.29l-.13-.14-.12-.13-.12-.13-.44-.55.51-.19.07.62.11.12.12.12.12.13Z"/>
  <path class="uuid-f98cedf3-c5ba-4e11-9870-101e6ce04314" d="M206.29,41.63l-.38.1c-.1.03.23.37.23.48v1.99c.01.11-.47-.12-.47-.23l.04-2.83.71.33s.05.05.12.13l.39.13s.06.04.1.08l.18.14.08.07.17.16.07.07.17.17.07.07.17.17.08.08.82.89s.09.11.11.14l.42.89c.21.44.27,1.83.36,1.44l-.15.64c-.05.19-.22.54-.44.91l.05-.81.06-1.26-.25-.81-.26-.83-.11-.06-.82-.91-.11-.11-.13-.14-.11-.11-.13-.13-.11-.11-.14-.13-.11-.09-.17-.13-.09-.07-.31-.21-.12-.12Z"/>
  <path class="uuid-f98cedf3-c5ba-4e11-9870-101e6ce04314" d="M173.55,47.8l-1.54.09-.14-.18,1.09-.2,1.34-.4c-.11.19-.57.67-.75.68Z"/>
  <circle class="uuid-f98cedf3-c5ba-4e11-9870-101e6ce04314" cx="193.22" cy="46.43" r=".27"/>
  <circle class="uuid-f98cedf3-c5ba-4e11-9870-101e6ce04314" cx="175.23" cy="46.67" r=".27"/>
  <rect class="uuid-f98cedf3-c5ba-4e11-9870-101e6ce04314" x="185.1" y="48.38" width=".17" height=".17" transform="translate(20.01 145.21) rotate(-45.02)"/>
  <path class="uuid-f98cedf3-c5ba-4e11-9870-101e6ce04314" d="M175.95,46.19h0s0,0,0,0Z"/>
  <rect class="uuid-f98cedf3-c5ba-4e11-9870-101e6ce04314" x="174.55" y="46.94" width=".17" height=".17" transform="translate(17.93 137.32) rotate(-45.02)"/>
  <path class="uuid-f98cedf3-c5ba-4e11-9870-101e6ce04314" d="M248.16,29.62c-.16-.28.04-1.11.28-1.33l1.21-1.16c.08-.07.43-.1.53-.09.16.01.13.54.02.65l-1.32,1.4.93,1.73,1.41-1.58c.07-.08.65-.2.66-.1.02.15.04.55-.06.66l-1.57,1.76,1.56,2.17,1.1-1.65c.05-.08.4-.33.48-.39l.06-4.4-.08-3.67v-.6c.02-.63,1.72.19,3.24,2.49l2.05,3.11c.06.09.03.59-.07.59-.16,0-.64-.11-.75-.26l-1.78-2.55-1.81,1.49-.06,3.96-.43.13c-.09.03-.06.54-.12.62l-1.47,1.98c-.15.2-.93-.04-1.07-.24l-1.25-1.82-1.69-2.9ZM255.74,25.61l-1.4-1.38-.03,2.52,1.42-1.14Z"/>
  <path class="uuid-f98cedf3-c5ba-4e11-9870-101e6ce04314" d="M290.41,33.1c1.17,1.03-1.36,1.87-2.73-3.12l-1.65,1.74c-.14.14-.47.31-.6.36-.17.06-.39-.53-.27-.66l.69-.77,3.09-3.52-3.42,2.02c-.4.24-1.54-.05-1.93-.41-1.14-1.04.97-4.34,3.7-4.46l.7.11c.18.03.72.26.81.42.23.41.13,1.42,0,2.01l.39.16.82-.92c.47.02,1.29.37,1.61.8.27.36.38,1.36.17,1.79-.64,1.32-1.8,1.57-3.11,1.52.16,1.05,1.03,2.35,1.7,2.95ZM286.48,27.73l1.73-1.62-.37-.82c-1.48-.59-3.21.9-3.67,2.37-.28.89,1.56.78,2.31.07ZM291.14,28.04c.18-.46-.64-1.29-.88-1.02l-1.84,2.07c1.1.44,2.22.26,2.72-1.05Z"/>
  <path class="uuid-f98cedf3-c5ba-4e11-9870-101e6ce04314" d="M277.12,24.61l.42,1.62c.35.04.51.62,0,.47l-3.25.62-1.17.23-.75.83-.71-.43c-.13.03-.53.13-.59.03l-.25-.42-.56-.57-.5.29-.33-.56-.95-.66.72-1.7-1.44.56c-.16.4-.29.34-.26-.03-.02-.23-.05-.46-.16-.48l-1.21-.27c-.14-.03-.47-.28-.57-.39-.12-.15.11-.49.46-.88l-.07.63.43.15.69.38,1.3-.47c.11-.04.46-.11.55-.11l.64.47.67-.03,1.36.07-.89.29c.64.53,1.04,1.36,1,2.21l.95.18c.07.46.13.34.13,0l.16-1.61-.4-.78c-.09-.17.24-.44.66-.71l-.12.52c-.31.12.06.84.35.25l1.34-.05c.17,0,.77.41.8.59l.27,1.83,1.32-.2-.15-.9-.12-.81s-.04-.19-.08-.18l-1.08.03c0-.09.07-.4.17-.4l.55-.02h.44s.23.41.23.41Z"/>
  <path class="uuid-f98cedf3-c5ba-4e11-9870-101e6ce04314" d="M300.61,41.66l-6.2,3.08-.73-.08c-.17-.02.12-.65.28-.73l3.28-1.57-.92-1.47-3.25,1.62c-.17.08-.64,0-.78-.04s.08-.63.26-.72l5-2.41,1.6-.66c.16-.06.6-.05.91-.04l-.05.58-2.95,1.27,1.01,1.5,2.5-1.25c.12-.06.59.29.52.37l-.49.55Z"/>
  <path class="uuid-f98cedf3-c5ba-4e11-9870-101e6ce04314" d="M283.97,62.8c-1.12.1-2.18-.05-3.23-.52-.59-.26-.94-1.22-.76-1.72.04-.12.46-.49.54-.4.58.65.24,1.24.6,1.33l1.85.47c.23.06.89-.11,1.19-.19.37-1.24-.11-2.45-1-3.35l-1.66-1.69c-.54-.55-.31-1.65.47-1.94,1.53-.56,3.46.04,3.55,1.16,0,.12-.42.31-.52.24l-.46-.37c-.67-.53-1.62-.58-2.6-.05l1.12,1.32c.79.93,2.17,1.57,2.13,4.29,0,.59-.65,1.39-1.22,1.44Z"/>
  <path class="uuid-f98cedf3-c5ba-4e11-9870-101e6ce04314" d="M266.49,57.17l.08,2.28,1.5-.11,1.79-.14-.06.81-3.12.33c-.17.02-.89-.34-.9-.51l-.22-3.31v-2.45c0-.19.39-.77.58-.77l3.54-.08c.1,0,.4.07.4.15v.56s-.81.06-.81.06l-2.85.16.08,2.21h3.03c.11.11.01.79-.13.79l-2.91.02Z"/>
  <path class="uuid-f98cedf3-c5ba-4e11-9870-101e6ce04314" d="M238.69,51.01l-1.08,3.1-.54.12c-.12.03-.19-.55-.15-.67l.52-1.64-3.22-4.38-.85,1.64-.25.49c-.07.14-.67-.32-.6-.5.87-2.22,2.78-5.67,3.07-4.73.05.16.09.57-.02.72l-.96,1.48,1.99,2.66,1.18,1.58,1.12-2.55c.08-.19.35-.44.52-.5s.43.59.34.79l-1.07,2.38Z"/>
  <path class="uuid-f98cedf3-c5ba-4e11-9870-101e6ce04314" d="M274.51,60.95l2.94-.28h.48c.4-.02.13,1.3-3.17,1.1-.59-.04-1.12-.62-1.21-1.15l-.67-3.93c-.11-.63-.02-1.51.09-2.23l1.34-.26,2.1-.29c.09-.01.43.06.53.09.14.03-.11.64-.25.67l-3.06.49.33,2.63,3.12-.29c.19-.02.31.74.13.76l-3.07.34.38,2.34Z"/>
  <path class="uuid-f98cedf3-c5ba-4e11-9870-101e6ce04314" d="M259.65,25.24l.62.92-.17.49c-.04.11-.57.05-.64-.05l-1.58-2.62-1.42-2.29c-.07-.12-.03-.52,0-.65s.56.05.64.16l.83,1.32c.12.2.52.56.7.71l.49-3.38c.02-.11.34-.36.44-.41.16-.07.38.45.35.63l-.44,3.07.36.4,4.18-1.76.52-.22c.12-.05.36.2.37.33.02.17-.24.61-.42.68l-3.84,1.58-1.33.33s.21.58.32.74Z"/>
  <path class="uuid-f98cedf3-c5ba-4e11-9870-101e6ce04314" d="M263.51,57.8c.7.21-1.18,1.4-3.02-.38l-1.03-1-.22,2.26c-.02.21-.22.61-.38.73s-.57-.37-.55-.56l.69-6.16.08-.72c.02-.19.55-.21.81-.23,1.09-.07,2.26.81,1.96,1.93-.2.76-.8,1.32-1.65,2,.42.84,1.48,1.57,2.53,1.89l.75.23ZM261.42,53.21l-1.62-.82-.13,2.71,1.75-1.88Z"/>
  <path class="uuid-f98cedf3-c5ba-4e11-9870-101e6ce04314" d="M254.62,51.83l-.26,2.31-.29,5.35c-.01.23-.7.25-.87.09l.5-7.63-1.73.08c-.08,0-.33-.2-.38-.25-.08-.09.13-.5.29-.52l4.87-.41c1.09-1.76-.18-3.26,1.35-3.79l.48-.17c.1-.03.23.35.13.39l-.4.17-.54.23-.09.85c.13.22.33.56.25.42l-.68,1.5s.33.4.36.43l.67.21c.13.04-.21.62-.35.63l-3.28.11Z"/>
  <path class="uuid-f98cedf3-c5ba-4e11-9870-101e6ce04314" d="M246.46,39.46c-.36,1.71-2.22,3.24-3.54,2.75-.18-.07-.3-.61-.28-.87.01-.22.75.04,1,0,.73-.1,1.85-1.18,1.95-2.1.08-.7-.17-1.26-.52-2.14l-1.31.7c-.45.24-1.49.58-1.97.37-.94-.4-1-1.48-.38-2.51l1-1.66c.06-.1.53-.17.63-.17,0,.32-.06.84-.18,1.05l-.94,1.66c-.06.1-.06.55-.04.66.03.17.61.22.77.14l1.7-.92c.34-.18,1.25-.03,1.46.31.5.82.83,1.82.64,2.72Z"/>
  <path class="uuid-f98cedf3-c5ba-4e11-9870-101e6ce04314" d="M297.76,45.92l-.25-.79-2.33.92.6,2.25c.04.15-.33.53-.47.46s-.45-.43-.49-.59l-.54-1.99c-.04-.14-.06-.59.04-.69s.38-.25.52-.3l1.04-.39,3.07-1.27.78-.27c.15-.05.63-.17.75-.05.14.15.26.47.4.86l.92,2.56c.04.1-.02.46-.04.57-.03.16-.64-.12-.7-.28l-1.08-2.74-1.04.25c-.21.05-.54.63-.47.83l.63,1.73-.59.45-.74-1.5Z"/>
  <path class="uuid-f98cedf3-c5ba-4e11-9870-101e6ce04314" d="M248.8,38c.05.07.1.59.01.6l-.67.09-3.31-5.5c-.18-.3-.46-.91-.32-1.15.22-.38.72-1.12.99-1.39.53-.53,1.36-.4,1.79.12.54.66.91,1.75.72,2.57l-.58,2.6,1.37,2.05ZM246.88,34.12c.6-.99.29-2.37-.41-2.88-.33-.13-1.07.58-1.03.93.04.3.25.88.41,1.14l.61,1.04c.18.43.52.42.42-.23Z"/>
  <path class="uuid-f98cedf3-c5ba-4e11-9870-101e6ce04314" d="M293.6,40.32l-1.09.79c-.14.1-.61.05-.75-.06s.09-.6.25-.71l1.95-1.31,3.59-2.37-.56-.66c-.05-.06-.07-.33-.07-.41,0-.13.55-.18.64-.09l1.8,1.87c.1.1.25.41.29.53.06.16-.48.46-.61.34l-.97-.93-4.47,3Z"/>
  <path class="uuid-f98cedf3-c5ba-4e11-9870-101e6ce04314" d="M284.03,23.67l-.04.46c0,.1-.43.16-.54.11l-1.36-.62-1.39,1.59c-.1.11-.57.17-.72.13s-.1-.5,0-.62l1.26-1.52,1.23-1.48c.17-.2.77-.42,1-.32l1.35.58,1.01.43c.17.07.42.62.25.66s-.61.09-.77.02l-1.91-.81c-.17.02-.68.43-.85.59l1.48.8Z"/>
  <path class="uuid-f98cedf3-c5ba-4e11-9870-101e6ce04314" d="M262.19,46.69l1.2-.09,2.29-1.38-.15-.9c-.04-.26-.09-.83.02-1.06l.31-.67c.38-.38.82-.07.14.27-.38,1.14.65,2.25-.31,2.77l-1.17.63.02.33h.86s1.5.04,1.5.04l2.99.05s.32.16.41.21h1.51s.68-.71.68-.71l.12.11-1.09,1.16c.03.08-.03.08-.1.01l-1.06-.23-1.78-.12s-.26-.12-.4-.2l-1.97.02c-.09,0,.09.44.18.44l1.34.07.56.17.71.21.5.15c.1.03-.02.4-.13.37l-.46-.13-.95-.27-1.1-.14-1.63-.18-.56-.65c.01-.05-.08.34-.14.6l-1.24.14-.84.24s-.17-.35-.07-.38l.81-.3-.66-.17-.58-.23-.04-.12-.5-.14-.88-.06,1-.35.23-.84.46.59,1.78-.99.03-1.59c.01-.06.47.07.47.17l-.04,1.33-.59.47-1.29.86-.49.22.12.27Z"/>
  <path class="uuid-f98cedf3-c5ba-4e11-9870-101e6ce04314" d="M277.7,31.77c-.04-.33-.46-1.06-.55-1.17l-.58.45-.02-.54.46-.36,1.33.23c-.07-.17-.18-.86-.01-.8l1.11.38.63.21.4.18c.09.04.4-.09.39-.18l-.15-.85-.2-1.11c.26.13.41.18.42.28l.07.67.17,1.63-1.28-.25-.48-.13c-.15-.04-.23.39-.21.5l-1.51-.16.45,1.34.18.54.11,1.53.19.44c.04.1-.33.21-.39.12s-.2-.31-.21-.41l-.12-1.05-.2-1.46Z"/>
  <path class="uuid-f98cedf3-c5ba-4e11-9870-101e6ce04314" d="M275.46,42.06h-.49s.12-1.75.12-1.75c.01-.16.18-.68.24-.83l.78-1.6c.16-.32.01-1.13.02-1.48v-1.75c.08-.07.33-.25.3-.33l-.13-.37-.35-.95-.24-.65c0-.28.58-.49.38.03l.75,2.32-.53.18.1,1.28v2.24c0,.28-.84,1.06-.86,1.42l-.09,2.23Z"/>
  <path class="uuid-f98cedf3-c5ba-4e11-9870-101e6ce04314" d="M266.26,30.32l-.67-.13c.06-.63-.29-.59-.4-.09l-.7-.05-.75-.12-1.02-.19-1.43-.27.52-.77c.1-.15.58-.27.53-.1l-.28.81h1.92c.27,0,.88-.37,1.29-.57l.14.48.6.16.27.86Z"/>
  <path class="uuid-f98cedf3-c5ba-4e11-9870-101e6ce04314" d="M269.01,48.7l.65.28c.12.05-.04.57-.17.56l-1.41-.09-1.63-.22-.78-.21.33-.75.62-.08.35.69,1.5-.13c.1-.03.45-.08.55-.04Z"/>
  <path class="uuid-f98cedf3-c5ba-4e11-9870-101e6ce04314" d="M261.42,37.12l-.43-.39-.15-.51c-.04-.14-.59-.11-.66.02l-1.02,1.75-.26-.37-.52-1.02-1.08.99c-.08.07-.6-.03-.55-.12l.28-.47c-.02-.1-.1-.56-.09-.5l-1.2.5s-.3-.41-.24-.51l.36-.65.67-.54-.44,1.24,1.59-1.16-.02.93-.08.56,1.01-1.04.55,1.49.92-1.44c.06-.1.5-.37.58-.3.19.16.59.56.68.75l.28.59.08.16.91.07.23-.4-.2-.14-.25-.15.27-.14.18.12.07.07.4.15c.12.05.08.38.05.48l-1.13.3c-.17.05-.55-.12-.69-.21l-.13-.12Z"/>
  <path class="uuid-f98cedf3-c5ba-4e11-9870-101e6ce04314" d="M276.56,48.85l-.97-.45-.51.45-.85-.53-.23-.32c.32-.13.68-.31.81-.26l1.61.59c.08.03.36.43.3.36l.11.12.35.13.13.12.13.11.16.14c.8.71-.21,1.59.19,2.57l.22.95.16.57.28.98.25.62.17.42c.04.1-.35.23-.4.14l-.19-.43-.38-1.26-.38-1.3-.17-1.35-.77.36-.91.31-1.36.09c-.2.01-.2-.56,0-.5l1.84-.05.6-.19.69-.64-.03-1.16-.12-.12-.12-.12-.13-.11-.35-.13-.13-.1Z"/>
  <path class="uuid-f98cedf3-c5ba-4e11-9870-101e6ce04314" d="M270.44,51.49c.23-.1.21.5,0,.49l-1.27-.18-1.5-.21-1.06-.2-1.16-.22c-.27.11-.22-.49,0-.43l1.17.23.94.19,1.04.21,1.84.12Z"/>
  <path class="uuid-f98cedf3-c5ba-4e11-9870-101e6ce04314" d="M267.02,39.72l-.27.47c-.05.09-.4,0-.36-.1l.17-.47c.05-.13-.08-.39-.17-.61l-.28-.72-.27-.98-.15-.58s.18-1.28.62-1.58l-.1.97c-.04.41-.09,1.09.02,1.37l.47,1.21.31.56c.39-.11.38.57.02.47Z"/>
  <path class="uuid-f98cedf3-c5ba-4e11-9870-101e6ce04314" d="M270.44,41.25l-3.04-.14-.2.44-.62.53-.17-.24.63-.57.12-.61,2.69.06c.15,0,1.31.23,1.65.57l-1.06-.05Z"/>
  <path class="uuid-f98cedf3-c5ba-4e11-9870-101e6ce04314" d="M272.65,45.98l.13-.99.28-1.01v-2.48s-.03-.48-.03-.48c.72.53.45.82.41,1.45l-.18,2.64c-.01.22-.43.72-.61.87Z"/>
  <path class="uuid-f98cedf3-c5ba-4e11-9870-101e6ce04314" d="M266.49,33.74l-.81-.15.14-2.14-1.02.69c-.08.05-.19.29-.24.38s-.42-.03-.37-.12.17-.3.26-.36l.63-.4.46-.52h.76c-.21.5-.35,1.32-.12,1.7.05.08.35.31.59.51-.02.02-.38.56-.28.41Z"/>
  <path class="uuid-f98cedf3-c5ba-4e11-9870-101e6ce04314" d="M258.37,33.77l.52-.59,1.57-.16,1.55-1.03,1.26-.65.57-.34.59-.34c.39-.5.66-.18.25.21l-.71.46-.74.48-.62.32-1.14.54c-.1.05-.37.15-.4.25l-.19.6c-.5-.07-1.23-.12-1.59-.01l-.92.27Z"/>
  <path class="uuid-f98cedf3-c5ba-4e11-9870-101e6ce04314" d="M269.86,22.48l.75-.1.62-.21,1.08-.25c.33,0,.44.64-.04.45l-1.56.37.17.11.84.5c-.53-.06-.79-.12-1.02-.21l-.15-.17-.82-.35-.16-.23.12-.14.18.21Z"/>
  <path class="uuid-f98cedf3-c5ba-4e11-9870-101e6ce04314" d="M278.97,38.04l-.45-.48.34-.4-.51-.19c-.1-.04.04-.31.12-.37s.47.08.49.18l.16,1.13c.08.05.16.08.17.12l.35,1.36.64-.15-1.2,1.16.11-1.59c0-.13-.1-.63-.11-.65l-.13-.12Z"/>
  <path class="uuid-f98cedf3-c5ba-4e11-9870-101e6ce04314" d="M278.2,23.19l.02-.52s.17.39.17.39l.11.12.12.12.11.12.34.09c.11.03.18.69.08.75-.27.16-.93.13-1.21-.01l-1.06-.55,1.56.24s.18-.33.17-.31l-.14-.12-.14-.15-.13-.14Z"/>
  <path class="uuid-f98cedf3-c5ba-4e11-9870-101e6ce04314" d="M272.7,49.12l-1.52-.41c-.21-.23-.32-.49.31-.25l.24-.71,1.15,1.19s.15.06.17.06l2.13.12-1.25.49-1.42,1.08c-.08-.59-.08-.64-.07-.52l.7-.22c.15-.05.27-.49.13-.54l-.48-.19-.1-.09Z"/>
  <path class="uuid-f98cedf3-c5ba-4e11-9870-101e6ce04314" d="M261.42,48.57c0-.07.05-.53.03-.38l.26.4s.07.08.11.1l.13.09.81.23.73.21,1.13.32c-.41.16-.82.17-1.09.1l-1.02-.29c-.14-.04-.53-.23-.63-.33l-.2-.19-.12-.12-.15-.15Z"/>
  <path class="uuid-f98cedf3-c5ba-4e11-9870-101e6ce04314" d="M278.83,35.37c-.31-.41-.18-.55.24-.24l.15.26.13.35.11.12,2.27.02.5.07c.1.01-.04.46-.13.41l-.44-.24-1.31.11c-.33.03-.76-.03-1.02-.15l-.12-.21-.12-.36-.25-.15Z"/>
  <polygon class="uuid-f98cedf3-c5ba-4e11-9870-101e6ce04314" points="261.94 36.12 261.55 35.68 261.64 34.11 262.12 34.54 262.05 36 262.24 36.17 262.11 36.31 261.94 36.12"/>
  <path class="uuid-f98cedf3-c5ba-4e11-9870-101e6ce04314" d="M272.13,24.73c.05,0-.33.24-.36.14l-.16-.5.33-.49c-.02-.12-.04-.49.07-.46l.4.12c.1.03-.13.33-.22.41l-.05.79Z"/>
  <path class="uuid-f98cedf3-c5ba-4e11-9870-101e6ce04314" d="M283.5,38.16l.17.47c.04.1-.38.24-.41.14l-.15-.52c-.07-.24-.11-.79-.09-.95.24.38.41.66.48.86Z"/>
  <path class="uuid-f98cedf3-c5ba-4e11-9870-101e6ce04314" d="M278.23,36.57c-.58-.08-.91-.42-.99-1.01l.99,1.01Z"/>
  <path class="uuid-f98cedf3-c5ba-4e11-9870-101e6ce04314" d="M268.74,21.51l.5.35c.09.06,0,.4-.1.37l-.45-.16-.5-.25-.44-.28.99-.03Z"/>
  <path class="uuid-f98cedf3-c5ba-4e11-9870-101e6ce04314" d="M277.06,21.74h-.62c-.19.05-.13-.49.06-.56l.69.42s.06.06.12.13l.12.13.12.13.13.35.16.18-.12.14-.19-.19-.11-.36-.11-.13-.12-.12-.12-.12Z"/>
  <path class="uuid-f98cedf3-c5ba-4e11-9870-101e6ce04314" d="M279.87,27.33l-.6-.86.83.61s.05.06.1.14l.15.25.13.21-.04.46-.26-.4-.21-.32-.1-.1Z"/>
  <circle class="uuid-f98cedf3-c5ba-4e11-9870-101e6ce04314" cx="263.74" cy="32.77" r=".27"/>
  <circle class="uuid-f98cedf3-c5ba-4e11-9870-101e6ce04314" cx="263.02" cy="33.25" r=".27"/>
  <circle class="uuid-f98cedf3-c5ba-4e11-9870-101e6ce04314" cx="257.98" cy="33.97" r=".27"/>
  <path class="uuid-f98cedf3-c5ba-4e11-9870-101e6ce04314" d="M282.52,36.83c0-.08.05-.53.04-.39l.28.46c.04-.08-.04.09-.08.15l-.24-.22Z"/>
  <path class="uuid-f98cedf3-c5ba-4e11-9870-101e6ce04314" d="M278.89,55.96l.15-.12.22.24c.39.06.26.1-.01.12l-.35-.23Z"/>
  <rect class="uuid-f98cedf3-c5ba-4e11-9870-101e6ce04314" x="256.43" y="34.6" width="1.19" height=".17" transform="translate(50.69 191.82) rotate(-44.98)"/>
  <rect class="uuid-f98cedf3-c5ba-4e11-9870-101e6ce04314" x="276.25" y="29.93" width=".17" height=".17" transform="translate(59.79 204.28) rotate(-45.02)"/>
  <path class="uuid-f98cedf3-c5ba-4e11-9870-101e6ce04314" d="M266.62,22.46h0s0,0,0,0Z"/>
  <rect class="uuid-f98cedf3-c5ba-4e11-9870-101e6ce04314" x="261.86" y="47.9" width=".17" height=".17" transform="translate(42.85 199.37) rotate(-45.02)"/>
  <path class="uuid-f98cedf3-c5ba-4e11-9870-101e6ce04314" d="M267.34,21.98h0s0,0,0,0Z"/>
  <rect class="uuid-f98cedf3-c5ba-4e11-9870-101e6ce04314" x="275.77" y="21.78" width=".17" height=".17" transform="translate(65.41 201.55) rotate(-45.02)"/>
</svg>