<?xml version="1.0" encoding="UTF-8"?>
<svg id="uuid-eb32e9a8-4a91-47de-910d-1d3be3fc9f96" data-name="Layer 1" xmlns="http://www.w3.org/2000/svg" viewBox="0 0 396.86 163.35">
  <path d="M82.11,73.58c-.21.37-.52.68-.84.96-.05.04-.2-.04-.24,0-.27.25-1.77,1.67-1.8,1.8-.27.98.34,2.62-.24,3.59-.15.26-1.52,1.26-1.2,1.56.59.04,1.22-.06,1.8,0,.09,0,.15.23.24.24.72.06,2.29-.32,2.52.48-.5-.04-.79-.24-.84-.24-1.02-.07-2.09.05-3.12,0-.22-.35-.95-.15-1.08-.6-.12-.41,1.21-1.28,1.44-1.68.03-.05-.03-.17,0-.24.05-.1.22-.15.24-.24.06-.28.04-1.12,0-1.44-.01-.09-.22-.15-.24-.24-.04-.21-.04-.77,0-.96.02-.09.19-.14.24-.24.03-.07-.03-.19,0-.24.17-.29,1.46-1.53,1.8-1.8.05-.04.19.04.24,0,.22-.17.55-.65.72-.72.12-.05.26.03.36,0Z"/>
  <path d="M132.01,72.14h.24c-.2.48.29,1.12.24,1.32-.03.09-.21.14-.24.24-.05.15.05.35,0,.48-.06.15-.45.61-.48.72-.09.35,0,.78-.24,1.2-.12.2-.44.39-.6.6l-1.2-.24c-.53.5-.95,1.46-.24,1.92,2.64,1.69,5.75,5.59,6.6,8.75.05.18.39.09,0,.6.44-.05.7,0,.96.36l-.96,1.32c.72-.12,1.2.36,1.92.24.03-.27-.06-.6,0-.84.36-1.52,1.23-3.35,1.68-4.79.94-2.99,1.62-5.97,2.64-8.87.05-.14.37-.2.24-.6-.4.09-.76-.35-1.08-.48-.72-.3-1.62-.54-2.4-.96-.4-.22-.5-.71-1.32-.48.03-.27-.05-.6,0-.84.02-.09.45-.62.48-.72.4-1.48.52-3.02.96-4.55,1.55-5.42,3.39-10.63,5.04-16.06,2.1-6.91,4.76-13.97,6.72-21.09.02-.09.19-.14.24-.24.03-.08-.03-.19,0-.24.47-.73,1.46-.24,1.08.36-.08.13-.29.23-.36.36-.26.45-.54,1.58-.72,2.16-2.26,7.1-4.62,14.29-6.72,21.33-1.74,5.83-4.16,11.41-5.28,17.26l-.24,1.32.84-.48c.17.12.32.39.48.48.46.27,1.2.46,1.68.72.4.22.5.71,1.32.48-.18-.44.21-.71.24-.84.13-.52-.11-.89.6-1.32l.6.6-.24.24-.24,1.2c-.32.21-.25.48-.24.84.39-.11.41.13.6.24.7.4,1.98,1.25,2.64,1.44.16.04.41-.03.6,0-.05-.51.19-1.24.72-1.44l-.48,1.68c.41.06.95-.08,1.32,0,.1.02.16.33.48.24.42-.12.29-.66.36-.84.88-2.39,1.63-4.69,2.4-7.19.05-.15.41-.38.24-.84l-.72.12,1.44-1.44c2.03-7.2,4.96-14.33,7.2-21.57.07-.23-.12-.52.24-.72,0-.07-.19-.13-.24-.24-.07-.15-.17-.62-.24-.72-.17-.25-.55-.47-.72-.72-2.15-3.26-4.25-6.48-6.24-10.07-.25-.44-.43-1.26-.96-1.08l-.24-.6c.94-1.03,1.31.37,1.92.96,1.84,3.64,4.23,7.35,6.48,10.55.53.76.92.59.72,1.92-.01.09-.22.15-.24.24-.29,1.61-.48,2.79-.96,4.31-1.72,5.45-3.51,10.69-5.28,16.3-.04.11-.53.38-.12.6l1.2-1.2c.18-.04.17.26.12.36-.06.13-.88.91-1.08,1.08-1.15.95-.84,1.43-1.32,2.76-.93,2.57-2.17,5.29-2.88,7.91-.1.37.17.78-.36,1.08l-1.32-.12c.36.58.86.26,1.32.36.12.02.9.48.96.48s.61-.45,1.08-.24v-.48c.45.18.63-.42.84-.48.59-.16,1.72.12,2.4,0,.09-.02.14-.21.24-.24.16-.04.35.05.48,0,.3-.12.85-.53,1.08-.84.72-.95,1.96-1.87,1.92-3.12l.72-.6c-.04.67.06,1.37,0,2.04,0,.09-.23.15-.24.24-.06.58.04,1.21,0,1.8.4-.12.45.18.6.24.13.05.32-.04.48,0,.33.09.5.69.6.84.38.6,1.39.65,2.04.6.29-.02.74,0,.84-.36.29-1.03-1.65-1.89-2.16-2.64.14-.26-.22-.37-.24-.48-.15-.68.16-4.28,0-4.43h-.48c.13-.36-.24-.55-.24-.6,0-.08.21-.14.24-.24.04-.15-.04-.33,0-.48.02-.07.6-.67.72-.96.1-.25.15-.92.24-1.2.25-.78-.07-.69,0-.96.02-.09.2-.14.24-.24.14-.33-.2-.45.72-.36.07-.61-.03-1.06-.24-1.56-.22-.12-1-.82-1.08-.84-.33-.09-2.45-.06-2.88,0-.19.03-1.18.37-1.44.48-.45.2-.79.73-1.32.72-.08-.07.46-.63.6-.72,1.22-.76,2.08-.53,3.36-.72.09-.01.36-.38.96-.24.09.02.15.22.24.24.21.05.52-.06.72,0,.11.03.32.37.48.48.05.03.18-.04.24,0,.55.35.48,1.18.84,1.56-.84.96.36.78.48,1.2.04.15-.05.34,0,.48.03.1.22.15.24.24.18.99-.35,2.11.72,2.88l-.12.36-.84-1.08c-.04-.46.06-.99,0-1.44-.01-.09-.22-.15-.24-.24-.06-.35.16-1.17-.36-1.32-.95-.27-.74.69-.84,1.08-.07.27-.35,1.12-.48,1.44-.24.6-.93.9-.72,1.68.05.17.67.55.72.72.08.29.07,2.51,0,2.88-.01.07-.38.25-.24.72.03.09.21.14.24.24.05.14-.04.33,0,.48.02.07,1.01,1.06,1.08,1.08,1.06.32.76-1.04.84-1.56.01-.09.22-.14.24-.24.16-.7-.8-1.6.24-2.04-.15,1.43.48,3.17-.72,4.19l.72,1.44-.6.6-1.56.12c.33.21.79.67,1.08.84,1.2.7,2.36.95,3.24,2.28.63.96,1.05,2.67,1.68,3.83.2.36.69.42.48,1.2-.03.12-1.65,1.71-1.8,1.8-.11.06-.32-.04-.36,0-.13.39.19.46.24.6.15.43.37.86.48,1.2.06.17-.05.55,0,.6.09.09,2.2.05,2.52,0,.07-.01.4-.42.84-.24l-.24-1.2c.63.09.38,1.07.84,1.2.2.05.95.04,1.2,0,.15-.02,1-.34,1.2-.48l1.08.12-1.56.36c-1.62.57-3.56.38-5.28.72-.09.02-.15.23-.24.24-.88.13-1.73-.11-2.4,0-.5.09-2.52-.36-3.12-.48-.76-.15-1.7-.23-2.4-.48-.14-.05-.2-.37-.6-.24.13-.39-.2-.47-.24-.6-.14-.47.24-.68.24-.72,0-.08-.22-.15-.24-.24-.05-.29.07-.71,0-.96-.04-.13-.44-.34-.48-.48-.05-.17.05-.55,0-.6-.06-.06-.61.05-.84,0-.09-.02-.15-.22-.24-.24-.83-.15-3.71.71-4.56,1.2-.29.17-.75.63-1.08.84l.24.48.36,1.08-.6-.96c-.44.05-.7,0-.96-.36.46-.38.86-.97,1.32-1.32.87-.65,2.11-.96,3.12-1.44h2.52l-.72-1.56c-.43-.25-.55-.71-.72-.96-.31-.47-.91-.66-.12-1.32.27.23.41.55.6.84.57.89,1.1,2.05,1.68,2.88.18.25.52.47.72.72l-.48.48c.52.3.37.63.48.96.03.1.22.15.24.24.07.37-.09,1.71,0,1.8.4-.13.46.19.6.24.33.12,2.49.72,2.64.72h4.08c.06,0,.26.36.36.24-.04-.27.06-.6,0-.84-.02-.1-.42-.57-.48-.72-.46-1.14-.26-2.22-.72-3.36l-.24-1.8c.56-.09.56.22.72.6.25.59.13.94.24,1.44.03.12.42.41.24.84l1.2-1.08v-.24c-.29-.2-.33-.67-.48-.96-.08-.16-.44-.35-.48-.48-.55-1.92-.96-3.09-2.76-4.19-1.22-.75-2.43-1.22-3.36-2.4l-1.2.72c-.53-.06-1.18.09-1.68,0-.04,0-.59-.19-.72-.24-.09-.03-.14-.19-.24-.24-.64-.29-1.25-.29-1.08-1.2-.39-.13-.51.22-.6.24-.64.11-1.52-.11-2.16,0-.09.02-.14.21-.24.24-.14.05-.33-.04-.48,0-.26.08-.57,1.09-.96,1.2-.16.05-.36-.05-.48,0-.47.21-1.25,1.1-1.56,1.56-.35.53-.36,1.12-.48,1.68-.02.09-.23.15-.24.24-.07.51-.1,2.67,0,3.12.07.33.8,1.24.96,1.68.37,1,.16,2.02.24,3.12.14,1.88.63,4,.48,5.99-.26,3.41.51,7.7,0,11.26-.01.08-.43.42-.24.84.59-.04,1.22.06,1.8,0,4.41-.44,9.26-.01,13.67-.48.09,0,.15-.23.24-.24.5-.05,1.05.04,1.56,0l-.72-1.56c-.74-1.38-.86-3.29-.72-5.03,0-.09.23-.15.24-.24.17-1.59.21-2.62.72-4.07.05-.14.37-.2.24-.6l-1.32.24-.24.24h-8.4c-.34-.28-.8-.41-1.08-.84-.4-.62-.78-1.55-1.2-2.16-.24-.35-.81-.53-.72-1.08.08-.08.84.68.96.84.11.15.37.8.48.96.51.7,1.07,1.33,1.56,2.04,2.42-.22,5.31.29,7.68,0,.09-.01.15-.22.24-.24.29-.05.68.06.96,0s.87-.69.96-.72c.99-.28,2.13-1.04,2.88-1.2.28-.06.66.05.96,0,.09-.02.16-.24.24-.24s.15.22.24.24c.43.07,1.07-.1,1.44,0,.2.05.34.46.36.48-.06-.04-.23.05-.36,0-.1-.04-.15-.22-.24-.24-.59-.14-1.05.24-1.56.48.1-.94-.39-.28-.6-.24-.29.05-.7-.07-.96,0-.68.18.05.85.12,1.08.05.17-.06.47,0,.6-.02-.03-.42-.15-.48-.36s.05-.73-.36-.84c-.2-.05-1.08.47-1.08.6.06.1.23.16.24.24.14.79-.53,1.49-.72,2.16-.22.75-.14,1.62-.24,2.4-.01.09-.23.15-.24.24-.16,1.77.05,3.5.48,5.03l1.2,2.16-.36.6-.36-.24c.04.35-.05.75,0,1.08.08.51.33,1.6.48,2.16.06.2,1.1,1.45,1.2,1.92.15.67.13,5.74,0,6.47-.07.38-.69,1.1-.72,1.2-.5,1.69-.56,3.58-.72,5.27-.21,2.28.1,4.05-1.2,5.99s-2.07,4.21-2.64,6.47c-.28,1.12.07,2.16,0,2.4-.96,3.15,0,6.76-.48,10.07,0,.07-.3.17-.24.72l.48.36-.84-.48c-.1.06-.16.21-.24.24-1.4.48-3.47.23-4.8.72-.29.11-.94.65-1.2.72-.28.08-.94-.13-1.08.36-.08.29.23.89-.24.84.08-.83,0-.92-.72-.48v-.36l-.72-.12.96-.24.24-.6c0-.07-.19-.13-.24-.24-.16-.34-.54-1.49-1.08-1.32-.13.04-1.13,1.04-1.44,1.2-.73.04-1.52.5-2.04,1.08l-.24,1.56c-.08-.46.11-1.16,0-1.56-.04-.13-.44-.35-.48-.48-.19-.68.61-2.7.48-3.12-.72-2.35-.26-5.64,0-8.15.29-2.76.9-5.32,1.2-8.15.31-2.98.78-6.37.96-9.35.06-.94.13-2.72,0-3.59-.02-.16-.41-.96-.48-1.2-.52-1.64-1.1-2.84-1.44-4.55-.31-1.54-.62-2.22-.24-3.83.15-.64-.31-.8,0-1.92.24-.87-.59-.5-.72-.96s.23-.65.24-.72c.17-.97.19-8.97,0-9.83-.23-1.01.07-3.1,0-4.55,0-.08-.24-.16-.24-.24-.1-1.76.07-4.51-.48-5.99-.2-.55-.86-1.37-.96-1.92-.32-1.77.3-3.76.96-5.27.18-.28,1.51-1.26,1.2-1.56-.43.18-.72-.21-.84-.24-1.07-.24-2.05-.11-3.12-.72-1.14-.65-1.3-.76-2.64-1.2-.1-.03-.15-.21-.24-.24-.37-.11-.62.08-.84.36l-4.56,14.5c.3-.1.82.24.72.6-.09.3-.67.4-.96.48-.33.09-.61.18-.96.12l.6.48c.91-.07,2.72,1.45,1.08,1.68l.48,1.2c-.34-.05-.77.07-1.08,0-.1-.02-.16-.33-.48-.24-.41.11-.29.65-.36.84-.05.14-.37.2-.24.6h.96c-.16.5.59.68.48,1.08-.41.22-.15.64-.24.96-.04.13-.44.35-.48.48-.09.34-.12.57-.24.96-.05.14.04.33,0,.48-.15.51-1.19.34-1.68.36-.03.27.05.59,0,.84-.02.09-.22.15-.24.24-.71,3.02-1.61,5.91-2.4,8.87-.28,1.05.32,3.06.24,3.36-.65,2.34-.1,5.64-.48,8.15-.45,2.96-1.2,6.19-1.44,9.11-.08.98.19,2.52,0,3.36-.02.09-.19.14-.24.24-.03.08.03.19,0,.24-.55.86-2.2.55-3.12.6-.03.27.05.59,0,.84-.45,2.27-1.05,4.68-1.44,6.95-.45,2.64.55,5.56-.48,8.15-.16.4-.36.78-.48,1.2l1.32.84c.19.37.54.16.72.24.17.07.54.39.72.48.37.17.35-.1.36-.36.01-.31-.2-1.11.24-1.08-.02.82-.16,1.43.6,1.92.09.05.83.43.96.48.7.26,2.77.39,3.6.24.07-.01.34-.41.72-.24l.12-.72c.76-.16.44.46.48.96.59-.04,1.22.06,1.8,0,3.16-.31,6.78-.66,10.07-.48.96.05,2.86.12,3.6.24.34.06,2.89.1,3,0,.03-.03-.01-.58.36-.72l-.12.72h1.8l-.12-.48.48.48c.75-.04,1.53.06,2.28,0,.09,0,.16-.23.24-.24,1.42-.09,2.89.07,4.32,0l.12-.48c.43-.1.17.42.24.48.1.09,1.13-.44,1.56-.24l.12-.48.24.48c.43-.18.77.23.84.24.98.14,2.22-.1,3.24,0l.12-.48c.86.5,4.61.2,6,.24,2.83.09,6.28.39,9.11.48.74.02,5.21.19,5.4,0,.05-.05-.04-.42,0-.6.02-.09.21-.14.24-.24.07-.25-.42-.64-.24-1.08l.48-.24c.4-.07.26.58.24.84-.04.49-.1.83-.24,1.32,1.28-.22,3.55.29,4.68,0,.32-.08.43-.65.36-.96l.24.72h4.32c-.09-.5.41-.72.72-1.08l-.72-1.44c-.13-.59.18-.75.24-.96.25-.86.48-1.64.72-2.4,1.73-5.57,2.31-10.95,2.64-17.02.15-2.83.16-5.95.72-8.63.5-2.37-.94-5.32.24-7.67l-.48-.48c.37-.36.48-1,.72-1.44.09-.16.45-.36.48-.48.17-.62-.28-1.28-.24-1.44.03-.12.37-.21.24-.6l.96-.24c-.14-.37.43-.86.48-1.08.22-1.03-.16-2.71,0-3.83.02-.17.39-.95.48-1.2.17-.47.29-.9.72-1.2l-1.2-1.2c-.42-1.36-.61-2.59-.48-4.07,0-.09.23-.15.24-.24.21-1.69.27-2.97.72-4.55.16-.57.22-.88.48-1.44.47-1.02,1.75-1.84,2.52-2.76l1.8-.72c.2-.2-.37-2.26.36-2.64l-.12,2.28c.28.37.41.75.84,1.08.16.12.74.37.96.48.5.26.96.53,1.44.72.4.16.9.19,1.2.48.24-.19.11-.76.12-1.08.01-.49-.17-.69.48-.6-.35.44-.4,1.77.12,1.92.22.06.78-.06.84,0,.05.05-.05.42,0,.6.38,1.4,1.19,2.85,1.68,4.31.25.75.62,1.48.48,2.4-.16,1.1-.11,2.03-.24,3.12-.04.33-.17.35-.24.6.38-.13.51.22.6.24,1.2.2,2.45-.47,3.6-.48l1.2-.72.12.48c-.38-.13-.82.41-1.08.48-.32.09-.68.17-.96.24-.8.21-2.22.4-3.12.24-.09-.02-.14-.22-.24-.24-.31-.08-.94-.14-1.2-.24-.09-.04-.14-.19-.24-.24-.07-.03-.19.03-.24,0-.32-.19-1.11-.99-1.08-1.44.77.45,1.18,1.4,2.16,1.44.05-.91-.07-1.85,0-2.76,0-.09.23-.15.24-.24.04-.47.08-1.49,0-1.92-.03-.19-.36-1.03-.48-1.44-.04-.13-.39-.32-.48-.48-.28-.55-.81-1.83-.96-2.4-.08-.28.12-.95-.36-1.08-.2-.06-.52.06-.72,0-.11-.03-.58-.43-.72-.48-1.18-.45-2.19-.8-3.36-1.44-.3-.16-.38-.65-.96-.48-.09.03-.14.2-.24.24-.16.06-.62.17-.72.24-.23.16-.79.58-.96.72-.22.18-1.53,1.68-1.56,1.8-.05.16.06.36,0,.48-.07.16-.45.61-.48.72-.24.86-.13,1.72-.24,2.64-.01.09-.23.15-.24.24-.13.88-.09,2.03-.24,2.88-.01.07-.38.25-.24.72.03.1.22.15.24.24.12.52.05,1.27.48,1.68.09.63.86,1.03,1.44,1.08.22.79-.61,1.03-.96,1.56-.52.79-.34,1.37-.48,2.16-.01.07-.38.25-.24.72.03.1.22.15.24.24.06.33.07,2.13,0,2.4-.05.19-.9.84-.72,1.32l-.96.24c-.06.61.42,1.14.24,1.8-.05.18-1.1.95-.96,1.44.12.44.86.25,1.08.6,2.32,1.09,4.65,1.94,7.2,2.4,1.11.2,2.44.61,3.36.72.79.1,1.71-.07,2.52,0-.04-.35.05-.75,0-1.08-.01-.09-.23-.15-.24-.24-.09-.84-.02-2.17.24-2.88.74-2,.78-3.39.96-5.51.05-.54.08-1.66,0-2.16-.02-.09-.37-.22-.24-.6-.59.04-1.22-.06-1.8,0-.09,0-.15.23-.24.24-.32.04-1.16.06-1.44,0-.09-.02-.14-.2-.24-.24-.16-.07-.61-.17-.72-.24-.37-.24-.41-.82-.84-1.08l-.96-2.28.72.84c-.02.09-.03.18,0,.24.31.57.66,1.2.96,1.68.09.14.74.58.84.6.42.09,3.42.09,3.84,0,.21-.05.97-.66,1.2-.72.37-.1,1.01-.13,1.44-.24,1.64-.41,2.8-.71,4.56-.24.1.03.16.24.24.24.05,0,.41-.42.84-.24l.24-1.44.48.36v.24c-.36.2-.17.48-.24.72s-.9.63-1.2.6c-.03.35.05.75,0,1.08-.01.09-.22.15-.24.24-.91,4.73-1.56,9.39-2.4,14.14-.02.09-.37.21-.24.6h-.72c.04-.51-.06-1.06,0-1.56.01-.09.23-.15.24-.24.71-4.71,1.59-9.25,2.4-13.9.05-.31.15-.36.24-.6-.55-.1-.95-.35-1.56-.24-1.36.25-2.56.55-3.84.96-.14.05-.33-.04-.48,0-.34.1-.44.74-.36,1.08.37,1.58.06,5.88-.48,7.43-.63,1.81-.36,1.62-.24,3.36.15,2.13-.07,4.2.24,6.23.42,2.77.54,8.58.24,11.5,0,.09-.23.15-.24.24-.1.67-.05,1.51-.24,2.16s-.66,1.27-.96,1.92c-.06.13.06.34,0,.48-.41.94-1.78,2.27-2.4,3.36-.13.23-.18.75-.48.96v.48c.13.18.41.56.48.72.34.84.49,1.81.96,2.64.17.31.58.6.72.96v.24c-.39.34-.04.75-.72.6-.32.32,1.01,1.24,1.2,1.56.03.05-.03.17,0,.24.15.33.52.56,0,.96.13.08.26.33.36.36.33.09,1.71.04,2.16,0,.09,0,.15-.23.24-.24.53-.06,1.13.04,1.68,0l.6.84v.48c-.16.11-.61.95-.48,1.08.67-.04,1.38.06,2.04,0,3.73-.33,7.59-.06,11.27,0,4.04.06,8.08-.05,12.11,0l.24-1.2v1.2c.97-.08,2.05.22,2.88-.24v.48c1.63.04,3.28-.06,4.92,0,6.77.25,13.9.33,20.63.72,1.21.07,2.36-.19,3.36-.24,2.19-.11,4.41.08,6.6,0v-.36l.48-.6v.96c1.07-.04,2.16.05,3.24,0,.11,0,.13-.39.6,0,.16-.18-.83-1.39.24-1.2v1.2c.91.04,1.85-.06,2.76,0,2.36.15,5.08.61,7.44.72,5.91.27,11.85-.19,17.51-.48.96-.05,2.85.19,3.6,0,.32-.08.43-.65.36-.96l.24.96h4.92c.13-.04.53-.68.6-.84.17-.38.38-1.23.48-1.68l.72-1.08c.18.57-.36.96-.48,1.32-.1.28-.14.92-.24,1.2s-.57.66-.48,1.08c.17.16,1.78-.27,2.04.24l.12-.72c.49-.11-.02,1.01.6.72.37-.17.41-.6.36-.96l.24.96h.96v-.96l-.48-.24.72-.12v-1.32l.24,1.44h1.92c.05.42-.54.23-.84.24-.36.02-.72-.01-1.08,0v.96c2.9-.1,5.85.13,8.76,0,.08,0,.16-.24.24-.24,1.11-.06,2.24.04,3.36,0l.12-.48.36.48.84-.24v-.48h.24v.48c.64-.07,1.43.1,2.04,0,2.44-.41,7.06.14,10.07,0s6.35-.79,9.35-.96c5.12-.29,10.24.49,14.87,1.44.24.05.57-.03.84,0-.19-.42.23-.76.24-.84.15-1.07.02-2.66-.24-3.59-.34-1.19-.81-2.26-1.2-3.36-.13-.36-.31-.67-.24-1.08l.72,1.08c.18,1.13.98,2.19.96,3.36l.48.84v-3.83h.24v6.23l-.48-1.2v2.4c.39-.13.47.2.6.24.22.07.78.2.96.24.25.05.57-.03.84,0v-10.31c.42-.06.23.55.24.84.02,1.24-.02,2.48,0,3.71l.24-.96.48.6v.24c-.4.31-.38.84-.48,1.2-.03.1-.22.15-.24.24-.08.46-.1,3.96,0,4.31.12.45,1.28.54,1.56.12.45.74,1.03.37,1.68.48.09.02.21.37.6.24v.72c-.58-.04-1.23.06-1.8,0-.32-.04-1.34-.31-1.68-.48-.48-.23-.38.47-.36.72l-.24-.72c-.27-.03-.59.05-.84,0-6.04-1.2-11.72-2.12-18.23-1.68-3.51.24-7.1.6-10.55.72-2.43.08-9.02-.49-10.79,0-.12.03-.32.38-.48.48-4.97-.32-10.27.14-15.35-.24-.5-.04-2.03-.1-2.4,0-.44.12-.33.73-.36,1.08-.03.3.19.89-.24.84v-1.92c-3.31.07-6.64-.1-9.95,0-5.3.15-10.77.74-16.31.48-2.43-.11-5.23-.59-7.68-.72-1.15-.06-2.33.04-3.48,0l-.24.48-.12-.48c-6.55-.06-13.11.08-19.67,0-4.49-.06-9.66-.31-14.15-.48-6.42-.24-13.1-.39-19.67-.48-4.81-.06-9.76.13-14.39.24-3.62.09-6.95-.19-10.31-.48-.66-.06-1.37.04-2.04,0,.03.39.05,1.08-.36,1.2-.15.04-.34-.05-.48,0-.1.03-.15.22-.24.24-.22.04-.74.04-.96,0-.7-.13-1.17-.15-1.92-.24-1.4-.17-3.11-.6-4.56-.72-.62-.05-1.68.13-2.16,0-.13-.04-.35-.44-.48-.48-.29-.08-3.5-.08-3.84,0-.79.18-1.42-.11-2.4,0-8.37.9-17.96-1.05-26.39,0-.68.09-1.5.07-1.92,0-.68-.11-1.57.08-2.28,0v1.44c-.42.05-.23-.54-.24-.84,0-.2,0-.4,0-.6-.75.04-1.53-.06-2.28,0-.09,0-.16.23-.24.24-1.92.12-3.95-.09-5.88,0v1.68c-.42.05-.23-.54-.24-.84-.01-.28,0-.56,0-.84-1.87-.04-3.76.06-5.64,0-4.07-.13-7.94-.08-11.99.24-.71.06-1.45-.04-2.16,0l-.12.48-.24-.48h-.96c.07.25.2.27.24.6.05.44-.09,1.31-.24,1.68-.04.09-.19.14-.24.24-.06.12-.08.52-.36.6-.22.06-1.4.05-1.68,0-.09-.02-.14-.22-.24-.24-1.28-.32-2.92-.84-4.08-.96-1.03-.11-2.19.08-3.24,0,.11.39-.13.41-.24.6-.04.06.03.18,0,.24-.07.11-.78.82-.84.84-.15.04-.34-.05-.48,0-.1.03-.14.21-.24.24-.44.14-.74-.36-1.2-.24-.1-.04-.14-.2-.24-.24-1.74-.69-3.49-1.56-5.28-2.16-1.62-.54-2.92-.57-4.8-.48-2.91.15-6.05.43-8.88.24-2.38-.16-4.92.12-7.32,0,.16.33.76.84.48,1.2-.05.06-.71-.21-.48.48l.48-.12v.6l.72.36-1.08.6h-.24c-.29-.41-.88-.37-1.2-.48-1.2-.42-5.48-2.29-6.24-2.16-.87.15-2.54.02-3.6-.24-.1-.02-.15-.22-.24-.24-.73-.13-1.74.09-2.52,0,.34.38.16.73.24,1.08.04.15.55.32,0,.72l.24.24c.12.21-.54.84-.6.84h-3.6c-.07,0-.13-.2-.24-.24-.17-.07-.59-.16-.72-.24-.28-.16-1.97-1.55-2.04-1.8-.05-.17.05-.55,0-.6-.18-.18-4.45-.02-5.16,0-.08,0-.16.24-.24.24-6.7.22-13.11.57-19.67.96-.99.06-2.01-.04-3,0-.08.07.46.74.48.84.17.78-.56,1.4-.72,2.16-.28.18-.88,1.02-1.08,1.08s-.5-.04-.72,0c-.09.02-.16.33-.48.24-.1-.03-.15-.22-.24-.24-.71-.16-1.86.11-2.64,0-.68-.1-1.72-.68-2.4-.96-1.4.43-2.79.64-4.32.48-.09,0-.15-.23-.24-.24-.37-.05-.89.08-1.2,0-.47-.13-1-1.4-.84-1.92.89-.15.6,1.07,1.08,1.2.2.06.51-.05.72,0,1.35.31,2.72.39,4.08,0,.1-.03.15-.22.24-.24.88-.21,1.6.82,2.52.72v-.96c-.4.13-.46-.19-.6-.24s-.33.04-.48,0c-.1-.03-.15-.22-.24-.24-.8-.19-1.42.7-2.28.48v-.72c-.1-.12-.28.22-.36.24-.51.1-2.31.07-2.88,0-.09-.01-.15-.22-.24-.24-.29-.05-.68.06-.96,0-.09-.02-.14-.19-.24-.24-.21-.1-.75-.28-.84-.6-.08-.27-.03-1-.6-.84-.1.03-.15.22-.24.24-.71.16-2.04-.06-2.88,0-2.25.15-4.74.8-6.96.96-.71.05-1.97.09-2.64,0-.24-.03-.54-.15-.6-.36-.04-.12-.08-.6.12-.6.51-.06.85.38,1.44.24.82-.2,1.81-.32,2.64-.48.25-.05.57.03.84,0v-.96l.24.96,1.2-.24v-3.83h-.48c-.39-.83-.04-2.25-.24-3-.04-.13-.44-.35-.48-.48-.05-.19.45-.88.24-1.32.47-.02.18.75.24,1.08.03.16.46,1.06.48,1.2.06.4-.04.9,0,1.32l.48-.24c.11.13-.09,2.04,0,2.52.01.07.38.25.24.72-.03.1-.22.15-.24.24-.09.53.07,1.24,0,1.8.43-.04.91.06,1.32,0,.09-.01.15-.23.24-.24.68-.07,1.86.15,2.4,0,.1-.03.23-.28.36-.36l-.24-.48c.39-.25.09-.71.48-.96v-.24c-.53-.66-1.69-1.24-1.44-2.16.1-.38,1.19-.74,1.44-1.2v-.24c-.37-.19-.16-.53-.24-.72-.45-1.11-1.51-2.25-1.92-3.36-.35-.95-.31-2.92-.24-4.07.08-1.37.64-3.09.48-4.55-.57-5.27-.16-10.74.48-15.82.01-.09.23-.15.24-.24.3-3.26-.64-6.21-.48-9.59.14-3.07.09-6.91.72-9.83.21-.98.86-.55.48-2.16-.36-1.52-.2-2.73-.72-4.31-.39-1.2-.39-2.21-.72-3.36-.28-.98-.85-2.22-.96-3.12-.2-1.63-.25-3.32-.24-5.03l.48-.6c-.04.43.06.91,0,1.32-.19,1.44-.04,4.59.48,5.99.1.27.67.99.72,1.2.25,1.13.05,1.79.48,3.12.54,1.65.47,2.6.72,4.31.01.08.43.42.24.84l2.4-2.64c-.7-.16-1.46-.63-1.92-1.32-.04-.05.04-.18,0-.24-.39-.64-.7-1.26-.96-1.92-.04-.1-.21-.15-.24-.24-.2-.67.64-.91.72-1.2.06-.22.04-1.16,0-1.44-.01-.09-.22-.15-.24-.24-.37-1.87-.72-3.59-1.2-5.51-.02-.1-.22-.15-.24-.24-.07-.4.09-1.95,0-2.04-.65.06-1.41-.09-2.04,0-.1.01-.4.39-.96.24-.35-.1-.44-.75-.36-1.08.02-.09.21-.14.24-.24.71-2.45,1.32-4.63,1.92-6.95.11-.43.14-1.06.24-1.44.08-.28,1.03-1.94,1.2-2.16.72-.96,2.79-2.33,3.96-2.76.3-.11.93-.42,1.2-.48.39-.09.78.17,1.08-.36-.55-.59.05-1.59-.48-2.28.05-.04.23.05.36,0,.76-.31.76-.22,1.2-.96.99.18,1.69-.36,2.64-.48l1.32.72c.03-.27-.05-.59,0-.84.12-.62.12-1.5.24-1.92.05-.17.67-.55.72-.72.07-.26-.06-.68,0-.96.02-.08.49-.81.6-.84.94-.26,1.61.78,2.28,1.2.05-.35-.16-.48-.24-.84-.21-.96.14-1.68,0-2.64-.07-.46-.62-1.31-.48-1.92.04-.15.4-.39.24-.96-.02-.06-.78-.82-.84-.84-.29-.08-.96-.14-1.2-.24-.3-.12-.94-.65-1.2-.72-.2-.05-.5.05-.72,0-.09-.02-.15-.23-.24-.24-.89-.13-2.85-.04-3.6.24-.15.06-.54.37-.72.48-.06.04-.19-.03-.24,0-.1.06-.59.55-.6.6-.04.15.05.34,0,.48-.03.1-.22.15-.24.24-.09.5.09,1.18,0,1.68-.1.56-.86,1.59-.96,2.16-.16.92.02,3,.24,3.83.05.2.65.38.48.84-.07.07-.69-.5-.72-.6-.07-.25-.23-.66-.24-.72-.06-.28.05-.67,0-.96-.02-.09-.23-.15-.24-.24-.05-.36-.05-1.08,0-1.44.02-.16.41-.97.48-1.2.19-.59.65-1.71.72-2.16s-.09-1.03,0-1.44c.04-.17.56-.68.48-.96.22-.13.99-.81,1.08-.84.15-.04.34.05.48,0,.1-.03.15-.22.24-.24.92-.16,3.79-.04,4.56.24.32.12.95.65,1.2.72.34.09.78,0,1.2.24.11.07.82.78.84.84.22.76,0,.98.6,1.32.27.15.55.64.84.84l.24,1.32-.48-.84c.11-.31-.99-1.32-1.2-1.08l.24,1.8c.19.78.08,1.42.24,2.4.05.33-.04.73,0,1.08-1,.14-1.3-1.12-2.28-1.2l-.6.84.48.72-.24.24.48.84-.84-.72c-.94.59-.47,1.39-.6,2.28-.01.09-.22.14-.24.24-.06.27.06,1.28-.6,1.08-.16-.05-.49-.58-.72-.72-.06-.04-.36.03-.48-.24-.58.73-1.55.31-2.16.48-.07.02-1.06,1-1.08,1.08-.14.51.1,1.45,0,2.04.13.14,1.34-.53,1.56-.72.58.08,1.39-.11,1.92,0,.28.06.74.59.96.72.1.06,1.13.47,1.2.48.46.08,1.07-.06,1.56,0-.76-1.39.19-2.33,1.2-3.24l-.48-1.32c.83-.16.21.56.84.96.05.03.16-.03.24,0,.1.05.15.22.24.24.3.07.74-.05,1.08,0-.19-1.29.26-3.25,0-4.43-.04-.2-.51-.78-.72-.96v-.48l.72-1.08c.09.58-.38.96-.24,1.56.02.09.46.64.48.72.21.97.04,2.23.24,3.12.09.4-.06,1,0,1.44l-.84.6c-.22.06-.62-.4-1.2-.24-.09.02-1.23,1.18-1.32,1.32-.03.05-.23.45-.24.48-.06.24.04.57,0,.84.05.05.69-.17.48.36-.06.15-.36.2-.24.6.06.07.41-.37.84-.24s.3.62.36.84c.12.41.96.68,1.32.84.83.38,1.81.63,2.64.96.43.17,1.02.53,1.44.72.32.15.58.22.84.6l-.24.24c0,.37,1.2.46,1.56.36.16-.04,1.36-1.4,1.68-1.68.27-.24.4-.57.84-.48-.33.39-2.01,2.32-2.28,2.4-.25.07-1.61.05-1.92,0-.09-.02-.16-.24-.24-.24-.05,0-.74.45-.84.6-.68,1.07-1.3,2.46-1.68,3.59-.07.22.04.53-.24.84.44-.18.7.2.84.24.51.14,1.75.43,2.16.48.77.1,2.58.1,3.36,0,.09-.01.15-.22.24-.24.29-.05.68.06.96,0,.09-.02.14-.21.24-.24.14-.05.33.04.48,0,.13-.04.51-.56.72-.72,2.15-1.65,3.83-3.67,5.4-5.87l.48-.96h.48c-.36.64-.81,1.12-1.2,1.68-1.53,2.16-2.6,3.45-4.68,5.15-.24.2-.81.92-.96.96-.33.1-.85.15-1.2.24-.1.02-.15.22-.24.24-.63.11-1.57-.13-2.16,0-.88.2-2.52-.03-3.6-.24-.8-.16-1.15-.37-1.92-.24-.83.14-1.47-.2-1.92-.24-.68-.06-1.54.11-2.16,0-.09-.02-.14-.21-.24-.24-.14-.05-.33.04-.48,0-.43-.12-.3-.7-.36-.84-.08-.17-.42-.57-.48-.72-.1-.28-.45-1.48-.48-1.68-.08-.58-.1-2.56,0-3.12.02-.09.21-.14.24-.24.12-.42.23-1.06.48-1.44.19-.29.61-.55.84-.84.24-.12-.18-.46-.24-.48-.32-.09-.85.07-1.2,0-.3-.06-1.19-.69-1.44-.96l-1.2-.24c-.4.37-1.06.27-1.44.72-.67-.48-.88.36-1.44.48-.5.11-1.16.05-1.68.24-.61.23-2.13,1.27-2.64,1.68-.54.43-.76.86-1.08,1.32-.3.42-.78.95-.96,1.44-.05.14.05.33,0,.48-.86,2.58-1.26,5.34-2.16,7.91-.05.14-.37.2-.24.6.38.13.51-.22.6-.24.87-.15,1.5.11,2.16.24.25.05.57-.03.84,0,.18.43-.23.77-.24.84-.12.82.08,1.3.24,1.92.45,1.81.83,3.67,1.2,5.51.02.09.23.15.24.24.13.88,0,1.81-.72,2.4v.24c.67,1.09,1.06,2.16,2.04,3h.24c.22-.41.64-.15.96-.24.11-.03.58-.43.72-.48.43-.16,2.7-.56,3.12-.48.09.02.15.23.24.24,3.01.44,5.86,1.04,8.88,1.44l1.32.72c-.04-.43.06-.91,0-1.32-.15-1.13-.41-2.5-.72-3.59-.13-.44-1.53-1.75-.72-2.4v-10.31l.24-.48.96-.84c.2.55-.4,1.01-.48,1.32-.25.92-.32,2.31-.24,3.36.17,2.22.28,4.22,0,6.47-.18,1.42.14,1.43.72,2.4.31.51.89,3.37.96,4.07.04.39.08,1.62,0,1.92-.02.06-.36.48-.48.24-.37-.1-.78-.49-1.08-.6-2.17-.83-5.57-.99-7.92-1.44-.25-.05-1.22-.45-1.44-.48-.38-.05-1.06-.05-1.44,0-.09.01-.15.22-.24.24-.29.05-.68-.06-.96,0-.23.05-1.11.64-1.44.72-.38.09-.93-.21-.84.24.35.08.68-.13.96.36-.84.66-1.99,1.53-2.64,2.4-.04.05.04.18,0,.24-.25.36-.84,1.01-.96,1.44-.05.2.05.5,0,.72-.02.09-.23.15-.24.24-.06.37.06.83,0,1.2-.33,2.16-.16,4.41-.24,6.71s-.3,4.37,0,6.71c.41,3.21-.22,4.37-.48,7.19-.51,5.57-.19,11.3-.48,17.02-.07,1.49-.19,3.4.48,4.55.44,1.28,1.57,2.18,1.68,3.59l.24.24c.02.08-.19.64-.24.72-.3.49-1.33.73-1.2,1.2.06.21,1,.87,1.2,1.2.04.07-.03.36.24.48l-.48,1.32c.42-.19.76.23.84.24,1.83.26,3.75-.27,5.52-.24l.72-.96c.12.31.58.22.6.24.03.03-.03.61.36.72.72.2,1.37-.03,1.8-.6.04-.05-.04-.19,0-.24.34-.43.75-.71.96-1.2-.5-.34-.59-.84-.48-1.44.2-1.1.5-2.31.72-3.36.72-3.47-.52-7.22-.24-11.02,0-.09.23-.15.24-.24.06-.59-.11-1.4,0-1.92.14-.62,1.37-2.54,1.68-3.36,1.83-4.85,3.12-9.94,4.32-14.86.44-1.82,1.15-4.72.96-6.71-.22-2.35-.37-4.86-.72-7.19-.08-.54-.42-1.64-.48-2.16s.04-1.05,0-1.56h.72c.05.74-.07,1.54,0,2.28.14,1.47.51,3.17.72,4.79.51,4,.31,8.31-.72,11.98-1.25,4.49-2.51,9.58-4.32,14.14-.27.67-1.32,2.09-1.44,2.64-.07.34.06.83,0,1.2-.01.09-.23.15-.24.24-.15,1.45-.11,4.03,0,5.51.14,1.89.54,3.01.24,5.03-.23,1.55-.47,3.04-.72,4.55-.05.33.04.73,0,1.08l.96-.24.36.96c.17-.21.45-.39.6-.6.03-.04-.06-.28.24-.48.7-.46,1.2-.55,1.2.48,0,.77-.56,1.26-.96,1.92.43.7.78.47,1.32.6.1.02.15.23.24.24,1.67.24,4.9.06,6.72,0s4.42-.17,6.24-.48c.69-.12,1.66.08,2.64,0,3.46-.29,7.28-.56,10.79-.72,1.31-.06,2.64.04,3.96,0,.04-.35-.05-.75,0-1.08.02-.09.24-.16.24-.24s-.22-.15-.24-.24c-.18-1.05,1.26-2.84,1.44-3.83.56-3.12,0-6.57.24-9.83.08-1.14.54-2.52.72-3.59.51-3.05.02-6.52.48-9.59.17-1.16.41-3.13.24-4.31-.01-.09-.22-.15-.24-.24-.04-.22.06-.52,0-.72-.36-1.28-1.55-2.79-1.92-4.07-.33-1.16-.16-2.35-.24-3.59,0-.08-.23-.15-.24-.24-.08-1.14-.04-1.79-.24-2.88-.13-.72.32-1.76.48-2.4.09-.36.15-.85.24-1.2.03-.1.24-.16.24-.24-.15-.38-.69-.33-.72-.36-.04-.04-.04-.91,0-1.08.03-.12.59-.96.72-1.2.38-.7.9-1.3.72-2.16-.26-.25-.9-1.14-.96-1.44-.06-.28.05-.66,0-.96-.02-.09-.23-.15-.24-.24-.07-.6-.06-1.78,0-2.4.14-1.34.71-2.98.96-4.31.07-.37.22-1.02.24-1.2.17-1.36-.23-2.8.24-4.07.56-1.51,2.13-3.37,3.48-4.19.83-.51,1.74-.91,2.64-1.2.27-.09.53.1.36-.48,1.17.1,2.27-.45,3.48-.24.09.02.14.21.24.24.14.05.33-.04.48,0s.76.8,1.2.72l.72.96h.48c.27-.08.88-.7.96-.72.33-.09,1.46.1,1.56,0,.04-.34-.06-.76,0-1.08.03-.14.17-.72.24-.96.06-.2.46-.33.48-.36-.02.03-.23.56-.24.6-.14.78.23,1.65-.6,2.28-.45.13-.75-.37-1.2-.24-.25.07-.9.99-1.56.72-.12.1.38.46.48.6.04.06-.04.19,0,.24,1.28,1.67,2.53.65,3.12-.96.31-.14.11-.81.6-.6.59.25,0,.68.12,1.08-.37.33-1.37,1.92-1.8,2.04-.17.05-1.01.04-1.2,0-.09-.02-.14-.19-.24-.24-.07-.03-.19.03-.24,0-.18-.11-.67-.64-.84-.84-.27-.33-.69-1.08-.96-1.44-.56-.73-.7-.45-1.32-.6-.09-.02-.15-.22-.24-.24-.64-.15-1.43-.2-1.92.24l-1.2-.48-.84.24.6.48c.29-.02,1.51,1.16,1.56,1.32.04.15-.05.34,0,.48.03.1.22.15.24.24.08.43-.06.99,0,1.44.01.09.23.15.24.24.09.87-.13,1.3-.24,1.92-.24,1.36-.25,3.96-.96,5.03-.5.76-1.61,1.43-1.68,2.52.39-.13.46.19.6.24s.68.23.72.24c.8.14,1.91-.1,2.76,0-.13-.4.19-.46.24-.6.08-.23.14-.45.24-.72.05-.13-.04-.33,0-.48.1-.35,1.15-.69,1.56-.6.13.03.83.45.96.48.86.2.96-.41,1.2-.48.15-.04.33.04.48,0,.24-.07.71-1.09.84-1.32.92-1.61,1.77-3.24,2.64-4.79.13-.23.31-.51.48-.72v-.24c-.13-.21-.67-.56-.72-.72-.2-.68-.27-1.49-.48-2.16-.04-.12-.32-.16-.24-.48.05-.2.46-.44.72-.36-.18.44.2.7.24.84.1.38.11,1.02.24,1.44.28.07.12.82.6.6.76-.36,1.05-2.23,1.8-2.76.2-.85,1.01-1.61.96-2.52-.39.11-.41-.13-.6-.24-.96-.55-2.07-1.09-3.12-1.68-.16-.09-.31-.36-.48-.48-.32.14-.31.53-.36.6-.22.31-.87.7-.96.84.04-.07-.07-.26,0-.36.3-.42.83-.71.96-1.32-.39.11-.41-.13-.6-.24-2.9-1.66-5.86-3.39-8.88-5.03-.3-.16-.38-.65-.96-.48-.1.03-.15.22-.24.24-.13.03-.27-.03-.36,0,.11-.19.3-.4.24-.6-.14-.32-.53-.31-.6-.36-1.05-.74-2.24-1.48-3.6-1.68-.41-.33-1.04-.41-.84-1.08.03-.09.2-.14.24-.24.34-.83.58-1.55.96-2.4,2.52-5.61,6.25-10.89,9.83-15.82,3.04-4.18,6.69-8.07,9.83-12.22.11-.15.46-.52.6-.6.05-.03.17.03.24,0,.1-.05.15-.22.24-.24.69-.16.97.27,1.44.48,5.55,2.55,10.91,4.58,16.07,8.15.48.14.68-.32.96-.24.41.11.3.62.36.84.16.58,6.47,3.37,7.56,3.95,2.93,1.57,5.67,3.8,8.64,5.03.17.07.69.08.96.24.61.36.75,1.13.6,1.8-.02.09-.19.14-.24.24-.3.67-.81,1.54-1.2,2.16-.92,1.47-1.96,2.61-2.88,4.07-.18.61.42.76.48.96.11.41-.07,1.18,0,1.68.01.09.21.14.24.24.14.5.01.72-.48.6.04.62-.21,1.31.36,1.68.06.04.18-.04.24,0,.15.1.56.71.6.84.13.45-.57.72-.96.6v.48h-.24v-.72h.6c.2,0,.16-.48.12-.6-.09-.31-.88-.41-.96-.72-.05-.2.04-.5,0-.72-.02-.09-.21-.14-.24-.24-.08-.3.36-.44.24-.84h.48l-.24-.72c-.1-.12-.28.22-.36.24-.57.11-1.08-.12-1.68.24-.21.12-1.15,1.08-1.32,1.32-.54.74-.3,1.04-.48,1.68-.06.21-.66.39-.48.84-.97-.13-.59.12-.72.36-.77,1.38-2.04,3.07-2.88,4.31-.25.38-.66.84-.96,1.2,0,.25,1.69.94,2.04,1.08.1.04.15.22.24.24.2.04.75.04.96,0,.09-.02.14-.21.24-.24.15-.04.35.05.48,0,.25-.09.64-.53.96-.48l1.56-2.04-1.2-.84c.4-.12.84.41,1.08.48.2.05.51-.05.72,0,.15.04.39.4.96.24.28-.08.3-.48.36-.6.05-.1.22-.15.24-.24.06-.2-.06-.52,0-.72.03-.11.46-.63.48-.72.11-.5-.08-1.25,0-1.8ZM113.54,89.87s-.06-.25,0-.36c.12-.21.52-.67.72-.96.7-1.01,1.48-1.93,2.16-2.88,6.2-8.62,11.74-17.84,17.99-26.36.03-.47.62-.95.48-1.44-.04-.13-.67-.53-.84-.6-3.7-1.63-6.95-3.89-10.55-5.75-2.23-1.15-4.41-3.03-6.72-3.83-.99-.34-1.08-.47-1.92-.96-4.65-2.73-9.57-4.99-14.39-6.95-.16-.07-.54-.35-.72-.48h-.24c-.49.54-1.08,1.01-1.56,1.56-7.35,8.46-14.21,17.67-19.19,27.8.12.46-.37.75-.24,1.2.12.42.66.29.84.36.93.34,2.15,1.1,3.12,1.68,8.81,5.21,17.77,10.44,26.63,15.58,1.11.64,2.23,1.3,3.36,1.92.2.11.73.83,1.08.48ZM131.53,67.35l.24-1.08-.72-.84c-.04.55-.56,1.03-.84,1.44-.17.24-.47.29-.36.72l1.68-.24ZM46.85,74.06c-.42.08-.79-.36-1.08-.48-1.33-.56-3.05-.87-4.32-1.68-.3-.19-.68-.61-.6-.96-.06-.07-.69.42-.84.48-.13.05-.32-.04-.36,0-.04.04.06.25,0,.36-.19.34-.87,1.04-.96,1.44-.06.28.05.67,0,.96-.02.09-.22.15-.24.24-.14.6.23.86.24.96.15,1.05.09,1.87.48,2.88.12.31.58.68.48,1.08.75.04,1.54-.06,2.28,0,.09,0,.15.23.24.24.35.04,1.41.07,1.68,0,.12-.03.54-.69.6-.84.5-1.25.84-3.66,2.28-4.19.24-.09.11-.29.12-.48ZM159.83,75.73c.13-.39-.2-.47-.24-.6-.14-.47.23-.65.24-.72.04-.21,0-.48,0-.72,0-.27.15-.66-.24-.6-.11.98-1.49,1.41-1.68,2.28l-.96.72c.36.53.8.61,1.32.84.1.04.15.21.24.24.13.05.33-.04.48,0,.2.06.37.38.96.24.18-.3,1.5-.53,1.32-1.08-.15-.45-.85-.24-1.08-.6h-.36ZM121.69,93.23c.58-.05,1.23.07,1.8,0,1.22-.15,4.61-1.02,5.76-1.68.33-.19.88-.78,1.2-.96,1.54-.86,3.1-1.52,4.56-2.4.29-.17.61-.34.84-.6l-1.2-2.16c-1.08-2.33-2.71-4.26-4.68-5.87-.34-.28-.62-.67-.96-.96-1.1.07-1.94,1.19-3.12.96-.31.46-.32.03-.48,0-.23-.04-.52.05-.72,0-.12-.03-1.26-.62-1.44-.72-.28-.16-.37-.62-.84-.48.11.52-.46.71-.72,1.08-.86,1.24-1.76,2.83-2.64,4.07-.61.86-4.32,5.56-4.32,5.99,0,.08.22.15.24.24.11.63-.42,1.63-.48,2.16-.07.56.05,1.22,0,1.8.23.26,1.42-.92,1.56-.96.38-.11,1.56-.31,1.92-.24.09.02.15.23.24.24.93.11,1.62-.03,2.4-.24.18-.05.55.05.6,0,.06-.06-.04-1.02,0-1.32.01-.09.23-.15.24-.24.1-1.07.08-3.2-.24-4.07-.05-.14-.44-.6-.48-.72-.07-.22-.07-.81.36-.6.45.23.66,1.43,1.08,1.8-.06,1.02.09,2.11,0,3.12,0,.09-.23.15-.24.24-.06.49.04,1.05,0,1.56.05.05.69-.17.48.36-.17.43-.78.2-.72.6ZM86.19,100.66s-.12.26-.6.48c-2.18.99-5.82,2.06-8.4,1.68-.07-.01-.4-.42-.84-.24-.05.41.08.94,0,1.32-.04.18-.75,1.21-.96,1.68-.07.16-.36.2-.24.6h.48v.48c.15.15,3.51-.1,4.2,0,1.14.17,2.11.9,3.6.72.2-.03,1.23-.45,1.44-.48,1.01-.15,2.2.42,3.12.72s2.43.84,3.36.96c.81.1,2.54.12,3-.6-.03-.34.4-.74.48-.96.05-.13.23-.68.24-.72.06-.3.27-1.77.24-1.92-.03-.11-.16-.38-.24-.72-.2-.82-.64-2.07-.72-2.88-.05-.46-.09-1.77,0-2.16.02-.09.19-.14.24-.24.03-.07-.03-.19,0-.24.32-.53,1.36-1.14,1.68-1.68.03-.05.23-.45.24-.48.06-.28-.05-.66,0-.96.02-.09.23-.15.24-.24.05-.38.05-1.06,0-1.44-.01-.09-.23-.15-.24-.24-.06-.37.06-.84,0-1.2s-.64-1.31-.72-1.68c-.06-.27-.18-.98.36-.84l.6,1.08c.48,1.77.67,3.66.24,5.51-.23,1,1.36,3.72,1.92,4.79.83,1.61,1.76,3.45,2.76,5.15.16.28.38.63.36.96-1.2-1.03-1.51-2.66-2.4-3.95-.99-1.86-2.02-3.64-2.64-5.75-.03-.1-.42-.43-.48-.36.12.68-1.33,1.41-1.44,1.8-.09.32-.04,1.72,0,2.16.03.38.3,1.52.48,1.92l.24,1.8.48-.48c.25.61-.42.87-.48,1.08-.11.38-.11.91-.24,1.44-.09.35-.14.86-.24,1.2-.03.09-.71.85-.84,1.08-.31-.06-.81.45-.96.48-.35.08-1.76.06-2.16,0-.86-.13-2.47-.67-3.36-.96-1.03-.33-2.17-.89-3.36-.72-.12.02-1.08.46-1.2.48-.96.14-2.23-.26-3.12-.48-.77-.19-2.3-.6-3.12-.48-.09.01-.15.23-.24.24-.58.09-1.19-.23-1.56.36l-.24,1.2c-.37.69-.59,1.76-.48,2.64.13,1.06.38,2.54.48,3.59s-.03,1.95.24,2.88c.36,1.28,1.55,2.79,1.92,4.07.06.19-.04.5,0,.72.02.09.23.15.24.24.16,1.11-.07,2.98-.24,4.07-.29,1.95-.51,5.15-.24,6.95.23,1.52-.82,4.58-.96,6.23-.32,3.87.56,8-.72,11.5-.22.3-1.1,1.88-.96,2.04.5-.4,1.02-.16,1.56-.24.09-.01.15-.23.24-.24.69-.07,1.46.05,2.16,0l1.56.96c.03-.27-.05-.59,0-.84.04-.19.44-1,.48-1.2.43-2.08,0-4.52.72-6.47.24-.64.92-1.5,1.2-2.16.85-1.98.95-4.12,1.92-5.99,1.12-2.15,2.1-4.84,2.64-7.19.63-2.73.84-5.54,1.2-8.39.27-2.1.33-4.17,0-6.23-.05-.33.04-.73,0-1.08h.72c.04.75-.06,1.53,0,2.28.21,2.74-.19,5.37-.48,8.15-.23,2.21-.47,4.15-.96,6.23-.59,2.51-1.96,5.1-2.88,7.67-.64,1.79-1.07,3.95-1.92,5.75-.25.54-.04.23,0,.48.11.63-.22.85-.24.96-.17,1.15.46,2.13.72,3.12.34,1.29.54,2.58.96,3.83.05.15-.05.35,0,.48.07.18.42.72.6.84.06.04.64.26.72.24.19-.37.53-.16.72-.24.64-.26.91-.5,1.68-.72.09-.03.85-.71,1.08-.84-.1-.81.14-1.87,0-2.64-.02-.09-.22-.14-.24-.24-.95-3.8-.74-7.57-.24-11.5.21-1.67.32-3,.72-4.55.71-2.75,1.76-5.39,3.12-7.91,1.73-3.21,1.92-6.24,2.64-9.83.48-2.39.94-3.9.48-6.47-.02-.09-.22-.15-.24-.24-.08-.41-.19-1.31.48-1.08l.24,1.32c.89,2.04.17,4.17-.24,6.23-.71,3.53-.89,6.95-2.64,10.31-1.49,2.85-2.75,5.6-3.36,8.63-.95,4.75-1.42,10.34-.24,15.1.19.76.43,2,.24,2.88-.02.1-.56.77-.48.84.7-.12.38.18.48.36.31.54,1.8.62,1.68,1.56h1.44l-.48-1.08c.41-.31.2-.86.24-1.32l.24,1.32c.37.25.22.66.24,1.08,1.29-.15,2.97.2,4.2,0,.42-.07,1.24-.09,1.92,0,3.92.49,7.9.06,11.75-.24.75-.06,1.53.04,2.28,0l-.24-.6c.13-.46,1.87-2.63,2.28-2.76.17-.05.55.05.6,0,.06-.06-.04-.81,0-1.08.02-.11.38-.36.24-.96-.47-2-.65-3.74-.48-5.75.23-2.75-.38-6.27,0-8.87.01-.09.21-.14.24-.24.21-.77-.21-.51-.36-.6-.09-.05-.59-.56-.6-.6-.1-.36-.04-1.91,0-2.4,0-.09.23-.15.24-.24.53-5,.7-10.09,1.2-15.1.06-.58-.04-1.21,0-1.8-.44,0-1.31.11-1.44-.36-.09-.32.22-.38.24-.48.34-1.51-.66-2.89-.48-4.55.04-.36.4-.94.24-1.68-.02-.08-.46-.64-.48-.72-.22-.98.63-1.1.72-1.44.05-.18.04-1,0-1.2-.02-.08-.46-.64-.48-.72-.06-.26-.05-1.16,0-1.44.02-.09.21-.14.24-.24.05-.14-.04-.33,0-.48.04-.14.48-.41.6-.6l1.08-.24c.13.74-1.07.83-1.2,1.32-.06.22-.05,1.4,0,1.68.02.08.46.87.48.96.16.87-.03,1.4-.72,1.92v.24c1.01,1.3-.03,2.78.24,4.31.02.08.46.87.48.96.1.58.06,1.53-.24,2.04.34-.04.76.06,1.08,0,.41-.08,1.4-.58,1.92-.72,2.05-.54,8.54-1.98,10.31-1.44.47.14.65-.23.72-.24.52-.09,1.87.24,2.04-.36.06-.2-.06-.51,0-.72.78-2.88,1.5-5.93,2.16-8.87.16-.72-.05-1.64.72-2.16-.47-.26.22-.88.72-.84l-.72-.6.24-.48c-.58-.65-.2-1.49.72-1.32-.1-.7.12-.38.36-.48.1-.04.15-.22.24-.24.24-.05.57.03.84,0v-.72c-.27-.03-.6.05-.84,0-.47-.11-1.7-1.1-2.16-1.2-.29-.06-2.39-.07-2.64,0-.12.03-.32.38-.48.48l-1.56.6c.29-.36.68-.61,1.08-.84.21-.12.68-.47.72-.48.15-.04.34.05.48,0,.1-.03.15-.22.24-.24.38-.07.99-.07,1.2.24.81-.4,1.55.33,2.4.72.07.03.17-.03.24,0,.39.18.74.63,1.32.48l-1.92-1.92c1.18-.12,2.19.42,3,1.2l1.32.48c.23-.23-.64-1.05-.84-1.2-.05-.04-.18.04-.24,0-.39-.28-.77-.78-1.32-.72l.12-.48c.29.29.8.32,1.2.48s.74.64,1.32.48c.09-.07-.26-.41-.36-.48-.57-.41-1.32-.49-1.92-.96l-1.08-.24c.34-.8,1.73-.44,2.52-.48.39-.02.69-.2.36-.48l-1.08-.24h-2.76l1.44-1.56-.36-.36-1.2.48c-3.91,2.44-9.11,5.86-13.67,4.79-.42-.1-2.19.17-3.36,0-.9-.13-1.22.06-1.92.48-.06.04-.19-.03-.24,0-.1.06-.59.56-.6.6-.09.32-.06,2.45,0,2.88.01.09.22.15.24.24.04.22-.06.53,0,.72.03.09.21.14.24.24.05.14-.04.33,0,.48.02.07,1.01,1.06,1.08,1.08.34.09,2.67.07,3.12,0,.09-.01.15-.22.24-.24.79-.17,1.43-.3,2.16-.72.4-.23,1.66-1.36,1.92-1.44.16-.05.36.06.48,0,.31-.14.66-.55,1.08-.48l-.84.72c-1.34.39-2.25,1.53-3.6,1.92-.74.63-1.71.38-2.64.48-.09,0-.15.23-.24.24-.9.13-1.22-.07-1.92-.48-.06-.04-.19.03-.24,0-.29-.19-.55-.61-.84-.84l-.24-1.2c-.55-.37-.04-3.03-.24-3.24-.04-.04-.25.06-.36,0-.57-.32-.47-.69-.6-1.08-.03-.1-.22-.15-.24-.24-.06-.31-.05-1.11,0-1.44.01-.09.18-.68.24-.96.03-.11.37-.21.24-.6l-.6.24-.24-.24-.72.48-1.2-.96c-4.1-2.1-7.77-4.51-11.75-6.71-.17-.09-.78-.72-.96-.72-.26.23-.43.55-.6.84-1.07,1.78-2.1,3.9-3.12,5.75-1.29,2.33-2.6,5.12-4.08,7.19-.14.19-.1.75-.72.6l.72.48c.05.28-.44.43-.48.48l-1.92-.6c.19-.29.79-.04,1.08-.12.12-.03.31-.38.48-.48.24-.14.49.24.36-.72-.66-.06-1.4.08-2.04,0-.09-.01-.15-.22-.24-.24-.39-.07-1.21-.04-1.32.36-.04.15.05.34,0,.48-.03.1-.21.15-.24.24-.06.2.06.52,0,.72-.03.11-.76.58-.84.6-.6.13-1.52-.11-2.16,0-.34.06-.63.12-1.2,0-.9-.18-1.27-.44-2.16-.24-.55.12-1.24-.21-1.8.24l.6-.72h2.28l-.24-.84c.03-.09.2-.14.24-.24.42-1.03.79-1.68,1.68-2.4.43-1.07.31-2.17.48-3.36.01-.09.22-.15.24-.24.19-.97.37-2.29.24-3.36-.01-.09-.22-.15-.24-.24-.05-.29.06-.68,0-.96-.02-.09-.19-.14-.24-.24-.03-.07.03-.19,0-.24-.08-.13-1.01-1.06-1.08-1.08-.15-.04-.34.05-.48,0-.1-.03-.15-.22-.24-.24-.24-.04-.97-.05-1.2,0-.09.02-.14.2-.24.24-.16.06-.62.17-.72.24-.61.4-2.17,2.18-2.52,2.76-.26.44-.83,1.69-.72,2.16.02.1.33.16.24.48-.03.11-.38.25-.24.72.6,1.98-.21,2.53-.72,4.31-.1.36-.55,1.92-.48,2.16.41,1.34.15,2.65.48,4.07.07.3-.12.94.36,1.08.15.04.34-.05.48,0,.1.03.15.22.24.24.76.14,3.5.1,4.32,0,.23-.03,1.16-.41,1.44-.48.84-.2,3.11-.78,3.72-1.2ZM134.64,99.22c.35-.04.49.16.84.24.31.07.8.21.96.24.39.07,1.21.04,1.32-.36.07-.26-.06-.68,0-.96.01-.06.37-.58.48-.72-.12-.47.37-.75.24-1.2s-.86-.25-1.08-.6h-1.8l.96.48-1.32.24-.6.48h1.68c.2.86-.94.36-1.44.48l1.2,1.2-1.44.48ZM135.6,99.7c-1.28-.08-.78-.05-.96.6-.92,3.39-1.49,6.79-2.4,10.31-.02.1-.22.15-.24.24-.1.48.21.98-.36,1.32-1.55.11-3.28-.16-4.8,0-.09,0-.15.23-.24.24-3.12.47-6.16.82-9.11,1.68-.12.04-.21.37-.6.24.39.51.05.42,0,.6-.4,1.48-.17,2.95-.24,4.55-.15,3.29-.62,6.83-.96,10.07-.07.63-.2,1.44-.24,1.92-.07.82.05,1.69,0,2.52.35-.04.75.05,1.08,0,2.54-.41,3.81.71,6,.48.38-.04.91-.37,1.68-.24.09.02.21.37.6.24-.13-.39.2-.47.24-.6,1.29-4.31,2.38-8.87,3.84-13.18.39-1.15.8-2.59,1.2-3.59.09-.23.4-.65.6-.84l.12,1.32c-1.85,4.83-3.28,9.96-4.8,14.86l-.24,1.32c.35.03.75-.05,1.08,0,.22.04,1.24.45,1.44.48.44.05,2.31.09,2.64,0,.04-.01.35-.32.36-.36.17-.61-.06-2.09,0-2.88.22-2.92.92-6.42,1.44-9.35.44-2.48.17-5.27.24-7.91l.24-1.08-.84.72c-.38-.25-.46-.67-.36-1.08.03-.11.16-.43.24-.72,1.04-3.75,2.12-7.48,3.12-11.26.07-.26.13-.37.24-.6ZM167.75,107.37c-.43.04-.91-.06-1.32,0-2.86.38-6.64.93-9.59.24-.23-.05-4.09.16-4.56.24-.09.02-.16.24-.24.24l-.36-.24c-.03.35.05.75,0,1.08-.01.09-.23.15-.24.24-.21,1.91.13,3.62.48,5.27.33,1.57.95,2.79,1.44,4.31.07.23.46,1.03.48,1.2.11.78.05,2.28,0,3.12-.18,3.05-.64,6.54-.96,9.59-.36,3.44-1.08,6.69-1.44,10.07-.16,1.53-.11,2.67,0,4.07.12,1.59-.09,3.31,0,4.91.05.06,1.02-.67,1.32-.48.29-.15,1.34-1.17,1.44-1.2.65-.18,1.44.02,1.8.6l.24.84c.72-.2.39-.81.48-1.32.02-.09.23-.15.24-.24.19-1.54-.41-2.93-.24-4.31.19-1.51,1.04-3.24,1.2-4.79.17-1.64-.23-3.69,0-5.27.01-.09.22-.15.24-.24.05-.22-.06-.52,0-.72.16-.59,1.54-1.75,1.68-2.4.21-.95-.08-2.18.48-3.12.15-.24.57-.47.72-.72.64-1.08.56-4.46.72-5.99.13-1.26.5-2.81.72-4.07.19-1.09.12-1.41.72-2.4.1-.17.41-.62.48-.72.15-.19.93-1,1.08-1.08.42-.22.43.38.36.6-.08.25-1,.86-1.2,1.2-.25.42-.15.85-.24,1.2-.02.08-.66.7-.72.96-.1.46.06,1.16,0,1.68-.15,1.25-.62,2.83-.72,4.07s-.03,1.95-.24,3.12c-.1.55-.08,1.11-.24,1.68-.06.21-.9.75-.96.96-.36,1.24-.04,2.41-.72,3.59-.17.3-1.17,1.34-1.2,1.44-.07.24-.23.68-.24.72-.26,1.47.15,3.67,0,5.27-.12,1.28-.71,2.64-.96,3.83-.42,1.99.08,3.79-.24,5.75-.05.33.04.73,0,1.08h.48v.48c.06.08.7-.43.84-.48,1.05-.38,2.85-.3,4.08-.48.07-.01.4-.42.84-.24.15-2.53-.2-5.28,0-7.79.06-.73.61-2.38.48-3.12-.17-.93-.26-.64,0-1.68.5-1.99,1.07-3.91,2.16-5.75.46-.79,1.32-1.83,1.44-2.64.18-1.21.13-2.59.24-3.83.15-1.64.1-3.95.72-5.51.11-.28.67-.99.72-1.2.33-1.52-.28-3.33.24-5.03.12-.41-.45-1.68-.72-2.16-.34-.6-.87-1.75-.96-2.4-.07-.45.08-1.01,0-1.44-.02-.09-.37-.21-.24-.6ZM220.04,118.87c-.66-.05-1.39.07-2.04,0-.31-.03-1.33-.41-1.68-.48-2.7-.53-5.4-.61-7.92-2.16-.5.17-2.29-1.18-2.52-.96.19.42-.23.76-.24.84-.35,2.41.5,4.44,0,6.95-.36,1.82-.16,3.58-.24,5.51-.17,4.28-.58,8.6-1.2,12.7-.36,2.41-.96,4.86-1.68,7.19-.24.76-.47,1.54-.72,2.4-.03.1-.22.15-.24.24-.14.61.2.96.48,1.44.04.06-.03.19,0,.24.19.29.61.55.84.84l.24-.24,1.2-.24c.86-.28,2.14.09,3.36,0,.09,0,.15-.23.24-.24.58-.06,1.21.04,1.8,0-.11-.23-.17-.34-.24-.6-.38-1.46-.14-2.77-.24-4.31,0-.08-.23-.15-.24-.24-.2-2.66.44-2.9,1.44-5.03.8-1.7,1.93-4.57,2.4-6.47.73-2.95.42-6.57,1.44-9.35.34-.92,1.33-1.84,1.2-2.88l.6-1.08c.52.36.32.5.24.96-.04.26-.07.65-.12.84-.27.95-1.25,1.97-1.44,2.88-.36,1.72-1.12,5.99-.72,7.43.03.11-.4,1.84-.48,2.16-.43,1.74-1.21,2.88-1.92,4.31-.48.98-.98,2.12-1.44,3.12-.07.15-.46.63-.48.72-.11.5-.04,2.03,0,2.64.11,1.64.36,3.25.72,4.79.14.59-.19.76-.24.96-.13.45.57.72.96.6v-1.44c.42-.04.92.06,1.32,0,.15-.02,1.02-.44,1.2-.48,1.47-.31,3.06-.26,4.56-.48.08-.01.42-.43.84-.24l-1.44-1.8v-.48l.72-.72c-1.01-1.01-1.1-2.46-1.92-3.59.12-.46-.38-.76-.24-1.2.03-.1.21-.14.24-.24.05-.14-.04-.33,0-.48.02-.06.58-.72.72-.96.7-1.19,1.83-2.52,2.4-3.83.06-.13-.06-.34,0-.48.15-.38.66-1.08.72-1.44s-.06-.83,0-1.2c.01-.09.23-.15.24-.24.33-3.17.15-8.92-.24-11.98-.01-.09-.23-.15-.24-.24-.12-1.27.08-2.67,0-3.95ZM128.41,134.69c-.34-.04-.76.06-1.08,0-.14-.03-.72-.17-.96-.24-.11-.03-.77-.56-.84-.48,0,.43-.27.9-.6,1.2-.57.16-.87-.23-.96-.24-.44-.06-.98.04-1.44,0l-1.08.6.48.12c.07.38-.2.47-.24.84-.22,1.89.37,4.46.72,6.23.02.09.23.15.24.24.09.62-.06,1.39,0,2.04l-.24-1.8-.48-1.2c-.12-.6-.13-1.34-.24-1.92-.02-.09-.22-.15-.24-.24-.06-.33.23-1.1-.24-1.08-.04.58.06,1.23,0,1.8-.1.91-.67,2.01-.48,3.12l-.72,1.2.48.6h-.96c-.22.22.14,5.37,0,6.35-.01.09-.38.36-.24.96.02.09.21.14.24.24.05.14-.04.33,0,.48.03.09,1.12,1.16,1.32,1.32.5.41,1.41.82,1.92,1.2.26.19.8.92.96.96.62.17,2.08-.06,2.88,0,1.04.08,2.36.46,3.36.72.77.2,1.43.33,2.16.48.09.02.14.21.24.24.64.18.6-1.19,1.08-1.56v-.24c-.29-.23-.55-.65-.84-.84-.53-.35-1.43-.52-1.92-.72-.17-.07-.54-.34-.72-.48l-.36.48-.12-.72c-.62.06-1.14-.46-1.68-.72-.12-.06-.32.05-.48,0-.21-.06-1.18-.96-1.44-1.2-.77.32-1.26.61-2.16.48-.09-.01-.15-.22-.24-.24-.21-.04-.77-.04-.96,0-.09.02-.14.19-.24.24-.07.03-.19-.03-.24,0-.23.14-.64.58-.6.84l-.72.6.24-1.56c1.22-1.11,1.59-2.69,1.44-4.31-.04-.43-.15-1.75-.24-2.16-.02-.09-.21-.14-.24-.24-.16-.6.77-.51,1.08-.84,1.19-.05,2.01.33,3.12,0,.13-.04.21-.37.6-.24.04-.43-.05-.91,0-1.32.35-2.62,1.02-5.38,1.44-8.15.01-.07.42-.4.24-.84ZM119.77,145c-.11-.4.37-.78.48-1.08.56-1.52.57-4.44.72-6.23,0-.09.23-.15.24-.24.04-.45.09-1.83,0-2.16-.14-.52-.94-.29-1.32-.36-.24-.04-1.23-.45-1.44-.48-.44-.05-1.5-.07-1.92,0-.09.02-.22.37-.6.24-.04.43.05.9,0,1.32-.01.09-.23.15-.24.24-.15,1.52-.24,6.3,0,7.67.02.09.37.21.24.6.43.04.91-.05,1.32,0,.52.07,1.33.14,1.92.24.09.02.21.37.6.24ZM118.81,145.48c-.27-.03-.59.05-.84,0-.09-.02-.15-.23-.24-.24-.56-.07-1.22.05-1.8,0,.04.51-.06,1.06,0,1.56.13,1.18.56,2.64.72,3.83.05.41-.04.89,0,1.32.63-.29,1.28.64,1.56.72.23.07.6-.28.6-.36v-6.83ZM126.49,145.72c-.24.09-.29.19-.6.24-.74.13-1.78.1-2.64,0-.33-.04-.35-.17-.6-.24-.19.42.23.76.24.84.14.98.17,3.77,0,4.55-.03.12-.68.88-.48,1.08.39.12.54-.33.84-.24.1.03.15.22.24.24.68.15,1.91-.03,2.28-.6.07-.1.18-.55.24-.72.04-.1.21-.15.24-.24.05-.2-.05-.5,0-.72.02-.1.24-.16.24-.24v-3.95ZM83.07,156.02c.04-.34-.06-.76,0-1.08.02-.09.35-.8.48-.96-.73-1.72-.99-3.67-1.44-5.51l-.72-.84c-.09,1.03.12,2.23,0,3.24-.16,1.32-.86,2.8-.96,4.19h-.48v.72c.58.04,1.23-.06,1.8,0,.09,0,.15.22.24.24.33.05.73-.04,1.08,0ZM118.81,153.15c-.51.39-.42.05-.6,0-.37-.1-.65.03-.96-.48l-1.2-.24c-.12.27-.41.2-.48.24-.23.14-1.36,1.29-1.56,1.56-.04.05.04.18,0,.24-.15.21-.58.4-.48.72.36.49.77.64,1.32.84,1.41.51,3,1.11,4.32,1.92,1.03.02,2.04,1.25,3.12.96.06-.02.82-.78.84-.84.18-.64-.34-1.19-.84-1.56-1.19-.88-3.16-1.67-3.48-3.36ZM211.88,154.58c.27.03.59-.05.84,0,1.61.32,3.38.24,5.04.48.09.01.15.22.24.24.5.09,3.92-.53,4.56-.72.09-.03.14-.21.24-.24.14-.05.33.04.48,0,.23-.06.75-.73.6-1.08l-1.8-.12c-1.21.96-2.52-.3-3.36-.48-.92-.2-3.16.07-4.08.24-.31.06-1.12.4-1.44.48-.21.05-.49-.03-.72,0-.22.12-.74,1.06-.6,1.2ZM210.92,156.02c.07-.43,0-.53-.24-.84-.36-.47-.99-.63-1.2-.96-.04-.06.04-.18,0-.24-.29-.45-1.02-.44-1.56-.36-1.25.19-1.29.32-2.64,0-.4-.09-1.59.33-2.16.48-.1.03-.16.24-.24.24l-.96-.72-.6,1.08.84.6c2.29-.09,4.32.21,6.48.48.09.01.15.23.24.24.65.06,1.37-.04,2.04,0ZM79.23,156.98c-.19-.42.23-.76.24-.84.1-.71.05-1.41-.6-1.8-.05-.03-.17.03-.24,0-.1-.05-.15-.22-.24-.24-.4-.09-1.93-.06-2.4,0-.19.02-.82.17-1.2.24-.1.02-.21.37-.6.24v1.2h.96l.48-1.2-.24.96c.4-.13.46.19.6.24.78.28,1.65.45,2.4.72.14.05.77.56.84.48ZM89.31,154.11s-.69-.03-.84,0c-.45.1-1.83.97-2.4,1.2-.19.08-.53-.13-.72.24-.3-.16-.68-.16-.96-.24-.2-.06-.51-.7-.84-.72v1.68c.39-.13.51.22.6.24.57.1,1.33-.09,1.92,0,.12.02,1.08.46,1.2.48.33.05,1.66.07,1.92,0,.18-.05.68-.79.96-.96l.84-.24c-.19-.75-1.4-.82-1.68-1.32-.06-.11.04-.31,0-.36ZM75.4,156.98c.55-.19,1,.87,1.32.96.46.13,1,.23,1.44.48.17.1.36.44.48.48.7.21.86-1.5.24-1.68-.16-.05-.36.06-.48,0-.45-.21-.8-.32-1.2-.48-.3-.12-.95-.65-1.2-.72-.16-.04-.41.02-.6,0-.04.48.37.5,0,.96ZM93.63,157.46s-.25.06-.36,0c-.31-.17-.64-.77-.96-.96-.05-.03-.17.03-.24,0-.1-.05-.15-.22-.24-.24-.54-.13-.84.22-1.32.24.28.39.12.85.6.72l2.64,1.44c.9-.03.01-.6-.12-.84-.06-.11.04-.31,0-.36ZM37.98,156.98c-.72.38-1.79.46-2.28-.24h-.24c-.88.56-2.55.7-3.6.72-.2,0-.84-.11-.6.36.1.19.46.8.6.84.44-.2.89.23.96.24.58.08,2.57.1,3.12,0,.09-.02.14-.21.24-.24.14-.05.33.04.48,0s1.54-1.44,1.32-1.68ZM42.3,157.46c.08.36.53.56.72.84.07.1.17.62.24.72.27.42.61.39,1.08.36l1.08-.6c-.21-.15-.4-.48-.6-.6-.35-.21-.93-.15-1.2-.48l-1.32-.24ZM40.86,157.7c-.34,0-.64-.08-.96.12-.2.13-1.18,1.09-.96,1.32.39-.13.5.22.6.24,1.1.22.71-.12.84-.6.03-.09.21-.14.24-.24.07-.24-.03-.53.24-.84ZM42.77,159.62c.2-.2-.82-1.63-1.08-1.92-.35.23-.38.6-.48.96-.06.22-.2.43-.12.72l1.68.24ZM45.17,159.86c-1.02-.13-1.33.2-1.2,1.2-.64.05-.8-.42-.72-.96-.36-.13-.55.24-.6.24-.08,0-.15-.22-.24-.24-.54-.09-1.23.06-1.8,0v1.2c.43-.18.77.23.84.24.4.06,1.81.08,2.16,0,.09-.02.14-.19.24-.24.07-.03.19.03.24,0,.24-.14,1.21-1.33,1.08-1.44Z"/>
  <path d="M173.98,93.71c.05.03,1.02.47,1.08.48.94.2,2.46-.15,3.48,0l-.84-.72c-.4.07-.74-.07-.84-.48.34-.04.76.06,1.08,0,.09-.02.15-.22.24-.24.38-.09.77.17,1.08-.36l-1.56-.12-.36-.48c.42-.05.93.07,1.32,0,.09-.02.14-.21.24-.24.28-.09.73.1.84-.48h-1.2v-.72l1.2-.36c-.54-.82-1.26-.59-2.16-.6.11-.49.64-.58,1.08-.48.09.02.14.21.24.24.14.05.33-.04.48,0,.17.05.6.69.84.84-.31.12-.21.57-.24.6-.1.1-.8-.23-.72.24l.96.36-1.2.6c-.1.43.42.17.48.24.08.09,0,.54-.12.72-.16.26-.92.38-1.32.48l.96.84-.96.36.72.6-.48.72.24.6c-.86-.04-.62.52-.72,1.08-.03.16-.46.17,0,.48-.18.12-.47.56-.6.6-.89.25-1.46-.55-2.28-.48.13.4-.19.46-.24.6-.37,1.01-.7,2.42-.96,3.59-.1.44-.3.55-.6.84-.44-.3-.44-.87-.36-1.32.02-.09.22-.14.24-.24.26-1.03.44-2.08.72-3.12.06-.21.66-.39.48-.84-.47.15-.63-.15-.84-.24-.58-.24-2.78-1.17-3-1.56-.06-.11.04-.29,0-.36.02.04.51.42.6.48,1.4.88,3.2,1.33,4.56,1.92.46.03.9.6,1.44.48.74-.16-.2-.88-.12-.96l.72-.48-.72-.48,1.2-.24-.72-.72.96-.48-.48-.12v-.36c-.1-.12-.28.22-.36.24-.72.14-2.59-.17-3.12-.48-.22-.13-.34-.46-.36-.48Z"/>
  <path d="M90.51,97.78c-.49.6.25.86-.36,1.2-.11.06-.32-.04-.36,0-.11.11.3.55-.84,1.2-.85.48-.44.37-.84,1.08-.15.28-.64.75-.84,1.08-.85-.62.1-1.19.12-1.92-.38.38-.96.13-1.2.24.9-.62.52-.31,1.56-.48.15-.02.16-.32.72,0l.84-.72-.96-.24,1.2-.48-.96-.48c.77.18,1.22-.41,1.92-.48Z"/>
  <path d="M192.21,35.71c-.65-.16-1.2.38-1.8.24-.09-.02-.15-.22-.24-.24-1.34-.32-2.71-.28-4.08-.48-.09-.01-.39-.4-.96-.24-.21.33-.67.79-.84,1.08-.74,1.26-1.33,3.01-1.92,4.31-4.57,10.16-7.87,19.54-11.03,29.96-.52,1.71-1.24,3.7-1.44,5.51-.06.57.04,1.21,0,1.8.68.12,1.42.57,2.04.96,1.68.53,3.6.74,5.28,1.2.17.05.55.67.72.72.5.14,1.38.36,1.92.24.44-.09.26-.36.96-.24.57.1,1.32-.07,1.92,0,1.01.12,2.37.76,3.36.96.25.05.57-.03.84,0-.13-.4.19-.46.24-.6.14-.4.14-1.07.24-1.44.58-2.12,1.37-4.39,2.16-6.47,3.86-10.15,8.1-20.19,12.23-30.2l.96-1.68c.09-1.11-.67-.7-1.32-.84-1.63-.34-4.44-1.64-6.24-2.4-.14-.06-.35.06-.48,0-.1-.04-.14-.19-.24-.24-.11-.05-.29.05-.48-.24-.11-.17-.47-.84-.36-.96.41.24.88.31,1.32.48,2.19.87,4.65,1.94,6.96,2.4.09.02.15.23.24.24.85.12,2.12-.37,1.8,1.08-.07.32-.78,1.26-.96,1.68-1.43,3.3-2.72,6.58-4.08,9.83-1.7,4.05-3.34,8.26-5.04,12.22-1.31,3.07-2.41,6.28-3.6,9.35-1.08,2.79-1.52,5.19-2.4,7.91-.06.19-.42.46-.24.96l-.84.6c-.34-.15-.4-.87-.72-.96-.25-.07-.67.05-.96,0-.09-.02-.15-.22-.24-.24-1.33-.27-2.75-.54-4.08-.72-.23-.03-1.27-.05-1.32,0-.05.05.05.42,0,.6-.55,2.05-1.37,4.13-1.68,6.23-.3.2-.25,1.27-.84,1.08-.42-.14-.43-.96-.36-1.32.02-.09.22-.14.24-.24.5-1.98,1.04-3.84,1.68-5.75.07-.22-.04-.53.24-.84-.42-.04-.91.06-1.32,0-.09-.01-.15-.22-.24-.24-2.16-.37-4.18-.81-6.24-1.68-.52-.22-1.89-.79-2.04-1.32-.07-.27-.04-1.33,0-1.68.24-2.19,1.04-4.44,1.68-6.47,3.27-10.48,6.84-21.35,11.75-31.4.43-.88.97-2.4,1.44-3.12.21-.32,1.22-1.18,1.56-1.08.1.03.15.22.24.24.4.09.99-.06,1.44,0,1.24.17,2.55.62,3.84.72l1.32.72Z"/>
  <path d="M250.26,150.99l.48-1.2c-.03.43.05.9,0,1.32-.06.53-.35,1.06-.24,1.92.02.19.49.38-.24.6.18-.44-.31-.83-.24-1.08.4-1.39-.39-3.09-.36-4.67l-.12-1.2c.78.26.4,1.19.48,1.8.01.09.23.15.24.24.07.73-.05,1.54,0,2.28Z"/>
  <path d="M190.53,152.19l-.96-1.08c.03-.51-.75-.68-.72-1.2l-2.4-2.52c.44-.09.57.24.84.48.59.52,1.58,1.44,2.04,2.04.04.05-.04.19,0,.24.47.62,1.1,1.22,1.2,2.04Z"/>
  <path d="M250.98,150.99l.24-1.32c.42-1.14.84-2.33.96-3.59l.36-.84.12,1.32c-.52.97-.76,2.09-.96,3.12l-.72,1.32Z"/>
  <g>
    <path d="M94.35.24c.13.39-.19.46-.24.6-.56,1.6-1.21,3.79-1.68,5.51-.35,1.3-.43,2.77-.72,4.07-.02.08-.19.14-.24.24-.04.08.03.19,0,.24-.58.91-1.61-.21-2.28-.6l-1.08-.24c0,.82-.56,1.59-.96,2.28-.09.28.1.77.36.84.5.13,3.9.08,4.56,0,.09-.01.15-.22.24-.24.93-.17,1.79.32,1.56,1.32-.02.09-.22.15-.24.24-.09.39-.11.57-.24.96-.8,2.49-1.9,5.16-2.88,7.67-2.65,6.77-5.57,13.74-7.68,20.85-.04.13-.37.21-.24.6-.48.01-.94.1-1.2-.36-.06-.11.04-.31,0-.36-.28-.28-2.04-.62-2.52-.72-1.13-.24-2.44-.55-3.6-.72-.44-.07-1.43-.07-1.56.36-.05.16.06.36,0,.48-2.24,4.96-4.52,9.64-6.48,14.62-.24.6-.41.34-.24.96.1.36-.71.87-.96,1.2l1.08-.12.12.48c-.35.04-.75-.05-1.08,0-.05,0-.59.56-.84.12.16-.34.79-.95.72-1.2-.4-1.43.17-1.39.72-2.64,1.89-4.3,3.68-8.67,5.52-12.94.15-.36.55-.83.72-1.2.27-.57-.8-.31-1.08-.36-.09-.01-.15-.23-.24-.24-.82-.1-2.22.18-2.88,0-.14-.04-.68-.63-.6-.84.41-.22.15-.64.24-.96.08-.28.58-1.09.72-1.44,3.36-8.5,7.31-17.24,11.27-25.4.16-.32.55-.66.48-1.08.27.03.59-.05.84,0,.09.02.14.21.24.24.5.13,1.53.43,1.92.48.6.07,1.3-.05,1.92,0l.84-1.32c-.05-.74.67-1.29.72-2.04h-3.96c-.08,0-.16.24-.24.24-.04,0-.24-.37-.6-.24.04-.34-.07-.77,0-1.08.02-.09.44-.59.48-.72.56-1.6.99-3.28,1.68-4.79.31-.69.82-1.48,1.2-2.16.07-.12.04-.44.36-.6h8.04ZM83.55,8.63h3.48s.58.5.84.24c.1-.1,0-.98.96-.72v1.2c.4-.11,1.71.92,1.92.72-.18-.43.21-.72.24-.84.58-2.61,1.24-5.14,1.92-7.67.03-.1.22-.15.24-.24.05-.24-.03-.57,0-.84-1.07.05-2.17-.07-3.24,0-.61.04-1.47.4-2.4.24-.09-.02-.21-.37-.6-.24.02.52-.52.87-.72,1.32-.86,1.96-1.58,4.04-2.4,5.99-.07.17.04.55-.24.84ZM85.47,13.9c-.35-.03-.75.05-1.08,0-.81-.13-1.8-.31-2.64-.48-.08-.02-.26-.36-.36-.24.07.42-.32.76-.48,1.08-3.99,8.21-7.69,17.05-11.27,25.4l-.24,1.32c.67.04,1.38-.06,2.04,0,.09,0,.15.23.24.24.62.07,1.72.14,2.04-.36l11.75-26.96ZM92.91,13.9c-.42-.19-.76.23-.84.24-1.43.21-3.27-.03-4.56-.24-.33-.05-.73.04-1.08,0l-11.99,27.56c.42-.19.76.23.84.24,1.81.26,3.56.25,5.28.72.26.07.9.6,1.2.72.1.04.25-.02.36,0-.17-.46.2-.69.24-.84,2.28-7.54,5.35-14.4,8.16-21.57.79-2.01,1.68-4.17,2.16-6.23.03-.11.37-.21.24-.6Z"/>
    <path d="M61.72,63.75h-.48c-.03.19.05.44,0,.6-.08.28-3.66,3.72-4.2,4.19-.27.24-.4.57-.84.48l4.56-4.67.48-1.44,1.32-1.8-.6,1.56c-.47.41-.64.53-.24,1.08Z"/>
    <path d="M67.24,64.71l-.6.48c-.8.05-1.15.85-1.68,1.2-.4.26-1.5.42-1.56.48-.06.06-.31,1.27-.48,1.56-.08.14-.65.68-.72.6-.16-.46.42-.64.48-.84.09-.32.14-.91.24-1.2.05-.14.37-.2.24-.6,1.75.37,2.31-1.69,4.08-1.68Z"/>
    <g>
      <path d="M31.02,112.4c.05.33-.08.8,0,1.08.07.24,2.16,1.31,2.4,1.92.04,2.23-.06,4.48,0,6.71.06,2.07.39,4.45.24,6.71-.17,2.51-.82,5.14-1.2,7.67s-.42,3.64,0,5.99c.73,4.09-.05,8.34,2.4,11.98l-.12.84-1.32-1.8c-.22-1.06-.73-2.12-.96-3.12-.39-1.69-.22-3.77-.48-5.51-.65-4.32-.6-7.53.24-11.74.72-3.58.84-7.32.72-11.26-.05-1.56-.55-3.8-.24-5.51.01-.07.38-.24.24-.72-.5-.3-.85-.71-1.32-1.08-.05-.04-.19.04-.24,0-.87-.7-1.69-1.49-.36-2.16Z"/>
      <path d="M60.53,151.23c.12.4-.41.84-.48,1.08-.06.2.06.52,0,.72-.05.18-.88,1.05-.72,1.56l-.36-.24-.84.96c-.02-.33.19-.68.36-.96.11-.18.56-.66.6-.84.12-.56-.09-1.42,0-2.04l.48,1.44.24-.84.72-.84Z"/>
    </g>
    <rect x="63.64" y="142.12" width=".24" height="7.19"/>
  </g>
  <g>
    <path d="M228.91,100.42c.19.03.44-.05.6,0,.73.22-.17,1.02.36,1.32l-.48.6c.1-.53-.09-.76-.48-1.08-.06-.12.98-.14.48-.6-.21-.19-.69.28-.84.48-.32-.47-.98.04-.84-.6l-.72-.6c.54-1.08.6.29,1.2.48.04-.42-.06-.91,0-1.32.01-.09.22-.15.24-.24.16-.93.11-1.96.24-2.88.01-.08.43-.42.24-.84-.35.04-.75-.05-1.08,0-.84.14-2.1.62-2.88.72-1.52.19-2.28-.16-2.04-1.8.01-.09.22-.15.24-.24.9-5.02,1.61-9.91,2.16-15.1.23-2.14.54-4.56.72-6.71.31-3.78-.11-8.19.72-11.74.05-.19-.19-1.68-.24-2.16-.05-.45-.61-.94.36-1.08.63-.09.87.23.96.24,2.09.26,5.84-.86,7.92-1.44,1.63-.45,3.55-1.04,5.28-1.2.4-.04,1.62-.08,1.92,0,.52.14.69,1.05.6,1.56-.02.09-.23.15-.24.24-.18,1.24-.36,2.65-.48,3.83-.77,7.36-1.71,14.53-2.64,21.81-.38,2.96-.48,6.41-.72,9.35-.06.75.28,2.52-.6,2.76-.67.19-2.25-.08-3.12,0-1.5.14-3.29.69-4.8.96-.29.05-.71-.07-.96,0-.56.16-.29,1.29-.36,1.8-.04.32-.44,1.36-.48,1.68-.09.63.18,1.25-.24,1.8ZM242.58,55.6c-.58.04-1.23-.06-1.8,0-1.93.21-4.26.88-6.24,1.44-1.83.52-4.88,1.47-6.72.96-.55-.15-.75.05-.6.6.29,1.05.31,2.16.24,3.36-.32,5.58-.51,11.33-1.2,16.78-.69,5.4-1.33,10.16-2.4,15.34-.05.24.03.57,0,.84.35-.04.75.05,1.08,0,.09-.01.15-.22.24-.24,2.88-.54,5.98-.45,8.88-.96.43-.08,1.53-.44,1.92-.48.81-.07,1.7.05,2.52,0,.04-.43-.05-.9,0-1.32.4-3.08.39-6.46.72-9.59.65-6.2,1.75-12.31,2.4-18.45.26-2.46.36-5.01.72-7.43.01-.08.43-.42.24-.84Z"/>
    <g>
      <path d="M221.48,81.97c-.81.23-1-.4-1.68-.48.07.25.21.26.24.6.09,1.03-.17,2.41,0,3.36.01.07.38.24.24.72l-.72.84c.16-.61.34-1.14.24-1.8-.01-.09-.23-.15-.24-.24-.07-.62.13-3.58,0-3.71-.05-.05-.42.05-.6,0-1.34-.36-2.73-.67-4.32-.48-.59.07-1.77.76-2.16.48l-.48.48-.6-.6c.37-.19.16-.52.24-.72.32-.84,1.38-2.4,1.92-3.12.31-.41.6-.44.84-.6.16-.11.37-.45.48-.48.15-.04.34.05.48,0,.1-.03.15-.22.24-.24.27-.05.92-.04,1.2,0,.09.01.15.22.24.24.22.05.52-.05.72,0,.09.02.14.2.24.24.67.24,1.25.61,1.8,1.08.02.36.41.92.48,1.2.06.2-.06.52,0,.72.1.36,1.72.66,1.44,1.92-.02.11-.37.21-.24.6ZM219.56,79.57c.11-.8-.14-1.71-.84-2.16-.12-.07-.86-.44-.96-.48-.13-.05-.33.04-.48,0-.1-.03-.15-.22-.24-.24-.27-.05-1.46-.06-1.68,0-.11.03-.32.37-.48.48-.06.04-.19-.04-.24,0-.24.17-.64.6-.84.84s-.54.91-.72,1.2c-.1.17-.54.79-.48.84l1.32-.24c1.31-.35,3.3-.7,4.8-.48.08.01.42.43.84.24ZM221,80.53c-.19-.02-.44.04-.6,0-.21-.06-1.04-.46-1.2-.48-.69-.1-1.56.07-2.28,0-.05.43.53.21.84.24s.67-.05.96,0c.12.02,1.15.38,1.44.48.13.05.55.36.72.48l.12-.72Z"/>
      <path d="M211.88,83.16l-.72.12c.06.44-.09,1.03,0,1.44.05.22.62.71.48,1.08l.72-.12-.96.36c.11-.4-.42-.85-.48-1.08-.05-.2.05-.5,0-.72-.02-.09-.38-.24-.24-.72.04-.15.42-.4.24-.84l.96.48Z"/>
    </g>
  </g>
  <path d="M149.28,72.86c-.1-.41.37-.79.48-1.08.05-.14-.05-.33,0-.48.17-.53.46-1.08.48-1.68l.72-1.08-.24,1.32c-.36.3-.33,1.02-.48,1.44-.05.14-.39.3-.24.72l-.72.84Z"/>
  <rect x="164.15" y="152.43" width=".48" height=".24"/>
  <g>
    <path d="M100.34,113.84l.72-1.08c-.05-.53.38-.85.24-1.44l.72-.6.48,1.92-.96-.96c.18.44-.2.7-.24.84-.05.21.06.52,0,.72-.02.09-.19.14-.24.24-.22.49-.19.7-.96.6.12-.39-.33-.54-.24-.84.03-.1.22-.15.24-.24.36-1.6-.27-3.64-.96-5.03l-1.44-1.56c.44-.09.57.24.84.48.24.21.69.61.84.84.05.08.7,1.36.72,1.44.05.2-.05.51,0,.72.02.09.22.15.24.24.06.27-.05.67,0,.96.17.93.11.62,0,1.44-.06.41.04.89,0,1.32Z"/>
    <path d="M96.51,148.59h.48c-.33.86-.09,1.91-.24,2.76-.01.07-.38.24-.24.72.05.19.61.39.48.72l-.72,1.08c.02-.47.37-.78.24-1.32-.24-.99-.44-2-.24-2.88.18-.8-.13-2.12,0-3,.42-.05.23.54.24.84.02.36-.01.72,0,1.08Z"/>
    <path d="M99.86,150.27s-.04-.2,0-.24.2.04.24,0c.04.28-.23.22-.24.24Z"/>
    <path d="M99.86,150.27c-.04.1.02.33,0,.48l-.36-.24-.12.12c.54.41.12.66,0,.96-.27.66-.57,1.27-.96,1.92-.07.12-.06.58-.48.6l.24-1.8c.62-1.03,1.2-2.09,1.44-3.24h.6l.12.12-.24.24.48.84-.48-.24c-.11-.49-.17-.07-.24,0-.01.01-.24-.03-.24.12l.24.12Z"/>
    <path d="M95.55,154.11l-.24-.48h-.48c.03-.27-.05-.59,0-.84.15-.71.62-1.57.48-2.4-.02-.11-.22-.04-.12-.36.14-.42.15-.77.12-1.2.42-.05.23.54.24.84.02.38-.06.86,0,1.2.01.07.38.25.24.72-.03.1-.22.15-.24.24-.12.67.08,1.57,0,2.28Z"/>
    <path d="M104.9,113.84s-.25-.06-.36,0c-.48.27-.85,1.25-1.56,1.2.29-.38.95-1.23,1.32-1.44.11-.06.32.04.36,0,.09-.09.01-.75-.24-.84l-.24-2.04.48.6c-.21.57.2,1.19.24,1.44.03.2.04,1.04,0,1.08Z"/>
  </g>
  <g>
    <path d="M295.59,97.78c.13.39-.19.46-.24.6-.99,2.75-2.1,5.44-3.12,8.15-.28.73-.64.83-.48,1.92.36,2.45.23,3.27-.48,5.51-.55,1.76-.84,3.68-.96,5.51-.04.59-.12,2.45,0,2.88.06.21.73.47.48,1.08l-.96.24c-.08,2.01.11,4.11,0,6.11-.09,1.59-.56,3.49-.72,5.03-.14,1.35.03,2.08-.48,3.36-.19.49-.35,1.03-.84,1.32-.05.03-.17-.03-.24,0-.1.05-.15.2-.24.24-.25.1-.9.16-1.2.24-.52.13-.93.37-1.68.24-.09-.02-.21-.37-.6-.24-.03.35.05.75,0,1.08-.13.84-.62,2.1-.72,2.88-.07.6.1,1.35,0,1.92-.02.09-.37.21-.24.6.82.02,1.1.77.96,1.56-.02.09-.22.15-.24.24-.08.46.14.88-.24,1.32.05.04.23-.05.36,0,1.27.52,2.02,1.42,2.52,2.76l.96,1.2c-.65,1.02-1.76.43-2.76.6-.24.04-.51.31-.96-.24h-.48c-1.02.85-2.55.36-3.84.48-.36.03-1.54.43-1.92.48s-1.08.05-1.44,0c-.09-.01-.15-.22-.24-.24-.22-.05-.52.05-.72,0-.09-.02-.14-.2-.24-.24-.42-.15-1.44-.66-1.56-1.08-.1-.37-.07-1.44.24-1.68-.05-.74.69-1.32.72-2.04.51.03.5-.37.96,0v-2.04c.03-.11.76-.58.84-.6.6-.13,3.58.14,3.72,0-.1-.4.36-.77.48-1.08.64-1.66,1.12-3.67,1.68-5.51.04-.15.41-.38.24-.84l.48.12-.48.96c-.16,1.73-1.15,3.45-1.68,5.03-.07.22.04.53-.24.84h2.64c.03-.27-.05-.59,0-.84.34-1.7.68-3.58.96-5.27.05-.33-.04-.73,0-1.08-.08-.08-1.85.05-2.28,0-.19-.02-1.25-.46-1.44-.48-.51-.06-1.66-.07-2.16,0-.09.01-.14.21-.24.24-.18.05-.55-.05-.6,0-.04.04.05.23,0,.36-.04.1-.22.16-.24.24-.37,2.03-.36,4.33-.48,6.47l-.48.6c.04-.43-.06-.91,0-1.32.24-1.78.43-3.75.72-5.51.03-.2.04-1.04,0-1.08-.04-.04-.25.06-.36,0-.14-.08-.58-.75-.6-.84-.14-.63-.06-2.84,0-3.59.04-.44.43-1.7.48-2.16.05-.43.06-1.26,0-1.68-.01-.09-.22-.15-.24-.24-.05-.22.06-.52,0-.72-.13-.47-1.08-1.31-1.44-1.92-.09-.15-.46-.64-.48-.72-.17-.8.19-1.6.48-2.28-.62-.05-1.11-.75-1.68-1.08-.05-.71.06-1.46,0-2.16-.08-.91-.51-2.01-.72-2.88-.3-1.2-.05-1.2.24-2.16.61-2,.54-4.79.72-6.95.28-3.44.12-7.14.48-10.55.26-2.47.29-4.49,1.2-6.71.5-1.23,1.08-2.32,2.28-3,.08-.05.24.02.36,0-.05-.39-.89-.84-.96-1.08-.1-.38.1-.88.24-1.2.15-.34.6-.87.72-1.2.36-.97.35-2.35.72-3.36.03-.09.42-.87.48-.96.1-.14,1.01-1.06,1.08-1.08.15-.04.34.05.48,0,.1-.03.15-.22.24-.24.32-.06,1.09-.04,1.44,0,.2.02.89.46,1.44.24.32.29.87.37,1.32.48.01.51-.5.17-.72.12-.3-.06-.99-.35-1.08-.36-.43-.06-2.55-.09-2.88,0-.12.03-.31.39-.48.48-.11.06-.32-.04-.36,0-.04.04.05.23,0,.36-.13.3-.65.94-.72,1.2-.28,1.02-.29,2.27-.72,3.36-.11.28-.67.99-.72,1.2-.14.64.05,1.21.6,1.56.05.03.18-.04.24,0,1.72,1.02,1.3.26,2.52-.72.16.46-.42.64-.48.84-.17.59.65.53.84.6,1.25.46,3.32,1.2,4.2,2.28.03.04.02.44.36.6l.84-1.08c.24-.7.86-.94,1.2-1.68.11-.24.42-.75.48-.96.06-.19-.04-.5,0-.72.02-.09.33-.16.24-.48-.03-.09-.21-.14-.24-.24-.11-.36-.45-1.07-.48-1.2-.08-.37.05-.91,0-1.32-.52,0-.84.18-.72-.48.71.44,1.6.17,2.4.24.11-.61-.34-.58-.6-.72-.16-.09-.64-.46-.72-.48-.46-.1-1.11.26-1.32-.48l1.56.24c.76.54,1.56.48,1.32,1.68h-1.44c.17.46-.31.83-.24,1.08.06.23.67.99.72,1.2.18.81-.46,1.84-.48,2.64-.04.09-.19.14-.24.24-.4.87-1.37,1.35-1.68,2.16-.08.2.13.53-.24.72,0,.07.19.13.24.24.07.15.17.62.24.72.99,1.48,2.12,2.9,3.12,4.31,1.57,2.23,1.65,4.19,2.16,6.71l.72.6.24-1.08c.86-1.81,1.71-3.71,2.4-5.51.15-.4.2-.9.48-1.2,0-.1-.71-.55-.84-.6-1.82-.73-3.48-1.1-5.28-1.92-.14-.06-.72.07-.84-.36-.18-.61.42-.75.48-.96.05-.16-.06-.36,0-.48,3.08-6.63,6.11-13.32,8.88-20.13.19-.46.93-1.98,1.2-2.4.06-.1.56-.59.6-.6.64-.18.97.26,1.44.48,3.38,1.57,6.96,2.83,10.31,4.79.72.42,2.02,1.21,2.64,1.68.43.33.56.71.84,1.08v.48c-.3.19-.33.69-.48.96-.35.62-.81,1.24-1.2,1.92-2.23,3.88-4.12,8.25-6,12.22-1.28,2.72-2.19,5.34-3.36,7.91-.06.14.07.72-.36.84-.9.25-1-.24-1.44-.48-1.44-.77-2.36-1.65-3.6-2.64-.7-.55-1.32-1.31-2.28-1.44ZM302.55,101.38c-.07-.4.11-.72.24-1.08,1.17-3.16,2.58-6.22,4.08-9.35,1.61-3.35,3.16-7.01,5.04-10.31l1.44-2.4-1.08-1.08c-3.96-2.26-7.88-4.04-11.99-5.99-.14-.07-.62-.27-.72-.24-.26.23-.43.55-.6.84-.93,1.54-1.39,3.62-2.16,5.27-2.47,5.35-5,10.65-7.2,16.06-.09.23-.5.61-.48.96.03.12.69.54.84.6,1.38.55,3.13,1,4.56,1.44.15.05.38.41.84.24-.13-.4.19-.46.24-.6.16-.45.29-.74.48-1.2.06-.14-.06-.35,0-.48.04-.1.19-.14.24-.24.22-.48.19-.71.96-.6.04.36,0,.62-.12.96-.21.61-.63,1.25-.84,1.8-.07.2.13.53-.24.72.21.18.39.44.6.6,1.59,1.2,3.49,2.44,5.04,3.83l.84.24ZM286.96,116.96c0-.29.13-.58.24-.84,1.1-2.63,2.29-5.2,3.36-7.91.11-.28.06-.92.48-1.2-.2-.53-.12-1.14-.24-1.68-.05-.23-.65-1.12-.72-1.44-.48-2.34-.18-3.39-1.68-5.51-1.18-1.67-2.39-3.43-3.6-5.03-.74-.98-1.26-1.97-2.52-2.52-.13-.06-.34.06-.48,0-1.16-.48-2.24-1.2-3.6-.96-.5.09-.16.24-.96,0-.46-.14-1.29.68-1.56,1.08-1.35,2.02-1.44,5.12-1.68,7.43-.36,3.4-.16,7.12-.48,10.55,0,.09-.23.15-.24.24-.21,2.82.42,5.7-.96,8.15.6,1.88.66,3.73,1.2,5.51.13.42-.31.79-.24.84.37-.14.86.43,1.08.48.69.15,2.76.04,3.6,0,.08,0,.16-.24.24-.24,1.71-.08,3.45.06,5.16,0,.02-.57.39-1.04.84-1.44.55.4.44.94.12,1.44.42.19.76-.23.84-.24,1.31-.19,2.49.16,3.84-.24.15-.04.38-.41.84-.24.13-.38-.22-.51-.24-.6-.19-1.1.2-2.29.24-3.12.1-1.88-.11-2.95.48-4.79.28-.87.84-1.94.96-2.88.11-.86-.08-1.87,0-2.76l-.48.6c-1.02,2.48-1.84,5.37-3.12,7.67-.24.43-.61.87-.48,1.44.02.1.23.15.24.24.05.34.07,1.38,0,1.68-.02.09-.19.14-.24.24-.03.07.03.19,0,.24-.1.16-1.15,1.22-1.32,1.32-.05.03-.17-.04-.24,0-.18.09-.21.36-.6.24v-.48c-.06-.06-.54.42-.72.24-.05-.06.13-.49-.12-.48-.31.55-.81.36-1.2.72-.37-.25-.46-.66-.36-1.08.26-1.1.69-2.65.48-3.59-.18-.8.38-1.63.24-2.16-.05-.2-.64-.38-.48-.84l1.2,1.32c0,.1-.65.37-.48.96.14.48.06,2.9,0,3.83-.02.38-.02.51-.24.84l1.92-1.2-.24.72h.72l-.48.6c-.04.18.26.17.36.12.45-.2,1.29-1.41,1.56-1.8.14-.6-.23-.86-.24-.96-.1-.7-.03-.94-.24-1.68-.28-.98-.65-1.91-.96-2.88-.27-.85-.69-1.3-.96-2.16-.41-1.29-.78-2.96-.96-4.31-.12-.9.09-1.54-.48-2.4-.17-.25-.59-.48-.72-.72-.06-.11.04-.31,0-.36-.03-.03-.48.07-.6-.24l-1.68.72c-.92.98-1.85.89-1.56,2.52.02.09.21.14.24.24.28.99.67,1.81,1.2,2.64.18.28.6.37.48.84-.07.08-.61-.45-.72-.6-.28-.38-1.01-1.68-1.2-2.16-.15-.39-.11-1.16-.48-1.44v-.48c.29-.24.23-.6.6-.84.61-.39,1.98-1.53,2.64-1.68.19-.04,1.27-.05,1.32,0,.05.05-.05.43,0,.6.03.12.71.76.96,1.44.65,1.78.62,3.83.96,5.75.17.97,1.81,2.5,1.68,3.83l.48.84ZM284.08,139.01c.25.74,1.64.6,2.04.24l1.2-.24c.15-.21.48-.4.6-.6.03-.05-.03-.17,0-.24.05-.1.22-.15.24-.24.06-.2-.05-.5,0-.72.28-1.27.31-2.5.48-3.83.1-.8.41-2.08.48-2.88.15-1.79.23-3.45.24-5.27l-.24-1.08c-.8.29-.41,1.37-.48,2.04-.12,1.17-.43,2.91-.48,4.07-.1,2.32.18,4.09-.48,6.23-.11.35-.34,1.08-.48,1.44-.07.18-.43.73-.6.84-.05.03-.16-.03-.24,0-.1.05-.15.22-.24.24-.56.12-1.43-.09-2.04,0ZM288.16,124.39c-.99.12-2.3-.17-3.24,0-.09.02-.14.21-.24.24-.14.05-.33-.04-.48,0-.13.04-.53.67-.6.84-.31.69-.39,1.75-.96,2.4.06.35-.55,1.7-.84,1.8-.49,0-.68-.41-.6-.84.51-.57.6-1.38.96-1.92.16-.26.17-.77.24-.96.15-.37.65-.74.48-1.32-1.78.08-3.62-.1-5.4,0-.08,0-.15.23-.24.24-.83.06-1.69-.04-2.52,0,.13.38-.22.51-.24.6-.05.28-.06,1.45,0,1.68.05.17.97.9,1.2,1.2.04.05-.04.18,0,.24.16.23.66.69.72.96.16.74.04,2.94,0,3.83,0,.08-.24.16-.24.24-.05,1.13-.14,3.01,0,4.07.1.75.92.69,1.56.6,2.32-.35,3.45.41,5.76.24.09,0,.15-.23.24-.24.67-.05,1.88.14,2.4,0,.1-.03.23-.28.36-.36,0-.7.5-1.27.48-1.92.87-2.78.47-6.27.72-9.35,0-.09.23-.15.24-.24.07-.69-.19-1.43.24-2.04ZM283.12,147.16c-.09-.08-1.43.07-1.8,0-.09-.02-.14-.21-.24-.24-.37-.11-.62.08-.84.36l.24.48c-.23.25-.36.44-.72.36-.13.39.21.48.24.6.08.28-.38.48-.24.96.19.65.7.16.84.12.69-.22,1.19-.56,1.68-.72.17-.06.55.05.6,0,.05-.05-.05-.42,0-.6.03-.1.23-.15.24-.24.05-.33-.04-.73,0-1.08ZM279.28,147.63c-.38.07-.47-.2-.84-.24-.44-.05-1.25-.05-1.68,0-.09.01-.15.22-.24.24-.25.05-.57-.03-.84,0v1.92c.49-.12,1.25-1.35,1.56-1.44.37-.1,1.2.02,1.68,0,.39-.02.68-.2.36-.48ZM279.28,148.83s-.42.05-.6,0c-.09-.03-.14-.21-.24-.24-.47-.14-.59.2-.72.24-.14.05-.33-.04-.48,0-.26.08-.57,1.09-.96,1.2s-.93-.2-1.2.24l-.48-.24-.36.36c-.02.79-.58,1.39-.48,2.16-.44.28.08.35,0,.84.42-.09.81.38,1.08.48.13.05.33-.04.48,0,.1.03.15.22.24.24.48.09,1.62.05,2.16,0,.43-.04,1.72-.44,2.16-.48.74-.06,1.53.05,2.28,0,0-.27-.36-.4-.48-.6-.24-.4-.46-1.08-.72-1.44-.36-.48-1.61-1.19-1.68-1.44-.08-.29.09-1.23,0-1.32ZM286.24,153.39c.14-.12-1.47-2.06-1.44-2.52-.59-.74-1.58-.43-2.28-1.08-.31-.09-1.05.7-1.56.48-.23.21.82,1.35.96,1.56.07.1.17.61.24.72s.55.59.6.6c.48.14.61-.21.72-.24.3-.08.85.64,1.2.72.6.13.96-.32,1.56-.24Z"/>
    <path d="M291.52,146.2c.12.14-.09,2.67,0,3.24.02.09.24.16.24.24l-.48.6c-.04-.67.06-1.38,0-2.04,0-.09-.23-.15-.24-.24-.05-.42-.02-1,0-1.44.02-.39.2-.69.48-.36Z"/>
    <path d="M285.04,84.84l-.6.48h-.6l.24,1.68.72-.48c.06.32-.03.85-.36.96-.63.2-1.01-1.49-.84-1.92l-.96.72.84-1.2,1.56-.24Z"/>
  </g>
  <g>
    <g>
      <path d="M337.81,84.84l.6.72c.25-.37.66-.22,1.08-.24.05.66-.07,1.39,0,2.04,0,.09.23.15.24.24.05.33-.03.73,0,1.08.32-.27.59-.17.84-.24.1-.03.15-.22.24-.24.44-.08,1.91.13,2.4.24.67.15,2.18.66,2.88.96.58.25,1.84,1.21,2.28,1.8.04.05-.04.18,0,.24.3.43.74.9.96,1.44.31.77.35,1.65.48,2.4.34,1.9.62,3.84.96,5.75.02.09.23.15.24.24.04.28.05.93,0,1.2-.01.08-.4,1.23-.48,1.44-.06.15-.47.8-.6.84-.81-.04-.49-.71-.6-1.08-.09-.29-1.81-2.25-2.16-2.64-.55-.61-1.14-1.18-1.8-1.56h-.24c-.17.13-.58.43-.72.48-.62.23-1.67.32-2.4.24-.09,0-.15-.23-.24-.24-1.45-.15-3.31-.01-4.56-.72-.16-.09-.31-.36-.48-.48-.42.21.11.52.12.6.11.64-.11,1.52,0,2.16.02.09.21.14.24.24.09.28-.12.54.36.84.05.03.17-.04.24,0,.19.1.55.41.72.48.88.35,2.18.73,3.12.96,1.05.26,1.56.16,2.64.24,1.15.09,3.03.53,4.32.24.1-.02.16-.33.48-.24.55.15.29,1.12.36,1.56.48,2.88,1.48,5.84,1.68,8.87.15,2.21-.37,3.89,0,5.99.71,4.01,1.66,7.98,2.4,11.98.14.74.11,1.68.24,2.4.01.07.38.25.24.72-.03.1-.22.15-.24.24-.05.21.06.52,0,.72-.02.09-.19.14-.24.24-.04.08.03.19,0,.24-.31.48-1.34.63-1.8,1.08-1.5.06-2.86.3-4.32.72-.1.03-.15.21-.24.24-1.27.34-2.78.25-4.08.48-.07.01-.24.38-.72.24l-.84-.6c-.04-.38.06-.84,0-1.2-.17-1.03-.75-3.05-1.2-4.07-.11-.25-.38-.63-.6-.84-.29.4-.84.2-1.32.24-.06.98.08,2.03,0,3,0,.09-.23.15-.24.24-.09.82.26,2.38-.72,2.28v1.68c-.42.05-.23-.54-.24-.84,0-.2,0-.4,0-.6-.59.04-1.22-.06-1.8,0-1.01.1-2.93.14-3.84.48-.13.05-.63.46-.72.48-.21.05-.99.05-1.2,0-.09-.02-.14-.19-.24-.24-.07-.03-.19.03-.24,0-.12-.07-.52-.48-.6-.6-.05-.09-.43-.83-.48-.96-.23-.63-.14-1.28-.24-1.92-.13-.89-.36-1.82-.24-2.88.04-.33.17-.35.24-.6h-.96c-.13.38.22.51.24.6.12.69-.06,1.65,0,2.4.28,3.71.9,7.66,1.44,11.26.1.66-.08,1.19-.24,1.8l.48-.24c-.04.35.05.75,0,1.08-.18,1.12-.11.91,0,1.92.05.44.09,2.04-.36,2.04-.11-.2-.47-.34-.6-.24-.06.05.21.71-.48.48-.06-.37.19-.47.24-.84.12-.91-.51-2.24-.24-3.36l.24-1.08-.48.48c-.09-1.85.12-3.8,0-5.63-.17-2.52-.75-5.37-.96-7.91-.13-1.55.62-2.84-1.56-2.52-.09.01-.15.23-.24.24-2.41.37-4.81.52-7.2.96-.07.01-.25.38-.72.24-.13-.04-.21-.37-.6-.24.13-.39-.2-.47-.24-.6-.06-.2.06-.51,0-.72-.08-.28-.4-.92-.48-1.2-2.75-10.09-3.58-21.02-3.36-32.35.44-.27.13-.82.24-1.2.02-.06.73-.77.84-.84.27-.16.79-.17.96-.24,3.87-1.62,7.62-2.12,11.75-2.64.43-.05,1.09.1,1.44,0,.2-.06.75-.9.96-.96.86-.25,1.92-.66,2.64-1.2.26-.2.91-.82.84-1.08-.03-.09-.21-.14-.24-.24-.11-.36.41-1.34.48-1.68.05-.24-.03-.57,0-.84-.27.03-.59-.05-.84,0-.22.05-.57.16-.96.24-.09.02-.16.33-.48.24-.1-.03-.81-.49-.84-.6-.33-1.19.82-2.08,1.68-2.64v-.12c-.77.08-.59-.44-.72-.84-.03-.1-.22-.15-.24-.24-.04-.22-.04-.74,0-.96.02-.09.22-.15.24-.24.1-.53,0-.61.24-1.2.32-.8.6-1.5,1.32-2.04.05-.04.18.04.24,0,.42-.29.93-.77,1.44-.96.13-.05.33.04.48,0,.1-.03.15-.22.24-.24.27-.05.92-.04,1.2,0,.09.01.15.22.24.24.22.05.52-.05.72,0,.43.12.83.67,1.2.96.05.04.19-.04.24,0,.47.38,1.98,1.83,2.28,2.28.13.19.17.76.48.96l-.84,1.08-1.08.24ZM333.37,79.81c-.09.02-.14.21-.24.24-.16.04-.35-.05-.48,0-.36.14-.66.51-.96.72-.06.04-.19-.04-.24,0-.61.45-.82.9-1.08,1.56-.23.59-.14.67-.24,1.2-.02.09-.22.15-.24.24-.04.2-.05.79,0,.96.02.06.78.82.84.84.27.07,1.33.04,1.68,0,1.72-.19,3.55-.94,5.28-1.2l1.32-.84c-1.04-1.45-2.34-2.83-3.96-3.48-.1-.04-.15-.22-.24-.24-.25-.06-1.17-.05-1.44,0ZM336.61,85.32l-1.56.24c-1.32.44-2.8.77-4.32.72-.71.68-1.81.94-1.56,2.16.44.18.71-.21.84-.24.82-.21,1.84-.29,2.64-.48.86-.21,1.77-.75,2.64-.96l1.32-1.44ZM337.81,85.8s-.52-.04-.72-.24c.11.46-.28.56-.48.84-.39.55-.59.76-1.32,1.08-.83.36-1.81.49-2.64.72-.1.03-.81.49-.84.6-.07.25.05.66,0,.96-.06.37-.3.47-.24.84h.6l.96-.72.96.24c.4-.53.49-.1.72,0,.13.05.32-.04.36,0,.03.03.03.42.12.72s-.05.29-.24.48c-.47.14-.65-.23-.72-.24-.65-.11-1.19.09-1.8.24l.36.72c.74,0,1.47-.63,2.16-.48.08.02.81.49.84.6.05.16-.03.41,0,.6.55.06.92-.44,1.32-.72.06-.04.19.04.24,0,.54-.41,1.31-1.25,1.56-1.8.05-.1.2-.15.24-.24.05-.13-.04-.32,0-.48.03-.1.24-.16.24-.24s-.22-.15-.24-.24c-.14-.83.05-1.22-.24-2.16-.13-.43.4-.82.24-1.32-1.03-.06-.44.98-1.08,1.44l-.36-.6c-.03-.17.05-.55,0-.6ZM350.04,103.3c.09-.79.36-1.45.24-2.28-.01-.09-.22-.15-.24-.24-.38-1.89-.58-3.87-.96-5.75-.13-.63-.23-1.52-.48-2.16-.08-.19-.61-1.06-.72-1.2-.2-.27-.81-.89-1.08-1.08-.98-.71-2.83-1.19-4.08-1.44-.09-.02-.15-.23-.24-.24-.33-.05-1.13-.06-1.44,0-.09.02-.14.21-.24.24-.29.09-.53-.12-.84.36-.22.35-.26,1.07-.48,1.44-.42.7-2.74,2.43-3.48,2.76-.13.06-.34-.06-.48,0s-.63.46-.72.48c-.24.05-1.2.05-1.44,0-.08-.02-.57-.39-.72-.48-.06-.04-.19.03-.24,0-.9-.6-.95-1.72-2.16-.24-.81.2-1.46.85-2.28.96-.32.28-.03.46.36.48.79.04,1.61-.06,2.4,0,.62.04,2,.42,2.64.48.59.05,1.4-.11,1.92,0,.08.02.81.49.84.6.09.3.14.94.24,1.2.04.09.19.14.24.24.03.07-.03.19,0,.24.09.15.93.99,1.08,1.08.05.03.17-.03.24,0,.1.05.15.22.24.24.28.06.67-.05.96,0,.09.02.15.23.24.24.67.08,1.46-.06,2.16,0,.09,0,.15.23.24.24,1.24.12,2.1-.08,3.12-.48.1-.04.15-.21.24-.24h.24c.19.28.39.27.72.24l3.96,4.31ZM332.77,92.27c.61,1.24,1.94,1.28,2.88.36-.02-.75-.77-.45-1.08-.84l-.24.24-1.56.24ZM326.78,95.63c-.06-.06-1.51-.03-1.8,0-3.62.36-7.04,1.21-10.55,2.16-.46.32-1.04.67-1.56.72.01.36.08.63-.24.84-.29,11.66.6,22.8,3.6,33.07.04.15-.04.33,0,.48s.41.38.24.84c.39.13.5-.22.6-.24,1.97-.36,4.08-.66,6-.96,3.18-.5,11.08-1,14.15-.24.31.08.65.23.72.24.25.05.57-.03.84,0-.04-.51.06-1.06,0-1.56-.18-1.57-.55-3.42-.72-5.03-.72-6.79-1.05-13.79-1.68-20.61-.19-2.06-.22-4.37-.48-6.47-.01-.09-.22-.15-.24-.24-.05-.29.07-.71,0-.96-.02-.06-.78-.82-.84-.84-.25-.07-.67.05-.96,0-.09-.02-.15-.23-.24-.24-.38-.05-1.06-.05-1.44,0-.09.01-.15.23-.24.24-1.2.11-2.31-.06-3.36-.24-.54-.09-1.43.06-1.8-.6-.06-.11.04-.31,0-.36ZM339.73,123.43c.35-.04.75.05,1.08,0,1.58-.26,3.2-.45,4.8-.96,1.3-.41,2.67-1.15,3.84-1.68.19-.09.61.1.84-.36,0-.08-.22-.15-.24-.24-.07-.45-.05-1.43,0-1.92.47-4.94-.47-7.11-1.2-11.5-.07-.44.19-1.41-.36-1.56-.6-.16-2.1.05-2.88,0-.08,0-.16-.24-.24-.24-1.49-.08-2.96.17-4.32-.24-.94-.29-1.99-.87-2.88-1.2-.36-.13-.68-.31-1.08-.24-.13.38.22.51.24.6.1.56-.06,1.31,0,1.92.28,2.91.48,6.01.96,8.87.42,2.51,1.03,5.12,1.44,7.67.05.33-.03.73,0,1.08ZM350.52,121.51c-.27.03-.59-.05-.84,0-1.51.31-3.79,1.76-5.52,2.16-1.14.26-2.45.25-3.6.48-.25.05-.57-.03-.84,0,.04.43-.06.91,0,1.32.34,2.56.06,5.47.72,7.91.07.26.6.9.72,1.2.53,1.32.61,2.78.96,4.07.13.48-.26.82.84.6,1.83-.38,3.61-.73,5.52-1.2.64-.16,1.51-.37,2.16-.48.29-.05.68.06.96,0,.08-.02.56-.39.72-.48.07-.04.19.03.24,0,.48-.3.27-.55.36-.84.03-.1.22-.15.24-.24.05-.27.04-.92,0-1.2-.01-.09-.22-.15-.24-.24-.72-4.02-1.23-8.05-2.16-11.98-.02-.09-.22-.15-.24-.24-.05-.25.03-.57,0-.84ZM337.57,133.49c-.38.13-.51-.22-.6-.24-1.27-.22-3.17.1-4.56,0-.09,0-.15-.23-.24-.24-.97-.08-2.26.01-3.12.24-.14.04-.4.42-.84.24.08.96-.12,2.06,0,3,.03.24.39,1.13.48,1.44.09.33.08.37.24.72.03.07-.03.19,0,.24.36.61,1.12.75,1.8.6.09-.02.61-.45.72-.48.2-.05.9-.23.96-.24,1.23-.18,2.85.18,4.08,0,.09-.01.14-.21.24-.24.18-.05.55.05.6,0,.04-.04-.05-.23,0-.36.04-.11.24-.17.24-.24v-4.43Z"/>
      <path d="M346.93,142.84c.42-.06.23.55.24.84.02,1.12.1,2.51,0,3.59-.03.35-.44,1.55-.48,1.92-.06.5.04,1.05,0,1.56-.76.14-.36-.26-.48-.6-.05-.13-.37-.32-.48-.48l.72-.12c-.18-.43.23-.77.24-.84.05-.37.24-1.59.24-1.68v-4.19Z"/>
      <path d="M332.77,139.97c0,.49-.7-.04-.48.72h.48c-.06.65.09,1.41,0,2.04-.01.09-.17.67-.24.96-.02.09-.22.15-.24.24-.07.3.22.89-.24.84.04-.51-.05-1.06,0-1.56.04-.39.45-1.23.24-1.92-.33-.23-.26-.6-.24-.96.04-.62.24-.32.72-.36Z"/>
    </g>
    <path d="M322.22,149.79c-.07.08-.61-.45-.72-.6-.33-.45-.65-1.2-.96-1.68-.2-.31-1.46-1.73-1.2-2.04.25.08.57.39.72.6.51.7.98,1.65,1.44,2.4.15.24.88,1.13.72,1.32Z"/>
  </g>
</svg>